<?xml version="1.0" encoding="utf-8"?>
<!-- Generator: Adobe Illustrator 16.0.0, SVG Export Plug-In . SVG Version: 6.00 Build 0)  -->
<!DOCTYPE svg PUBLIC "-//W3C//DTD SVG 1.1//EN" "http://www.w3.org/Graphics/SVG/1.1/DTD/svg11.dtd">
<svg version="1.1" id="Layer_1" xmlns="http://www.w3.org/2000/svg" xmlns:xlink="http://www.w3.org/1999/xlink" x="0px" y="0px"
	 width="86.061px" height="87.874px" viewBox="0 0 86.061 87.874" enable-background="new 0 0 86.061 87.874" xml:space="preserve">
<g>
	<defs>
		<rect id="SVGID_17_" x="1387.647" y="-637.846" width="1600" height="819"/>
	</defs>
	<clipPath id="SVGID_2_">
		<use xlink:href="#SVGID_17_"  overflow="visible"/>
	</clipPath>
	<g clip-path="url(#SVGID_2_)">
		<g>
			<g>
				<g>
					<g>
						<defs>
							<rect id="SVGID_189_" x="1387.648" y="-1068.846" width="1600" height="1600"/>
						</defs>
						<clipPath id="SVGID_4_">
							<use xlink:href="#SVGID_189_"  overflow="visible"/>
						</clipPath>
						<g clip-path="url(#SVGID_4_)">
							
								<linearGradient id="SVGID_6_" gradientUnits="userSpaceOnUse" x1="-134.9717" y1="3168.626" x2="373.0283" y2="3168.626" gradientTransform="matrix(0 -1 1 0 -2754.415 435.8076)">
								<stop  offset="0" style="stop-color:#FFFFFF"/>
								<stop  offset="1" style="stop-color:#C2C2C2"/>
							</linearGradient>
							<polygon fill="url(#SVGID_6_)" points="-100.914,344.654 929.336,570.779 382.961,62.779 							"/>
							
								<linearGradient id="SVGID_8_" gradientUnits="userSpaceOnUse" x1="653.6533" y1="2533.876" x2="653.6533" y2="3138.6885" gradientTransform="matrix(0 -1 1 0 -2754.415 435.8076)">
								<stop  offset="0" style="stop-color:#FFFFFF"/>
								<stop  offset="1" style="stop-color:#C2C2C2"/>
							</linearGradient>
							<polygon fill="url(#SVGID_8_)" points="382.961,62.779 384.273,62.779 290.711,-388.721 -220.539,-498.471 							"/>
							
								<linearGradient id="SVGID_10_" gradientUnits="userSpaceOnUse" x1="512.7158" y1="3137.376" x2="512.7158" y2="2533.876" gradientTransform="matrix(0 -1 1 0 -2754.415 435.8076)">
								<stop  offset="0" style="stop-color:#FFFFFF"/>
								<stop  offset="1" style="stop-color:#C2C2C2"/>
							</linearGradient>
							<polygon fill="url(#SVGID_10_)" points="-100.914,344.654 382.961,62.779 -220.539,-498.471 							"/>
						</g>
					</g>
				</g>
			</g>
		</g>
	</g>
</g>
<g>
	<defs>
		<rect id="SVGID_307_" x="-1928.353" y="-1086.846" width="1600" height="819"/>
	</defs>
	<clipPath id="SVGID_12_">
		<use xlink:href="#SVGID_307_"  overflow="visible"/>
	</clipPath>
	<g clip-path="url(#SVGID_12_)">
		<g>
			<g>
				<g>
					<g>
						<defs>
							<rect id="SVGID_335_" x="-1928.352" y="-1517.846" width="1600" height="1600"/>
						</defs>
						<clipPath id="SVGID_14_">
							<use xlink:href="#SVGID_335_"  overflow="visible"/>
						</clipPath>
						<g clip-path="url(#SVGID_14_)">
							
								<linearGradient id="SVGID_16_" gradientUnits="userSpaceOnUse" x1="-3325.3535" y1="3456.3691" x2="-2322.9785" y2="3456.3691" gradientTransform="matrix(-1 0 0 -1 -2408.4551 3019.2734)">
								<stop  offset="0" style="stop-color:#FFFFFF"/>
								<stop  offset="1" style="stop-color:#C2C2C2"/>
							</linearGradient>
							<polygon fill="url(#SVGID_16_)" points="-85.477,-759.846 916.898,37.029 340.648,-911.221 							"/>
							
								<linearGradient id="SVGID_18_" gradientUnits="userSpaceOnUse" x1="-2722.5103" y1="3779.1191" x2="-2722.5103" y2="2478.7441" gradientTransform="matrix(-1 0 0 -1 -2408.4551 3019.2734)">
								<stop  offset="0" style="stop-color:#FFFFFF"/>
								<stop  offset="1" style="stop-color:#C2C2C2"/>
							</linearGradient>
							<polygon fill="url(#SVGID_18_)" points="-288.789,540.529 916.898,37.029 -85.477,-759.846 							"/>
							
								<linearGradient id="SVGID_20_" gradientUnits="userSpaceOnUse" x1="-3325.3535" y1="2533.6191" x2="-2119.666" y2="2533.6191" gradientTransform="matrix(-1 0 0 -1 -2408.4551 3019.2734)">
								<stop  offset="0" style="stop-color:#FFFFFF"/>
								<stop  offset="1" style="stop-color:#C2C2C2"/>
							</linearGradient>
							<polygon fill="url(#SVGID_20_)" points="213.336,934.279 214.648,933.529 916.898,37.029 -288.789,540.529 							"/>
						</g>
					</g>
				</g>
			</g>
		</g>
	</g>
</g>
<g>
	<path fill="#92A4CC" d="M73.459,12.673C46.148-14.635-0.079,5.256,0,43.152c0.035,1.223,1.203,29.12,36.945,43.491
		c3.614,1.453,7.809,1.715,11.5,0.266c36.398-14.289,37.58-42.526,37.615-43.757C86.086,31.306,81.283,20.498,73.459,12.673z"/>
	<path fill="#859BC1" d="M45.758,86.644C10.014,72.273,8.847,44.375,8.812,43.152C8.762,19.143,27.3,2.361,47.838,0.23
		C24.12-2.252-0.058,15.737,0,43.152c0.035,1.223,1.203,29.12,36.945,43.491c3.311,1.331,7.106,1.657,10.557,0.592
		C46.91,87.067,46.326,86.872,45.758,86.644z"/>
	
		<ellipse transform="matrix(-0.866 -0.5 0.5 -0.866 84.4046 116.7903)" fill="#656566" cx="57.85" cy="47.086" rx="8.448" ry="12.222"/>
	<path fill="#4F4F51" d="M65.988,38.419c-0.528-0.787-1.203-1.441-2.023-1.915c-4.041-2.334-10.053,0.514-13.428,6.359
		c-4.415,7.647-1.91,15.652,4.389,15.618C50.337,51.652,57.573,38.463,65.988,38.419z"/>
	
		<ellipse transform="matrix(0.866 -0.5 0.5 0.866 -19.7652 20.4141)" fill="#656566" cx="28.208" cy="47.087" rx="8.448" ry="12.221"/>
	<path fill="#4F4F51" d="M26.135,48.91c-2.783-4.821-2.901-10.175-0.59-13.212c-1.229-0.052-2.404,0.203-3.449,0.806
		c-4.041,2.333-4.581,8.963-1.207,14.808c4.012,6.948,11.625,9.491,15.223,4.764C32.589,55.928,28.637,53.244,26.135,48.91z"/>
	<path fill="#656566" d="M36.771,69.147c-0.507-0.528-0.49-1.368,0.039-1.875c0.527-0.508,1.367-0.49,1.875,0.038
		c2.75,2.864,5.781,3.028,8.689,0c0.508-0.528,1.347-0.545,1.875-0.038s0.545,1.347,0.038,1.875
		C45.419,73.178,40.646,73.184,36.771,69.147z"/>
</g>
</svg>
