<?xml version="1.0" encoding="utf-8"?>
<!-- Generator: Adobe Illustrator 16.0.0, SVG Export Plug-In . SVG Version: 6.00 Build 0)  -->
<!DOCTYPE svg PUBLIC "-//W3C//DTD SVG 1.1//EN" "http://www.w3.org/Graphics/SVG/1.1/DTD/svg11.dtd">
<svg version="1.1" id="Layer_1" xmlns="http://www.w3.org/2000/svg" xmlns:xlink="http://www.w3.org/1999/xlink" x="0px" y="0px"
	 width="155.792px" height="181.187px" viewBox="0 0 155.792 181.187" enable-background="new 0 0 155.792 181.187"
	 xml:space="preserve">
<g>
	<defs>
		<rect id="SVGID_17_" x="1294.248" y="-2163.054" width="1600" height="819"/>
	</defs>
	<clipPath id="SVGID_2_">
		<use xlink:href="#SVGID_17_"  overflow="visible"/>
	</clipPath>
	<g clip-path="url(#SVGID_2_)">
		<g>
			<g>
				<g>
					<g>
						<defs>
							<rect id="SVGID_189_" x="1294.249" y="-2594.054" width="1600" height="1600"/>
						</defs>
						<clipPath id="SVGID_4_">
							<use xlink:href="#SVGID_189_"  overflow="visible"/>
						</clipPath>
						<g clip-path="url(#SVGID_4_)">
							
								<linearGradient id="SVGID_6_" gradientUnits="userSpaceOnUse" x1="-1397.6211" y1="1508.5117" x2="-731.1211" y2="1508.5117" gradientTransform="matrix(0 -1 1 0 -1322.6064 -1182.7998)">
								<stop  offset="0" style="stop-color:#FFFFFF"/>
								<stop  offset="1" style="stop-color:#C2C2C2"/>
							</linearGradient>
							<polygon fill="url(#SVGID_6_)" points="-71.063,203.071 271.999,214.821 442.874,-451.054 442.124,-451.679 							"/>
							
								<linearGradient id="SVGID_8_" gradientUnits="userSpaceOnUse" x1="-691.4961" y1="1477.3545" x2="-1385.8711" y2="1477.3545" gradientTransform="matrix(0 -1 1 0 -1322.6064 -1182.7998)">
								<stop  offset="0" style="stop-color:#FFFFFF"/>
								<stop  offset="1" style="stop-color:#C2C2C2"/>
							</linearGradient>
							<polygon fill="url(#SVGID_8_)" points="-132.626,-491.304 -71.063,203.071 442.124,-451.679 							"/>
						</g>
					</g>
				</g>
			</g>
		</g>
	</g>
</g>
<g>
	<defs>
		<rect id="SVGID_307_" x="-2021.752" y="-2612.054" width="1600" height="819"/>
	</defs>
	<clipPath id="SVGID_10_">
		<use xlink:href="#SVGID_307_"  overflow="visible"/>
	</clipPath>
	<g clip-path="url(#SVGID_10_)">
		<g>
			<g>
				<g>
					<g>
						<defs>
							<rect id="SVGID_335_" x="-2021.751" y="-3043.054" width="1600" height="1600"/>
						</defs>
						<clipPath id="SVGID_12_">
							<use xlink:href="#SVGID_335_"  overflow="visible"/>
						</clipPath>
						<g clip-path="url(#SVGID_12_)">
							
								<linearGradient id="SVGID_14_" gradientUnits="userSpaceOnUse" x1="-2676.2529" y1="-347.6514" x2="-1987.0029" y2="-347.6514" gradientTransform="matrix(-1 0 0 -1 -2595.2539 -31.1426)">
								<stop  offset="0" style="stop-color:#FFFFFF"/>
								<stop  offset="1" style="stop-color:#C2C2C2"/>
							</linearGradient>
							<polygon fill="url(#SVGID_14_)" points="-608.251,45.571 35.374,649.196 80.999,-16.179 							"/>
							
								<linearGradient id="SVGID_16_" gradientUnits="userSpaceOnUse" x1="-3370.6279" y1="-316.9014" x2="-2630.6279" y2="-316.9014" gradientTransform="matrix(-1 0 0 -1 -2595.2539 -31.1426)">
								<stop  offset="0" style="stop-color:#FFFFFF"/>
								<stop  offset="1" style="stop-color:#C2C2C2"/>
							</linearGradient>
							<polygon fill="url(#SVGID_16_)" points="35.374,649.196 775.374,-77.679 80.999,-16.179 							"/>
							
								<linearGradient id="SVGID_18_" gradientUnits="userSpaceOnUse" x1="-2630.6279" y1="-548.9639" x2="-1723.2529" y2="-548.9639" gradientTransform="matrix(-1 0 0 -1 -2595.2539 -31.1426)">
								<stop  offset="0" style="stop-color:#FFFFFF"/>
								<stop  offset="1" style="stop-color:#C2C2C2"/>
							</linearGradient>
							<polygon fill="url(#SVGID_18_)" points="-872.001,990.071 35.374,649.196 -608.251,45.571 							"/>
							
								<linearGradient id="SVGID_20_" gradientUnits="userSpaceOnUse" x1="-2351.4409" y1="559.7861" x2="-2351.4409" y2="-76.7139" gradientTransform="matrix(-1 0 0 -1 -2595.2539 -31.1426)">
								<stop  offset="0" style="stop-color:#FFFFFF"/>
								<stop  offset="1" style="stop-color:#C2C2C2"/>
							</linearGradient>
							<polygon fill="url(#SVGID_20_)" points="80.999,-16.179 120.624,-590.929 119.937,-590.929 -608.251,45.571 							"/>
							
								<linearGradient id="SVGID_22_" gradientUnits="userSpaceOnUse" x1="-2351.0972" y1="953.5361" x2="-2351.0972" y2="-76.7139" gradientTransform="matrix(-1 0 0 -1 -2595.2539 -31.1426)">
								<stop  offset="0" style="stop-color:#FFFFFF"/>
								<stop  offset="1" style="stop-color:#C2C2C2"/>
							</linearGradient>
							<polygon fill="url(#SVGID_22_)" points="119.937,-590.929 -382.188,-984.679 -608.251,45.571 							"/>
							
								<linearGradient id="SVGID_24_" gradientUnits="userSpaceOnUse" x1="-2630.6274" y1="-389.6519" x2="-3920.1284" y2="-389.6517" gradientTransform="matrix(-1 0 0 -1 -2595.2539 -31.1426)">
								<stop  offset="0" style="stop-color:#FFFFFF"/>
								<stop  offset="1" style="stop-color:#C2C2C2"/>
							</linearGradient>
							<polygon fill="url(#SVGID_24_)" points="1324.875,488.696 1181.312,67.821 35.374,649.196 							"/>
							
								<linearGradient id="SVGID_26_" gradientUnits="userSpaceOnUse" x1="-3776.5654" y1="-316.9014" x2="-2630.6279" y2="-316.9014" gradientTransform="matrix(-1 0 0 -1 -2595.2539 -31.1426)">
								<stop  offset="0" style="stop-color:#FFFFFF"/>
								<stop  offset="1" style="stop-color:#C2C2C2"/>
							</linearGradient>
							<polygon fill="url(#SVGID_26_)" points="35.374,649.196 1181.312,67.821 775.374,-77.679 							"/>
						</g>
					</g>
				</g>
			</g>
		</g>
	</g>
</g>
<g>
	<path fill-rule="evenodd" clip-rule="evenodd" fill="#02458D" d="M155.555,38.193c0,6.683-0.096,13.368,0.026,20.049
		c0.119,6.394-0.021,12.786,0.104,19.177c0.202,10.379,0.051,20.758,0.079,31.137c0.003,1.378-0.06,2.787-0.28,4.131
		c-0.313,1.911-0.393,3.847-0.768,5.75c-0.324,1.648-0.571,3.324-0.988,4.939c-0.377,1.469-0.693,2.982-1.319,4.391
		c-0.129,0.288-0.247,0.62-0.274,0.924c-0.077,0.825-0.637,1.454-0.812,2.233c-0.251,1.113-0.829,2.108-1.324,3.111
		c-0.4,0.81-0.729,1.665-1.228,2.451c-0.512,0.81-0.946,1.7-1.453,2.527c-0.688,1.116-1.438,2.196-2.193,3.272
		c-0.473,0.673-0.966,1.351-1.49,1.964c-0.704,0.823-1.249,1.806-2.173,2.439c-0.147,0.1-0.281,0.249-0.364,0.404
		c-0.316,0.602-0.948,0.893-1.351,1.392c-0.53,0.659-1.278,1.085-1.763,1.793c-0.211,0.305-0.6,0.486-0.9,0.73
		c-1.165,0.943-2.261,1.964-3.478,2.847c-1.083,0.784-2.249,1.479-3.261,2.319c-0.822,0.685-1.852,1-2.607,1.797
		c-0.422,0.445-1.123,0.742-1.731,1.003c-0.561,0.242-0.985,0.657-1.522,0.926c-1.421,0.711-2.797,1.517-4.188,2.29
		c-1.023,0.568-2.153,0.938-3.123,1.563c-0.951,0.612-2.028,0.914-2.969,1.475c-0.951,0.568-2.007,0.889-2.942,1.447
		c-1.05,0.626-2.262,0.902-3.277,1.536c-1.067,0.665-2.272,0.964-3.354,1.56c-1.113,0.612-2.335,0.996-3.475,1.548
		c-1.11,0.538-2.279,0.944-3.375,1.495c-1.016,0.515-2.088,0.874-3.121,1.331c-0.688,0.302-1.314,0.734-2.041,0.963
		c-1.748,0.553-3.357,1.444-5.069,2.096c-1.359,0.517-2.729,1.04-4.044,1.658c-1.14,0.536-2.345,0.885-3.469,1.426
		c-0.604,0.291-1.192,0.607-1.826,0.837c-0.332,0.119-0.647,0.056-0.926-0.08c-1.454-0.716-2.982-1.247-4.463-1.887
		c-1.301-0.563-2.658-0.996-3.92-1.623c-1.148-0.57-2.417-0.854-3.509-1.481c-1.14-0.655-2.452-0.854-3.553-1.503
		c-0.876-0.517-1.827-0.811-2.731-1.232c-1.271-0.594-2.616-1.038-3.857-1.684c-0.853-0.443-1.754-0.744-2.608-1.164
		c-1.301-0.64-2.652-1.168-3.962-1.78c-1.038-0.485-2.065-0.997-3.115-1.465c-1.137-0.506-2.307-0.992-3.359-1.611
		c-1.146-0.674-2.502-0.928-3.526-1.843c-0.188-0.169-0.533-0.336-0.844-0.432c-1.284-0.393-2.332-1.258-3.549-1.795
		c-1.178-0.52-2.233-1.278-3.374-1.883c-0.962-0.508-1.939-1.04-2.818-1.664c-1.323-0.939-2.682-1.828-4.014-2.752
		c-1.498-1.042-2.936-2.168-4.325-3.333c-0.869-0.729-1.764-1.462-2.562-2.306c-0.662-0.702-1.44-1.348-2.112-2.044
		c-0.79-0.816-1.598-1.64-2.3-2.557c-0.436-0.568-0.904-1.126-1.335-1.698c-0.552-0.738-1.101-1.49-1.624-2.25
		c-0.521-0.755-0.985-1.549-1.497-2.309c-0.645-0.959-1.282-1.946-1.744-3c-0.455-1.036-0.962-2.051-1.408-3.092
		c-0.375-0.877-0.591-1.818-1.007-2.656c-0.488-0.98-0.743-2.027-1.086-3.04c-0.274-0.809-0.392-1.712-0.666-2.512
		c-0.535-1.561-0.662-3.187-1.046-4.763c-0.505-2.067-0.579-4.188-0.878-6.277c-0.659-4.595-0.421-9.207-0.443-13.814
		c-0.034-6.52-0.095-13.041,0.013-19.56c0.153-9.378-0.033-18.755,0.119-28.13c0.182-11.197,0.054-22.392,0.073-33.587
		c0.002-0.812,0.395-1.195,0.93-1.457c0.75-0.366,1.569-0.659,2.269-1.08c0.915-0.553,1.929-0.863,2.835-1.407
		c1.105-0.661,2.371-0.97,3.51-1.538c0.654-0.326,1.332-0.585,1.976-0.915c0.354-0.182,0.731-0.156,1.087-0.334
		c1.673-0.83,3.484-1.305,5.227-1.954c1.406-0.524,2.848-0.926,4.246-1.449c1.485-0.554,3.015-0.927,4.541-1.322
		c0.592-0.154,1.129-0.452,1.731-0.601c0.786-0.194,1.598-0.292,2.36-0.533c0.855-0.271,1.761-0.301,2.602-0.721
		c0.54-0.27,1.241-0.352,1.876-0.444c1.503-0.224,3.017-0.474,4.473-0.844c1.382-0.353,2.788-0.551,4.175-0.813
		c1.121-0.211,2.264-0.422,3.42-0.515c0.758-0.063,1.55-0.127,2.309-0.404c0.896-0.329,1.885-0.209,2.826-0.335
		c1.954-0.264,3.911-0.495,5.875-0.662c1.848-0.155,3.727-0.095,5.546-0.399C66.841,0.125,69.63,0.3,72.41,0.137
		c3.554-0.21,7.106-0.138,10.66-0.05c2.022,0.052,4.044,0.084,6.062,0.19c1.162,0.062,2.313,0.282,3.475,0.382
		c1.501,0.133,3.01,0.185,4.51,0.326c2.022,0.192,4.042,0.428,6.061,0.666c0.844,0.1,1.69,0.082,2.537,0.277
		c2.398,0.553,4.857,0.781,7.281,1.205c2.265,0.396,4.488,0.984,6.756,1.335c0.766,0.118,1.516,0.303,2.26,0.482
		c0.592,0.142,1.164,0.397,1.775,0.521c0.969,0.198,1.941,0.395,2.894,0.654c1.327,0.36,2.632,0.807,3.961,1.161
		c0.7,0.185,1.382,0.432,2.094,0.595c0.905,0.207,1.764,0.607,2.648,0.909c0.513,0.174,1.036,0.313,1.545,0.507
		c1.453,0.555,2.946,1.005,4.385,1.594c1.302,0.534,2.66,0.933,3.926,1.537c0.762,0.361,1.526,0.742,2.304,1.044
		c1.436,0.559,2.777,1.308,4.18,1.929c0.766,0.339,1.535,0.739,2.277,1.158c0.389,0.22,0.791,0.418,1.166,0.683
		c0.345,0.245,0.37,0.458,0.37,0.778c0,6.724,0,13.449,0,20.173C155.542,38.193,155.548,38.193,155.555,38.193z M103.14,128.091
		c0.71,0.5,1.443,0.629,2.032,1.225c0.585,0.593,1.112,1.235,1.386,1.946c0.357,0.934,0.822,1.854,0.917,2.893
		c0.233,2.572,0.26,5.125-0.364,7.657c-0.506,2.058-0.551,4.188-0.966,6.265c-0.354,1.777-0.309,3.614-0.38,5.426
		c-0.11,2.795-0.06,5.594,0.215,8.383c0.085,0.857,0.063,0.858,0.807,0.374c0.046-0.03,0.122-0.012,0.175-0.037
		c1.154-0.584,2.398-0.959,3.521-1.632c0.921-0.552,1.954-0.891,2.889-1.46c0.919-0.561,1.942-0.955,2.896-1.49
		c1.057-0.591,2.201-1.039,3.232-1.694c0.81-0.515,1.687-0.907,2.506-1.415c1.061-0.659,2.09-1.389,3.209-1.953
		c0.533-0.269,0.952-0.721,1.442-1.003c1.038-0.596,1.946-1.356,2.921-2.03c0.34-0.236,0.724-0.444,1.012-0.716
		c0.801-0.759,1.691-1.412,2.515-2.145c0.759-0.675,1.503-1.374,2.255-2.055c0.984-0.892,1.883-1.896,2.707-2.938
		c0.536-0.679,1.084-1.371,1.619-2.041c0.871-1.093,1.635-2.246,2.394-3.406c0.632-0.967,1.13-2.02,1.721-3.015
		c0.679-1.141,1.116-2.392,1.681-3.585c0.254-0.539,0.299-1.189,0.6-1.692c0.623-1.036,0.727-2.237,1.172-3.333
		c0.477-1.172,0.589-2.496,0.963-3.741c0.407-1.356,0.448-2.811,0.78-4.206c0.179-0.748,0.27-1.545,0.325-2.339
		c0.168-2.42,0.408-4.837,0.44-7.263c0.067-5.291,0.024-10.583-0.065-15.875c-0.134-7.867,0.043-15.734-0.126-23.603
		c-0.084-3.901-0.069-7.806-0.077-11.708c0-0.467-0.162-0.633-0.607-0.71c-1.244-0.216-2.473-0.515-3.717-0.716
		c-1.521-0.248-3.055-0.416-4.58-0.643c-1.214-0.181-2.416-0.5-3.635-0.568c-1.609-0.092-3.206-0.315-4.805-0.473
		c-2.336-0.229-4.678-0.379-7.014-0.505c-2.681-0.146-5.366-0.181-8.051-0.312c-3.532-0.174-7.08-0.21-10.627,0.096
		c-3.598,0.312-7.225,0.129-10.829,0.429c-1.808,0.151-3.628,0.216-5.422,0.46c-1.52,0.205-3.06,0.203-4.567,0.586
		c-0.766,0.195-1.606,0.213-2.412,0.309c-2.869,0.34-5.725,0.758-8.555,1.34c-1.055,0.216-2.111,0.42-3.168,0.615
		c-1.499,0.273-3.016,0.419-4.488,0.867c-1.66,0.505-3.394,0.733-5.074,1.188c-0.387,0.104-0.685,0.37-1.098,0.408
		c-0.826,0.076-1.61,0.361-2.405,0.586c-0.897,0.254-1.785,0.527-2.666,0.841c-1.58,0.561-3.265,0.754-4.815,1.474
		c-1.293,0.601-2.722,0.846-4.041,1.456c-1.295,0.599-2.724,0.938-4.008,1.587c-0.358,0.182-0.735,0.13-1.082,0.334
		c-0.865,0.51-1.861,0.735-2.737,1.27c-0.94,0.574-2.05,0.826-2.999,1.443c-0.95,0.617-2.061,0.942-3.064,1.501
		c-1.152,0.642-2.316,1.272-3.465,1.927c-0.702,0.399-1.392,0.813-2.062,1.276c-0.659,0.454-1.441,0.724-2.097,1.23
		c-0.668,0.519-1.493,0.849-2.113,1.411c-0.717,0.651-1.579,1.082-2.309,1.716c-0.479,0.414-1.143,0.687-1.568,1.155
		c-0.698,0.771-1.577,1.328-2.348,1.99c-1.132,0.973-2.23,1.98-3.338,2.98c-0.868,0.783-1.572,1.734-2.511,2.44
		c-0.276,0.208-0.272,0.599-0.539,0.789c-0.886,0.631-1.444,1.567-2.146,2.36c-0.678,0.767-1.317,1.589-1.924,2.424
		c-0.213,0.293-0.432,0.594-0.445,1.021c-0.13,4.012,0.05,8.032-0.304,12.039c-0.068,0.786,0.06,1.572,0.123,2.36
		c0.159,1.95,0.116,3.915,0.313,5.866c0.198,1.963,0.193,3.944,0.737,5.872c0.368,1.304,0.356,2.684,0.817,3.991
		c0.452,1.285,0.543,2.682,1.044,3.971c0.283,0.729,0.412,1.518,0.691,2.248c0.417,1.097,0.926,2.159,1.358,3.25
		c0.387,0.978,0.849,1.939,1.37,2.82c0.718,1.21,1.353,2.48,2.226,3.611c0.676,0.875,1.249,1.842,1.947,2.706
		c0.63,0.78,1.298,1.53,1.958,2.288c0.707,0.813,1.419,1.646,2.217,2.34c0.799,0.695,1.526,1.469,2.365,2.131
		c0.897,0.707,1.761,1.465,2.682,2.151c0.986,0.732,1.961,1.479,2.969,2.185c1.084,0.761,2.208,1.449,3.335,2.138
		c1.053,0.644,2.101,1.294,3.154,1.937c0.691,0.424,1.438,0.732,2.124,1.188c0.861,0.571,1.866,0.909,2.778,1.435
		c1.121,0.646,2.308,1.195,3.479,1.761c0.942,0.457,1.854,0.978,2.813,1.397c0.293,0.128,0.609,0.178,0.894,0.355
		c0.699,0.436,1.481,0.709,2.202,1.124c0.946,0.545,2.031,0.837,3.002,1.376c1.318,0.732,2.76,1.204,4.127,1.842
		c0.932,0.434,1.873,0.855,2.813,1.279c0.712,0.32,1.411,0.681,2.146,0.934c0.767,0.264,1.427,0.745,2.209,0.974
		c0.649,0.19,1.327,0.37,1.902,0.709c1.347,0.792,2.847,1.221,4.254,1.869c1.309,0.603,2.664,1.163,4.048,1.633
		c0.843,0.286,1.749,0.529,2.496,1.005c1.02,0.65,1.819,0.58,2.895,0.017c1.514-0.796,3.191-1.276,4.801-1.888
		c0.296-0.113,0.383-0.296,0.18-0.554c-0.636-0.806-1.145-1.715-1.813-2.477c-0.905-1.032-1.588-2.21-2.385-3.306
		c-0.546-0.75-1.153-1.466-1.642-2.273c-0.355-0.588-0.791-1.161-1.214-1.724c-0.694-0.924-1.347-1.878-2.032-2.807
		c-0.486-0.661-0.945-1.346-1.443-1.991c-0.326-0.422-0.673-0.791-0.824-1.459c0.668,0.637,1.311,1.106,2.058,1.379
		c0.637,0.233,1.187,0.618,1.782,0.922c0.749,0.382,1.558,0.583,2.348,0.787c0.734,0.191,1.419,0.555,2.167,0.65
		c0.947,0.12,1.897,0.229,2.851,0.306c3.139,0.256,6.242,0.093,9.244-0.866c1.091-0.35,2.215-0.634,3.234-1.312
		c0.935-0.621,2.018-1.028,2.9-1.782c0.568-0.483,1.145-0.946,1.628-1.517c0.432-0.511,0.617-1.084,0.532-1.755
		c-0.086-0.663-0.608-1.126-1.27-1.168c-0.572-0.037-1.02,0.113-1.474,0.486c-0.534,0.438-1.255,0.668-1.733,1.15
		c-0.818,0.824-1.887,1.277-2.854,1.729c-1.905,0.889-3.956,1.503-6.063,1.83c-3.375,0.527-6.729,0.637-10.046-0.419
		c-1.518-0.483-3.032-0.898-4.459-1.691c-1.184-0.657-2.271-1.427-3.365-2.198c-0.229-0.16-0.509-0.288-0.679-0.554
		c-0.421-0.654-1.024-1.158-1.501-1.778c-0.537-0.699-0.951-1.465-1.324-2.222c-0.442-0.9-0.673-1.927-0.855-2.924
		c-0.19-1.043-0.122-2.115-0.016-3.174c0.054-0.534,0.371-0.993,0.361-1.64c1.266,2.093,2.607,3.889,4.592,5.198
		c1.088,0.718,2.189,1.358,3.385,1.834c0.41,0.163,0.728,0.5,1.168,0.566c1.076,0.161,2.118,0.481,3.189,0.683
		c3.018,0.563,6.015,0.382,9-0.096c1.741-0.28,3.381-0.955,5.021-1.605c0.835-0.331,1.604-0.777,2.362-1.229
		c0.718-0.427,1.506-0.76,2.093-1.415c0.464-0.516,1.024-0.952,1.536-1.419c0.811-0.736,1.502-1.569,2.106-2.435
		c0.722-1.034,1.313-2.199,1.742-3.386c0.414-1.148,0.669-2.377,0.655-3.623C103.272,131.477,103.395,129.845,103.14,128.091z
		 M56.449,15.455c0.382,0.922,0.808,1.757,1.074,2.638c0.425,1.4,1.004,2.735,1.506,4.104c0.386,1.052,0.833,2.082,1.204,3.138
		c0.262,0.745,0.525,1.486,0.813,2.222c0.244,0.623,0.323,1.401,0.647,1.896c0.501,0.764,0.518,1.658,0.983,2.412
		c0.345,0.557,0.547,1.24,0.641,1.919c0.023,0.177,0.137,0.156,0.256,0.181c0.834,0.171,0.91-0.636,1.026-1.016
		c0.495-1.599,1.175-3.121,1.74-4.686c0.455-1.257,0.928-2.511,1.348-3.782c0.46-1.392,1.011-2.751,1.563-4.11
		c0.367-0.906,0.591-1.862,0.998-2.771c0.332-0.742,0.528-1.568,0.903-2.336c0.007,0.098,0.018,0.178,0.018,0.257
		c0.002,4.925,0.005,9.851-0.004,14.776c-0.002,0.506,0.011,1.045-0.152,1.508c-0.146,0.409-0.273,0.946-0.955,0.969
		c-0.349,0.012-0.719,0.135-1.078,0.125c-0.448-0.014-0.518,0.182-0.522,0.58c-0.005,0.426,0.158,0.493,0.533,0.491
		c2.37-0.015,4.741-0.013,7.112-0.003c0.359,0.002,0.6,0.01,0.6-0.489c0.002-0.476-0.153-0.546-0.589-0.574
		c-1.896-0.123-2.124-0.085-2.128-2.192c-0.008-4.537-0.004-9.074,0-13.611c0.002-2.161,0.166-2.2,2.272-2.307
		c0.442-0.023,0.431-0.214,0.43-0.523c0-0.307,0.02-0.535-0.43-0.529c-1.818,0.024-3.638,0.012-5.456,0.006
		c-0.194,0-0.423,0.009-0.425,0.227c-0.007,0.429-0.317,0.702-0.458,1.059c-0.286,0.726-0.364,1.56-0.744,2.202
		c-0.527,0.889-0.559,1.93-1.135,2.813c-0.372,0.567-0.457,1.386-0.677,2.091c-0.122,0.389-0.485,0.672-0.487,1.113
		c-0.004,0.643-0.354,1.203-0.574,1.756c-0.423,1.062-0.817,2.14-1.26,3.196c-0.222,0.529-0.379,1.084-0.564,1.627
		c-0.184-0.671-0.414-1.261-0.696-1.797c-0.588-1.11-0.877-2.335-1.358-3.484c-0.39-0.925-0.756-1.895-1.09-2.859
		c-0.5-1.441-1.044-2.87-1.66-4.273c-0.354-0.806-0.616-1.68-0.892-2.532c-0.362-1.127-0.343-1.134-1.517-1.134
		c-1.41,0-2.821,0.013-4.23-0.008c-0.389-0.007-0.524,0.084-0.526,0.5c-0.003,0.433,0.128,0.536,0.548,0.551
		c1.555,0.057,1.762,0.201,2.006,1.286c0.054,0.234,0.037,0.486,0.037,0.731c0.003,4.229,0,8.46,0.006,12.69
		c0.002,0.55-0.056,1.08-0.211,1.614c-0.273,0.934-1.009,1.603-1.984,1.611c-0.489,0.006-0.407,0.301-0.377,0.563
		c0.03,0.265-0.223,0.687,0.383,0.681c1.961-0.019,3.923-0.009,5.885-0.005c0.248,0,0.501-0.012,0.375-0.346
		c-0.113-0.298,0.309-0.854-0.393-0.875c-0.578-0.018-1.02-0.227-1.479-0.623c-0.808-0.696-0.825-1.615-0.835-2.486
		C56.427,24.935,56.449,20.234,56.449,15.455z M43.41,13.299c-0.343,0.03-0.593,0.234-0.879,0.298
		c-0.733,0.164-1.54,0.174-1.689,1.182c-0.123,0.821-0.563,1.539-0.804,2.32c-0.08,0.259-0.093,0.537-0.199,0.807
		c-0.295,0.741-0.6,1.49-0.785,2.263c-0.15,0.636-0.316,1.3-0.582,1.854c-0.505,1.05-0.591,2.216-1.125,3.256
		c-0.465,0.91-0.574,1.97-0.967,2.938c-0.377,0.924-0.661,1.898-0.999,2.846c-0.331,0.924-0.822,1.66-1.862,1.786
		c-0.675,0.082-0.297,0.547-0.357,0.833c-0.079,0.381,0.254,0.276,0.449,0.277c1.613,0.006,3.229-0.018,4.841,0.017
		c0.491,0.01,0.593-0.143,0.605-0.606c0.011-0.478-0.265-0.451-0.565-0.5c-0.62-0.102-1.164-0.172-1.482-0.936
		c-0.35-0.836-0.037-1.504,0.177-2.213c0.103-0.338-0.011-0.775,0.208-0.986c0.369-0.353,0.383-0.755,0.414-1.183
		c0.029-0.405,0.189-0.591,0.645-0.586c2.125,0.024,4.249,0.018,6.373,0.003c0.334-0.003,0.524,0.077,0.591,0.426
		c0.137,0.711,0.327,1.411,0.679,2.049c0.378,0.687,0.255,1.541,0.763,2.182c0.042,0.053,0.008,0.205-0.038,0.284
		c-0.301,0.536-0.684,0.964-1.372,0.953c-0.204-0.005-0.408,0.036-0.61,0.026c-0.506-0.025-0.385,0.333-0.41,0.621
		c-0.029,0.328,0.057,0.465,0.427,0.461c2.206-0.018,4.412-0.021,6.618,0.004c0.424,0.004,0.467-0.18,0.443-0.508
		c-0.021-0.292,0.094-0.648-0.422-0.611c-0.402,0.029-0.873,0.014-1.131-0.275c-0.512-0.57-0.99-1.219-1.122-1.991
		c-0.091-0.54-0.192-1.128-0.442-1.541c-0.638-1.051-0.715-2.274-1.234-3.367c-0.436-0.913-0.644-1.972-0.993-2.957
		c-0.3-0.847-0.61-1.694-0.9-2.548c-0.161-0.473-0.344-0.967-0.419-1.434c-0.09-0.557-0.551-0.921-0.568-1.461
		c-0.016-0.479-0.232-0.887-0.406-1.311C43.921,15.102,43.646,14.21,43.41,13.299z M97.774,23.536c-0.012,0-0.023,0-0.036,0
		c0-0.245-0.001-0.49,0-0.735c0.006-2.409,0.013-4.82,0.019-7.231c0.001-0.482,0.241-0.79,0.714-0.85
		c0.991-0.123,1.97,0.039,2.763,0.621c0.741,0.545,1.484,1.093,2.049,1.898c0.325,0.464,0.901,0.872,1.195,1.37
		c0.362,0.615,0.722,0.204,0.995,0.117c0.317-0.103,0.179-0.484,0.042-0.714c-0.633-1.053-0.748-2.288-1.235-3.396
		c-0.362-0.83-0.276-0.868-1.206-0.868c-4.576,0-9.152,0.013-13.727-0.015c-0.553-0.004-0.742,0.293-0.884,0.688
		c-0.216,0.599-0.406,1.21-0.569,1.825c-0.176,0.661-0.496,1.266-0.704,1.917c-0.177,0.553,0.076,0.593,0.435,0.724
		c0.32,0.116,0.512,0.068,0.591-0.284c0.052-0.228,0.201-0.374,0.394-0.511c0.342-0.242,0.592-0.585,0.821-0.931
		c0.501-0.752,1.245-1.285,1.942-1.783c0.686-0.49,1.578-0.745,2.511-0.678c0.849,0.061,1.003,0.154,1.059,1.024
		c0.01,0.163,0.007,0.327,0.007,0.491c0,4.636,0.004,9.273-0.006,13.909c-0.001,0.568-0.032,1.146-0.126,1.704
		c-0.081,0.477-0.247,0.89-0.897,0.947c-0.395,0.033-0.803,0.116-1.203,0.133c-0.516,0.02-0.296,0.379-0.333,0.613
		c-0.042,0.273,0.001,0.448,0.369,0.446c2.45-0.017,4.902-0.007,7.353-0.011c0.148,0,0.313,0.055,0.369-0.198
		c0.131-0.573-0.021-0.813-0.592-0.849c-0.224-0.013-0.449-0.021-0.671-0.05c-1.015-0.137-1.429-0.587-1.433-1.604
		C97.77,28.684,97.774,26.11,97.774,23.536z M115.259,24.025c-0.248-0.473-0.351-1.033-0.633-1.38
		c-0.464-0.572-0.783-1.223-1.074-1.85c-0.414-0.893-0.97-1.696-1.393-2.579c-0.403-0.839-0.877-1.644-1.312-2.468
		c-0.101-0.188-0.07-0.322,0.103-0.52c0.438-0.498,1.026-0.465,1.564-0.492c0.445-0.021,0.459-0.194,0.479-0.543
		c0.026-0.419-0.163-0.453-0.503-0.451c-2.023,0.013-4.047,0.005-6.07,0.007c-0.252,0-0.565-0.086-0.545,0.354
		c0.015,0.309-0.11,0.623,0.42,0.681c1.111,0.12,1.767,0.844,2.151,1.848c0.343,0.897,0.816,1.753,1.325,2.539
		c0.51,0.786,0.78,1.672,1.283,2.462c0.464,0.729,0.926,1.528,1.211,2.375c0.214,0.633,0.824,1.086,0.831,1.792
		c0.018,1.88,0.024,3.761-0.003,5.64c-0.014,0.943-0.454,1.353-1.397,1.424c-0.306,0.023-0.613,0.065-0.917,0.046
		c-0.502-0.033-0.349,0.32-0.371,0.575c-0.026,0.29-0.012,0.489,0.396,0.485c2.494-0.019,4.986-0.009,7.48-0.011
		c0.148,0,0.311,0.053,0.369-0.199c0.131-0.575-0.019-0.808-0.606-0.85c-0.244-0.019-0.489-0.023-0.731-0.055
		c-0.66-0.084-1.174-0.32-1.291-1.082c-0.035-0.237-0.105-0.468-0.105-0.712c-0.002-1.798-0.009-3.597-0.01-5.396
		c0-0.18-0.021-0.359,0.075-0.534c0.431-0.785,0.813-1.601,1.285-2.36c0.438-0.71,0.8-1.469,1.182-2.199
		c0.548-1.049,1.153-2.073,1.646-3.154c0.566-1.25,1.316-2.307,2.742-2.697c0.383-0.105,0.156-0.48,0.186-0.73
		c0.034-0.289-0.216-0.237-0.387-0.238c-1.676-0.004-3.352-0.008-5.027,0.003c-0.24,0.001-0.605-0.161-0.592,0.352
		c0.009,0.368-0.024,0.685,0.508,0.647c0.208-0.016,0.427,0.111,0.639,0.177c0.908,0.28,1.098,0.632,0.871,1.565
		c-0.16,0.661-0.553,1.206-0.833,1.795c-0.385,0.805-0.798,1.604-1.19,2.408C116.468,21.819,115.981,22.978,115.259,24.025z
		 M82.141,33.962c1.226,0,2.451-0.007,3.677,0.004c0.3,0.004,0.417-0.063,0.436-0.398c0.027-0.485-0.079-0.729-0.619-0.661
		c-0.239,0.031-0.491-0.007-0.731-0.049c-0.411-0.071-0.892-0.107-1.095-0.517c-0.222-0.446-0.378-0.943-0.378-1.458
		c-0.003-4.721-0.021-9.442,0.019-14.162c0.007-0.744,0.082-1.615,1.094-1.816c0.377-0.073,0.769-0.142,1.146-0.114
		c0.487,0.036,0.556-0.16,0.568-0.592c0.014-0.492-0.256-0.453-0.576-0.451c-2.33,0.004-4.66,0.002-6.99,0.002
		c-0.679,0-0.802,0.117-0.648,0.764c0.125,0.529,0.615,0.258,0.917,0.291c1.338,0.149,1.758,0.516,1.764,1.859
		c0.018,4.781,0.021,9.564-0.003,14.346c-0.006,1.359-0.452,1.771-1.794,1.857c-0.163,0.011-0.327,0.058-0.487,0.043
		c-0.528-0.053-0.381,0.325-0.41,0.604c-0.034,0.335,0.07,0.463,0.434,0.456C79.688,33.948,80.913,33.962,82.141,33.962z
		 M82.861,154.04c1.644-0.136,3.49-0.158,5.313-0.57c0.591-0.133,1.093-0.457,1.685-0.54c1.252-0.173,2.418-0.597,3.508-1.237
		c1.06-0.623,2.191-1.114,3.153-1.917c0.713-0.595,1.486-1.1,2.157-1.767c0.341-0.34,0.603-0.624,0.689-1.078
		c0.044-0.237-0.008-0.475-0.2-0.601s-0.392-0.066-0.604,0.093c-0.537,0.398-1.089,0.823-1.658,1.126
		c-0.993,0.53-1.943,1.148-3.021,1.546c-1.259,0.463-2.478,1.039-3.767,1.438c-1.953,0.604-3.962,0.816-5.992,0.922
		c-1.242,0.063-2.475-0.171-3.719-0.027c-0.643,0.074-0.838,0.479-0.892,0.992c-0.074,0.718,0.261,1.156,0.791,1.373
		C81.078,154.106,81.874,153.967,82.861,154.04z M80.877,38.014c-0.678,0-1.23-0.021-1.779,0.013
		c-0.192,0.011-0.507-0.203-0.579,0.219c-0.074,0.429,0.235,0.396,0.479,0.427c0.6,0.073,0.778,0.381,0.767,0.989
		c-0.041,2.165-0.016,4.332-0.016,6.498c-0.001,0.775-0.095,0.895-0.83,0.924c-0.263,0.011-0.477,0.095-0.493,0.331
		c-0.024,0.322,0.268,0.287,0.487,0.287c1.001,0.002,2.003,0.003,3.003-0.001c0.187-0.002,0.41,0.078,0.415-0.27
		c0.006-0.362-0.22-0.318-0.44-0.335c-0.852-0.06-0.902-0.108-0.911-0.979c-0.009-0.817-0.014-1.635,0.005-2.452
		c0.005-0.179-0.169-0.525,0.213-0.503c0.34,0.021,0.756-0.238,1.017,0.221c0.646,1.14,1.427,2.223,1.916,3.423
		c0.374,0.918,0.942,0.964,1.704,0.9c0.243-0.021,0.49-0.009,0.735-0.002c0.188,0.006,0.31-0.022,0.303-0.261
		c-0.006-0.209-0.026-0.368-0.29-0.348c-0.815,0.062-1.109-0.555-1.502-1.099c-0.475-0.657-0.704-1.444-1.257-2.066
		c-0.67-0.755-0.524-1.053,0.489-1.257c0.679-0.139,1.193-0.572,1.538-1.102c0.493-0.756,0.009-2.256-0.813-2.722
		c-0.646-0.368-1.303-0.705-2.084-0.78C82.216,37.999,81.484,38.058,80.877,38.014z M45.292,40.048
		c0.316,0.448,0.829,0.718,1.029,1.174c0.324,0.738,0.94,1.254,1.325,1.96c0.463,0.851,1.164,1.583,1.692,2.423
		c0.455,0.725,0.998,1.394,1.483,2.1c0.151,0.22,0.347,0.195,0.541,0.171c0.289-0.038,0.176-0.283,0.176-0.44
		c0.008-2.472,0.003-4.944,0.005-7.416c0.002-0.905,0.101-1.048,1.02-1.26c0.334-0.078,0.195-0.296,0.229-0.469
		c0.043-0.214-0.058-0.281-0.269-0.28c-0.94,0.01-1.879,0.009-2.82,0.001c-0.222-0.001-0.295,0.106-0.267,0.3
		c0.022,0.157-0.104,0.409,0.19,0.43c0.975,0.068,1.243,0.637,1.221,1.535c-0.041,1.642-0.012,3.285-0.012,4.937
		c-0.466-0.048-0.59-0.392-0.757-0.682c-0.109-0.189-0.15-0.437-0.296-0.584c-0.674-0.685-1.114-1.537-1.686-2.295
		c-0.864-1.15-1.682-2.335-2.516-3.507c-0.084-0.118-0.193-0.132-0.318-0.131c-0.551,0.002-1.103,0.002-1.654,0.002
		c-0.148,0-0.3,0-0.278,0.213c0.015,0.149-0.083,0.338,0.134,0.422c0.189,0.073,0.379,0.202,0.568,0.204
		c0.569,0.006,0.65,0.331,0.646,0.8c-0.013,2.001-0.006,4.004-0.006,6.007c0,0.942-0.18,1.192-1.122,1.418
		c-0.243,0.058-0.213,0.183-0.227,0.342c-0.019,0.209,0.067,0.285,0.277,0.283c0.92-0.008,1.839-0.008,2.758-0.001
		c0.212,0.002,0.296-0.074,0.278-0.283c-0.014-0.159,0.021-0.291-0.227-0.341c-0.871-0.177-1.109-0.457-1.116-1.341
		C45.282,43.841,45.292,41.944,45.292,40.048z M72.343,47.702c1.061,0,2.123-0.006,3.186,0.003c0.324,0.003,0.58-0.043,0.541-0.454
		c-0.014-0.15,0.086-0.268,0.117-0.396c0.111-0.475,0.518-0.818,0.563-1.322c0.014-0.158,0.126-0.312-0.064-0.426
		c-0.222-0.133-0.333,0.032-0.442,0.183c-0.193,0.265-0.33,0.612-0.586,0.786c-1.078,0.729-2.244,1.179-3.594,1.023
		c-0.438-0.051-0.641-0.246-0.647-0.637c-0.017-1.041-0.002-2.083-0.007-3.124c0-0.187,0.028-0.31,0.261-0.305
		c1.294,0.021,1.82-0.101,2.343,1.385c0.035,0.101,0.071,0.199,0.19,0.203c0.187,0.009,0.168-0.141,0.168-0.256
		c0.004-1.041,0.004-2.083,0.003-3.123c0-0.14,0.025-0.309-0.198-0.297c-0.209,0.011-0.195,0.173-0.188,0.313
		c0.008,0.176-0.069,0.297-0.174,0.436c-0.51,0.676-1.202,0.797-1.989,0.742c-0.3-0.021-0.43-0.063-0.421-0.402
		c0.023-0.898,0.016-1.797,0.004-2.695c-0.004-0.343,0.146-0.506,0.471-0.599c1.125-0.323,2.159-0.108,3.082,0.562
		c0.365,0.266,0.617,0.684,0.955,0.994c0.079,0.074,0.156,0.312,0.381,0.175c0.199-0.122,0.041-0.243,0.025-0.366
		c-0.073-0.582-0.494-1.053-0.562-1.621c-0.054-0.453-0.277-0.478-0.638-0.476c-1.92,0.014-3.839,0-5.759,0.016
		c-0.182,0.003-0.504-0.203-0.541,0.254c-0.034,0.408,0.226,0.338,0.456,0.374c0.607,0.098,0.892,0.517,0.896,1.076
		c0.022,2.103,0.017,4.206,0.004,6.309c-0.004,0.666-0.341,1.017-0.959,1.058c-0.218,0.015-0.392,0.008-0.397,0.313
		c-0.007,0.325,0.188,0.296,0.396,0.295C70.26,47.701,71.301,47.701,72.343,47.702z M34.374,42.425c0,0.877,0.047,1.76-0.014,2.633
		c-0.06,0.846,0.457,1.413,0.888,1.996c0.137,0.186,0.358,0.438,0.692,0.57c0.62,0.245,1.235,0.177,1.851,0.236
		c2.04,0.193,3.269-1.383,3.227-3.1c-0.04-1.629,0.099-3.263,0.083-4.895c-0.008-0.704,0.383-0.979,0.922-1.089
		c0.335-0.067,0.384-0.188,0.371-0.467c-0.015-0.373-0.281-0.274-0.485-0.275c-0.734-0.007-1.47-0.006-2.206-0.001
		c-0.188,0.001-0.431-0.075-0.424,0.266c0.003,0.249-0.023,0.42,0.341,0.491c0.449,0.088,0.901,0.429,0.865,0.916
		c-0.157,2.087,0.453,4.219-0.342,6.271c-0.11,0.287-0.208,0.551-0.462,0.759c-0.729,0.6-1.574,0.556-2.405,0.415
		c-0.566-0.096-1.083-0.346-1.331-0.965c-0.206-0.514-0.369-1.006-0.355-1.581c0.039-1.612,0.013-3.225,0.014-4.839
		c0-0.76,0.168-0.985,0.919-1.117c0.24-0.042,0.373-0.069,0.356-0.353c-0.02-0.33-0.244-0.262-0.436-0.263
		c-0.939-0.002-1.88-0.008-2.819,0.003c-0.191,0.003-0.46-0.121-0.491,0.265c-0.028,0.351,0.203,0.341,0.416,0.368
		c0.669,0.087,0.845,0.515,0.831,1.121C34.36,40.669,34.375,41.547,34.374,42.425z M90.997,38.013
		c-1.141-0.002-1.141-0.002-1.857,0.603c-0.892,0.753-1.229,2.354-0.629,3.142c0.76,0.996,1.839,1.482,3.021,1.771
		c0.776,0.188,1.548,0.441,1.937,1.187c0.297,0.569,0.27,1.267-0.051,1.818c-0.364,0.63-1.488,0.991-2.152,0.754
		c-0.938-0.336-1.876-0.696-2.415-1.645c-0.091-0.163-0.3-0.256-0.447-0.391c-0.119-0.108-0.229-0.029-0.333,0.01
		c-0.151,0.057-0.031,0.154-0.026,0.243c0.05,0.812,0.586,1.448,0.792,2.205c0.045,0.165,0.194,0.131,0.299,0.063
		c0.539-0.347,1.078-0.225,1.626-0.025c0.991,0.361,2.371,0.04,3.038-0.693c0.742-0.814,1.077-1.821,0.725-2.816
		c-0.458-1.295-1.582-1.963-2.921-2.164c-0.813-0.122-1.511-0.386-2.071-1.002c-0.474-0.521-0.396-1.55,0.067-2.086
		c0.897-1.039,2.902-0.347,3.476,0.661c0.199,0.352,0.582,0.487,0.741,0.857c0.073,0.169,0.239,0.04,0.359-0.039
		c0.062-0.04,0.085-0.015,0.041-0.13c-0.265-0.684-0.502-1.38-0.709-2.084c-0.063-0.214-0.179-0.3-0.331-0.229
		C92.41,38.383,91.658,37.871,90.997,38.013z M63.54,45.727c-0.512-1.129-0.712-2.247-1.145-3.296
		c-0.419-1.019-0.835-2.076-1.102-3.166c-0.059-0.242,0.002-0.351,0.196-0.422c0.168-0.064,0.345-0.114,0.522-0.146
		c0.276-0.048,0.352-0.2,0.325-0.469c-0.029-0.312-0.253-0.208-0.408-0.209c-0.899-0.01-1.798-0.012-2.697,0.002
		c-0.165,0.002-0.417-0.136-0.459,0.221c-0.035,0.286,0.111,0.384,0.326,0.487c0.427,0.206,0.822,0.413,1.048,0.905
		c0.336,0.729,0.443,1.521,0.794,2.258c0.439,0.919,0.696,1.944,1.001,2.929c0.314,1.012,0.849,1.942,1.027,3
		c0.037,0.226,0.181,0.348,0.412,0.07c0.226-0.27,0.317-0.582,0.422-0.892c0.302-0.888,0.53-1.806,0.885-2.67
		c0.238-0.579,0.264-1.241,0.602-1.751c0.558-0.842,0.574-1.863,1.047-2.745c0.275-0.514,0.414-1.011,1.042-1.154
		c0.28-0.064,0.237-0.285,0.224-0.485c-0.021-0.268-0.238-0.174-0.377-0.175c-0.715-0.011-1.431-0.012-2.145,0
		c-0.152,0.003-0.382-0.114-0.418,0.197c-0.031,0.265,0.063,0.382,0.313,0.484c0.277,0.114,0.755,0.065,0.708,0.552
		c-0.031,0.336,0.066,0.709-0.138,1.008c-0.704,1.035-0.667,2.333-1.243,3.414C63.978,44.285,64.023,45.042,63.54,45.727z
		 M114.742,47.701c0.531,0,1.063-0.006,1.593,0.003c0.217,0.004,0.338-0.036,0.332-0.297c-0.005-0.25-0.117-0.318-0.336-0.309
		c-0.123,0.004-0.255,0.021-0.365-0.017c-0.313-0.105-0.695-0.212-0.645-0.636c0.134-1.124-0.26-2.257,0.355-3.395
		c0.58-1.07,1.175-2.148,1.679-3.269c0.21-0.47,0.521-0.986,1.153-1.098c0.268-0.048,0.243-0.28,0.229-0.484
		c-0.019-0.271-0.231-0.182-0.371-0.183c-0.693-0.01-1.388-0.011-2.082,0c-0.179,0.003-0.409-0.098-0.45,0.245
		c-0.039,0.33,0.136,0.331,0.373,0.395c0.491,0.13,0.811,0.339,0.607,0.996c-0.117,0.375-0.409,0.58-0.546,0.921
		c-0.268,0.67-0.553,1.341-0.972,1.94c-0.072,0.105-0.135,0.19-0.283,0.179c-0.162-0.013-0.161-0.138-0.22-0.241
		c-0.544-0.942-1.101-1.873-1.536-2.878c-0.324-0.745-0.345-0.83,0.43-0.938c0.246-0.034,0.289-0.113,0.299-0.333
		c0.013-0.268-0.119-0.295-0.331-0.294c-0.899,0.006-1.798,0.004-2.696,0.003c-0.17,0-0.338-0.011-0.308,0.245
		c0.019,0.17-0.053,0.343,0.237,0.396c0.31,0.058,0.541,0.272,0.76,0.535c0.557,0.67,0.769,1.514,1.21,2.246
		c0.852,1.413,1.544,2.93,1.226,4.68c-0.004,0.019,0,0.04,0,0.061c-0.014,0.719-0.131,0.854-0.857,0.91
		c-0.235,0.02-0.375,0.057-0.375,0.346c0.001,0.348,0.234,0.264,0.42,0.266C113.762,47.705,114.252,47.701,114.742,47.701z
		 M105.997,42.636c0-1.102,0.017-2.205-0.008-3.307c-0.011-0.51,0.238-0.709,0.69-0.703c0.809,0.013,1.503,0.34,1.912,1.026
		c0.206,0.343,0.509,0.526,0.751,0.797c0.086,0.095,0.166,0.169,0.309,0.074c0.147-0.099,0.072-0.192,0.04-0.31
		c-0.145-0.523-0.276-1.05-0.412-1.575c-0.114-0.444-0.368-0.64-0.86-0.634c-1.981,0.023-3.962,0.024-5.943-0.004
		c-0.4-0.006-0.621,0.127-0.685,0.48c-0.092,0.504-0.562,0.867-0.497,1.432c0.023,0.199-0.322,0.427-0.027,0.611
		c0.314,0.194,0.453-0.151,0.638-0.305c0.116-0.097,0.197-0.242,0.279-0.375c0.487-0.784,1.183-1.195,2.11-1.221
		c0.413-0.012,0.594,0.178,0.594,0.581c-0.002,2.349,0.01,4.698-0.01,7.045c-0.004,0.493-0.156,0.939-0.824,0.845
		c-0.21-0.028-0.395-0.006-0.402,0.305c-0.008,0.319,0.17,0.305,0.386,0.304c1.001-0.003,2.001,0,3.002-0.003
		c0.172,0,0.385,0.057,0.396-0.238c0.012-0.26-0.095-0.342-0.354-0.368c-0.893-0.091-1.074-0.302-1.081-1.21
		C105.991,44.801,105.997,43.719,105.997,42.636z M83.247,163.099c-0.136,0.027-0.32-0.078-0.436,0.065
		c-0.04,0.052-0.006,0.228,0.053,0.28c0.592,0.535,0.866,1.307,1.211,1.96c0.79,1.499,1.713,2.92,2.491,4.426
		c0.601,1.161,0.639,1.142,1.85,0.699c0.038-0.014,0.068-0.055,0.106-0.061c0.611-0.084,0.518-0.509,0.259-0.776
		c-0.437-0.453-0.539-1.074-0.882-1.536c-0.555-0.748-0.855-1.625-1.291-2.421c-0.391-0.713-0.952-1.362-1.161-2.18
		c-0.046-0.176-0.173-0.258-0.358-0.274C84.48,163.227,83.873,163.162,83.247,163.099z M55.809,38.015c-0.511,0-1.021-0.002-1.532,0
		c-0.195,0.002-0.41-0.055-0.41,0.282c0,0.274,0.107,0.315,0.354,0.349c0.795,0.107,0.879,0.221,0.881,1.01
		c0.001,2.105,0.001,4.209,0.001,6.313c0,0.979,0.001,0.991-0.94,1.122c-0.255,0.035-0.284,0.15-0.293,0.358
		c-0.011,0.245,0.129,0.254,0.31,0.254c1.104-0.003,2.206-0.005,3.31,0c0.193,0,0.309-0.043,0.297-0.271
		c-0.01-0.184-0.033-0.327-0.258-0.329c-0.123-0.001-0.247-0.022-0.368-0.012c-0.392,0.037-0.568-0.073-0.605-0.527
		c-0.185-2.284-0.038-4.571-0.077-6.854c-0.012-0.669,0.27-1.065,0.971-1.072c0.265-0.003,0.353-0.097,0.339-0.364
		c-0.015-0.289-0.202-0.256-0.382-0.256C56.871,38.014,56.34,38.015,55.809,38.015z M98.039,47.701c0.489,0,0.981,0.011,1.472-0.006
		c0.184-0.007,0.465,0.141,0.479-0.263c0.016-0.42-0.271-0.323-0.494-0.337c-0.639-0.043-0.86-0.275-0.86-0.933
		c-0.001-2.104-0.001-4.209,0-6.313c0.001-0.89,0.142-1.083,1.026-1.207c0.277-0.039,0.323-0.126,0.328-0.371
		c0.004-0.301-0.188-0.258-0.367-0.258c-1.001,0-2.003-0.005-3.004,0.005c-0.176,0.002-0.416-0.103-0.441,0.247
		c-0.024,0.316,0.115,0.372,0.379,0.395c0.649,0.051,0.87,0.419,0.862,1.063c-0.028,2.124-0.009,4.25-0.011,6.375
		c0,0.824-0.063,0.899-0.898,0.989c-0.217,0.022-0.327,0.071-0.332,0.319c-0.004,0.258,0.107,0.303,0.33,0.298
		C97.017,47.694,97.528,47.701,98.039,47.701z M88.872,163.112c0.212,0.714,0.574,1.32,0.832,1.962
		c0.472,1.179,1.171,2.252,1.52,3.484c0.095,0.335,0.249,0.914,0.919,0.45c0.31-0.213,0.72-0.422,1.093-0.473
		c0.551-0.075,0.428-0.391,0.35-0.677c-0.18-0.657-0.668-1.188-0.789-1.88c-0.146-0.832-0.833-1.44-0.977-2.284
		c-0.027-0.155-0.105-0.343-0.352-0.36C90.619,163.272,89.772,163.19,88.872,163.112z M96.421,161.434
		c-0.247,0.321-0.612,0.142-0.922,0.233c-0.862,0.256-0.832,0.24-0.699,1.124c0.057,0.372,0.334,0.684,0.352,0.974
		c0.07,1.086,0.571,2.067,0.666,3.139c0.027,0.315,0.136,0.525,0.508,0.278c0.146-0.098,0.383-0.085,0.496-0.204
		c0.293-0.303,0.828-0.281,1.004-0.591s-0.152-0.714-0.234-1.084c-0.252-1.131-0.537-2.257-0.807-3.385
		C96.735,161.712,96.607,161.573,96.421,161.434z M77.182,151.447c-0.584-0.007-1.104,0.443-1.108,0.957
		c-0.001,0.322,0.753,0.988,1.137,1.003c0.397,0.016,0.95-0.494,0.959-0.886C78.182,151.977,77.701,151.454,77.182,151.447z
		 M75.24,151.553c0.007-0.347-0.263-0.438-0.521-0.454c-0.253-0.016-0.509,0.096-0.474,0.418c0.03,0.267,0.169,0.514,0.483,0.504
		C75.001,152.011,75.251,151.911,75.24,151.553z"/>
	<path fill-rule="evenodd" clip-rule="evenodd" fill="#F7C201" d="M103.14,128.091c0.255,1.754,0.133,3.386,0.151,5.016
		c0.014,1.246-0.241,2.475-0.655,3.623c-0.43,1.187-1.021,2.352-1.742,3.386c-0.604,0.865-1.296,1.698-2.106,2.435
		c-0.512,0.467-1.072,0.903-1.536,1.419c-0.587,0.655-1.375,0.988-2.093,1.415c-0.759,0.451-1.527,0.897-2.362,1.229
		c-1.641,0.65-3.28,1.325-5.021,1.605c-2.985,0.478-5.982,0.658-9,0.096c-1.071-0.201-2.113-0.521-3.189-0.683
		c-0.44-0.066-0.758-0.403-1.168-0.566c-1.195-0.476-2.297-1.116-3.385-1.834c-1.984-1.31-3.326-3.105-4.592-5.198
		c0.01,0.646-0.308,1.105-0.361,1.64c-0.106,1.059-0.175,2.131,0.016,3.174c0.183,0.997,0.413,2.023,0.855,2.924
		c0.373,0.757,0.787,1.522,1.324,2.222c0.477,0.62,1.08,1.124,1.501,1.778c0.17,0.266,0.45,0.394,0.679,0.554
		c1.095,0.771,2.182,1.541,3.365,2.198c1.427,0.793,2.941,1.208,4.459,1.691c3.316,1.056,6.671,0.946,10.046,0.419
		c2.107-0.327,4.158-0.941,6.063-1.83c0.967-0.451,2.035-0.904,2.854-1.729c0.479-0.482,1.199-0.713,1.733-1.15
		c0.454-0.373,0.901-0.523,1.474-0.486c0.661,0.042,1.184,0.505,1.27,1.168c0.085,0.671-0.101,1.244-0.532,1.755
		c-0.483,0.57-1.06,1.033-1.628,1.517c-0.883,0.754-1.966,1.161-2.9,1.782c-1.02,0.678-2.144,0.962-3.234,1.312
		c-3.002,0.959-6.105,1.122-9.244,0.866c-0.953-0.077-1.903-0.186-2.851-0.306c-0.748-0.096-1.433-0.459-2.167-0.65
		c-0.79-0.204-1.599-0.405-2.348-0.787c-0.596-0.304-1.146-0.688-1.782-0.922c-0.747-0.272-1.39-0.742-2.058-1.379
		c0.151,0.668,0.498,1.037,0.824,1.459c0.498,0.646,0.957,1.33,1.443,1.991c0.686,0.929,1.338,1.883,2.032,2.807
		c0.423,0.563,0.858,1.136,1.214,1.724c0.488,0.808,1.096,1.523,1.642,2.273c0.797,1.096,1.479,2.273,2.385,3.306
		c0.669,0.762,1.178,1.671,1.813,2.477c0.203,0.258,0.116,0.44-0.18,0.554c-1.609,0.611-3.287,1.092-4.801,1.888
		c-1.075,0.563-1.875,0.634-2.895-0.017c-0.747-0.476-1.653-0.719-2.496-1.005c-1.384-0.47-2.739-1.03-4.048-1.633
		c-1.407-0.648-2.907-1.077-4.254-1.869c-0.575-0.339-1.253-0.519-1.902-0.709c-0.782-0.229-1.442-0.71-2.209-0.974
		c-0.735-0.253-1.435-0.613-2.146-0.934c-0.94-0.424-1.882-0.846-2.813-1.279c-1.367-0.638-2.809-1.109-4.127-1.842
		c-0.971-0.539-2.056-0.831-3.002-1.376c-0.721-0.415-1.503-0.688-2.202-1.124c-0.284-0.178-0.601-0.228-0.894-0.355
		c-0.96-0.42-1.871-0.94-2.813-1.397c-1.171-0.565-2.357-1.115-3.479-1.761c-0.912-0.525-1.917-0.863-2.778-1.435
		c-0.686-0.456-1.433-0.765-2.124-1.188c-1.054-0.643-2.102-1.293-3.154-1.937c-1.127-0.688-2.251-1.377-3.335-2.138
		c-1.008-0.706-1.982-1.452-2.969-2.185c-0.921-0.687-1.784-1.444-2.682-2.151c-0.839-0.662-1.566-1.436-2.365-2.131
		c-0.798-0.693-1.51-1.526-2.217-2.34c-0.66-0.758-1.328-1.508-1.958-2.288c-0.698-0.864-1.271-1.831-1.947-2.706
		c-0.873-1.131-1.508-2.401-2.226-3.611c-0.521-0.881-0.983-1.843-1.37-2.82c-0.433-1.091-0.941-2.153-1.358-3.25
		c-0.279-0.73-0.408-1.519-0.691-2.248c-0.501-1.289-0.592-2.686-1.044-3.971c-0.461-1.308-0.449-2.688-0.817-3.991
		c-0.544-1.928-0.539-3.909-0.737-5.872c-0.196-1.951-0.153-3.916-0.313-5.866c-0.063-0.788-0.191-1.574-0.123-2.36
		c0.354-4.007,0.174-8.027,0.304-12.039c0.014-0.428,0.232-0.729,0.445-1.021c0.606-0.835,1.246-1.657,1.924-2.424
		c0.701-0.793,1.26-1.729,2.146-2.36c0.267-0.19,0.263-0.581,0.539-0.789c0.938-0.706,1.643-1.657,2.511-2.44
		c1.107-1,2.206-2.008,3.338-2.98c0.771-0.662,1.649-1.219,2.348-1.99c0.426-0.469,1.09-0.741,1.568-1.155
		c0.729-0.634,1.592-1.064,2.309-1.716c0.62-0.563,1.445-0.893,2.113-1.411c0.655-0.507,1.438-0.776,2.097-1.23
		c0.67-0.463,1.359-0.877,2.062-1.276c1.148-0.654,2.313-1.285,3.465-1.927c1.004-0.559,2.114-0.884,3.064-1.501
		c0.949-0.617,2.059-0.869,2.999-1.443c0.876-0.534,1.872-0.76,2.737-1.27c0.347-0.204,0.724-0.152,1.082-0.334
		c1.284-0.649,2.713-0.988,4.008-1.587c1.319-0.61,2.748-0.855,4.041-1.456c1.551-0.72,3.235-0.913,4.815-1.474
		c0.881-0.313,1.769-0.587,2.666-0.841c0.795-0.225,1.579-0.51,2.405-0.586c0.413-0.038,0.711-0.304,1.098-0.408
		c1.681-0.454,3.414-0.683,5.074-1.188c1.473-0.448,2.989-0.594,4.488-0.867c1.057-0.195,2.113-0.399,3.168-0.615
		c2.83-0.582,5.686-1,8.555-1.34c0.806-0.096,1.646-0.113,2.412-0.309c1.508-0.383,3.048-0.381,4.567-0.586
		c1.794-0.244,3.614-0.309,5.422-0.46c3.604-0.3,7.231-0.117,10.829-0.429c3.547-0.306,7.095-0.27,10.627-0.096
		c2.685,0.131,5.37,0.166,8.051,0.312c2.336,0.126,4.678,0.276,7.014,0.505c1.599,0.157,3.195,0.381,4.805,0.473
		c1.219,0.068,2.421,0.388,3.635,0.568c1.525,0.227,3.059,0.395,4.58,0.643c1.244,0.201,2.473,0.5,3.717,0.716
		c0.445,0.077,0.607,0.243,0.607,0.71c0.008,3.902-0.007,7.807,0.077,11.708c0.169,7.868-0.008,15.735,0.126,23.603
		c0.09,5.292,0.133,10.584,0.065,15.875c-0.032,2.426-0.272,4.843-0.44,7.263c-0.056,0.794-0.146,1.591-0.325,2.339
		c-0.332,1.396-0.373,2.85-0.78,4.206c-0.374,1.245-0.486,2.569-0.963,3.741c-0.445,1.096-0.549,2.297-1.172,3.333
		c-0.301,0.503-0.346,1.153-0.6,1.692c-0.564,1.193-1.002,2.444-1.681,3.585c-0.591,0.995-1.089,2.048-1.721,3.015
		c-0.759,1.16-1.522,2.313-2.394,3.406c-0.535,0.67-1.083,1.362-1.619,2.041c-0.824,1.043-1.723,2.047-2.707,2.938
		c-0.752,0.681-1.496,1.38-2.255,2.055c-0.823,0.732-1.714,1.386-2.515,2.145c-0.288,0.271-0.672,0.479-1.012,0.716
		c-0.975,0.674-1.883,1.435-2.921,2.03c-0.49,0.282-0.909,0.734-1.442,1.003c-1.119,0.564-2.148,1.294-3.209,1.953
		c-0.819,0.508-1.696,0.9-2.506,1.415c-1.031,0.655-2.176,1.104-3.232,1.694c-0.953,0.535-1.977,0.93-2.896,1.49
		c-0.935,0.569-1.968,0.908-2.889,1.46c-1.123,0.673-2.367,1.048-3.521,1.632c-0.053,0.025-0.129,0.007-0.175,0.037
		c-0.743,0.484-0.722,0.483-0.807-0.374c-0.274-2.789-0.325-5.588-0.215-8.383c0.071-1.812,0.025-3.648,0.38-5.426
		c0.415-2.077,0.46-4.207,0.966-6.265c0.624-2.532,0.598-5.085,0.364-7.657c-0.095-1.038-0.56-1.959-0.917-2.893
		c-0.273-0.711-0.801-1.354-1.386-1.946C104.583,128.72,103.85,128.591,103.14,128.091z M86.489,88.588
		c0.113-1.974-0.141-4.164-0.503-6.333c-0.264-1.576-0.673-3.126-1.157-4.663c-0.359-1.142-0.775-2.265-1.191-3.378
		c-0.467-1.249-1.088-2.441-1.792-3.592c-0.594-0.969-1.106-1.979-1.766-2.919c-0.637-0.908-1.22-1.858-1.931-2.713
		c-1.459-1.757-2.82-3.599-4.564-5.106c-0.384-0.332-0.689-0.251-1.031-0.104c-0.376,0.161-0.271,0.475-0.182,0.786
		c0.092,0.311,0.179,0.639,0.173,0.957c-0.014,0.914,0.534,1.703,0.478,2.64c-0.078,1.319,0.06,2.647-0.393,3.936
		c-0.273,0.781-0.329,1.667-0.724,2.37c-0.495,0.881-0.796,1.867-1.473,2.66c-0.491,0.574-0.802,1.303-1.296,1.872
		c-0.725,0.831-1.469,1.657-2.172,2.5c-1.04,1.242-2.216,2.354-3.256,3.595c-0.345,0.41-0.649,0.873-1.031,1.229
		c-0.772,0.718-1.368,1.59-2.001,2.397c-0.503,0.643-0.948,1.419-1.338,2.192c-0.587,1.164-1.106,2.35-1.544,3.571
		c-0.615,1.716-0.466,3.555-0.816,5.315c-0.022,0.115-0.024,0.272,0.038,0.357c0.229,0.313,0.155,0.669,0.16,1.005
		c0.02,1.648,0.305,3.229,0.847,4.804c0.618,1.791,1.635,3.348,2.537,4.976c0.335,0.602,0.809,0.405,1.279,0.234
		c0.433-0.155,0.143-0.465,0.155-0.714c0.073-1.406-0.444-2.752-0.397-4.158c0.027-0.805,0.021-1.6,0.226-2.398
		c0.32-1.27,0.21-2.594,0.815-3.857c0.475-0.994,0.929-1.985,1.522-2.918c0.562-0.884,1.278-1.653,1.985-2.395
		c1.114-1.172,2.281-2.312,3.567-3.309c0.27-0.208,0.565-0.398,0.787-0.65c0.674-0.764,1.488-1.381,2.212-2.094
		c0.485-0.48,1.061-0.903,1.545-1.412c1.134-1.191,2.133-2.485,2.987-3.893c0.067-0.109,0.03-0.313,0.245-0.291
		c0.195,0.02,0.176,0.204,0.219,0.328c0.268,0.765,0.432,1.558,0.639,2.336c0.341,1.281,0.425,2.555,0.354,3.854
		c-0.051,0.902-0.197,1.791-0.387,2.686c-0.25,1.182-0.457,2.377-0.703,3.562c-0.111,0.54-0.471,0.961-0.562,1.501
		c-0.175,1.037-0.694,1.947-1.142,2.878c-0.422,0.878-0.949,1.708-1.336,2.6c-0.473,1.092-1.143,2.076-1.688,3.124
		c-0.445,0.853-0.939,1.719-1.45,2.557c-0.763,1.254-1.31,2.639-2.067,3.896c-0.5,0.826-0.896,1.72-1.284,2.572
		c-0.481,1.062-1.003,2.133-1.384,3.252c-0.431,1.269-1.023,2.482-1.412,3.761c-0.415,1.362-0.655,2.777-1.01,4.159
		c-0.13,0.504-0.096,1.011-0.166,1.517c-0.203,1.457-0.307,2.924-0.076,4.391c0.165,1.048,0.184,2.107,0.57,3.139
		c0.241,0.643,0.309,1.388,0.563,2.041c0.409,1.053,0.803,2.111,1.348,3.116c0.473,0.872,0.99,1.724,1.524,2.544
		c0.671,1.027,1.555,1.925,2.518,2.712c1.14,0.932,2.339,1.761,3.61,2.524c1.307,0.786,2.768,1.056,4.128,1.635
		c0.735,0.313,1.61,0.352,2.438,0.461c2.237,0.295,4.414,0.128,6.605-0.355c0.531-0.117,1.006-0.354,1.522-0.49
		c0.635-0.167,1.296-0.323,1.903-0.609c1.34-0.63,2.598-1.396,3.733-2.344c1.156-0.963,2.274-1.961,3.128-3.238
		c0.405-0.607,0.637-1.344,1.094-1.85c0.763-0.847,0.799-1.932,1.223-2.877c0.411-0.916,0.497-1.971,0.577-3.008
		c0.136-1.778,0.06-3.541-0.131-5.305c-0.13-1.204-0.522-2.348-0.841-3.51c-0.286-1.045-0.604-2.086-0.858-3.129
		c-0.456-1.877-0.622-3.823-0.944-5.734c-0.404-2.405-0.21-4.771,0.423-7.107c0.085-0.312,0.128-0.635,0.197-0.945
		c0.205-0.923,0.781-1.664,1.131-2.515c0.291-0.711,0.718-1.383,1.18-2.001c0.207-0.277,0.483-0.426,0.208-0.789
		c-0.239-0.315-0.492-0.606-0.938-0.348c-0.796,0.462-1.684,0.824-2.356,1.425c-1.051,0.938-1.919,2.069-2.79,3.186
		c-0.71,0.911-1.107,1.999-1.648,2.999c-0.509,0.943-0.703,2.041-1.092,3.057c-0.479,1.257-0.624,2.632-0.84,3.955
		c-0.223,1.372-0.318,2.787-0.346,4.201c-0.045,2.373,0.355,4.724,0.271,7.094c-0.073,2.094-0.568,4.034-1.954,5.714
		c-0.941,1.142-2.178,1.509-3.522,1.707c-1.304,0.192-2.527-0.222-3.731-0.637c-0.367-0.126-0.742-0.357-1.002-0.642
		c-0.574-0.628-1.297-1.141-1.688-1.916c-0.446-0.884-1.053-1.714-1.197-2.715c-0.296-2.049-0.168-4.06,0.457-6.065
		c0.635-2.043,1.132-4.13,1.886-6.141c0.428-1.14,0.741-2.319,1.159-3.461c0.144-0.391,0.076-0.828,0.303-1.175
		c0.721-1.109,0.756-2.456,1.304-3.638c0.485-1.044,0.589-2.24,1.023-3.325c0.426-1.06,0.467-2.219,0.874-3.309
		c0.451-1.211,0.547-2.557,0.778-3.841C86.296,94.005,86.544,91.424,86.489,88.588z"/>
	<path fill-rule="evenodd" clip-rule="evenodd" fill="#FAFCFC" d="M56.449,15.455c0,4.779-0.022,9.479,0.019,14.179
		c0.01,0.871,0.027,1.79,0.835,2.486c0.46,0.396,0.901,0.605,1.479,0.623c0.701,0.021,0.279,0.577,0.393,0.875
		c0.126,0.334-0.127,0.346-0.375,0.346c-1.962-0.004-3.924-0.014-5.885,0.005c-0.605,0.006-0.353-0.416-0.383-0.681
		c-0.03-0.262-0.112-0.557,0.377-0.563c0.976-0.009,1.711-0.678,1.984-1.611c0.155-0.534,0.213-1.064,0.211-1.614
		c-0.006-4.23-0.003-8.461-0.006-12.69c0-0.245,0.017-0.497-0.037-0.731c-0.244-1.085-0.451-1.229-2.006-1.286
		c-0.42-0.015-0.551-0.118-0.548-0.551c0.002-0.416,0.138-0.507,0.526-0.5c1.409,0.021,2.82,0.008,4.23,0.008
		c1.174,0,1.154,0.007,1.517,1.134c0.275,0.853,0.538,1.727,0.892,2.532c0.616,1.403,1.16,2.832,1.66,4.273
		c0.334,0.965,0.7,1.935,1.09,2.859c0.481,1.149,0.771,2.374,1.358,3.484c0.282,0.536,0.513,1.126,0.696,1.797
		c0.186-0.543,0.343-1.098,0.564-1.627c0.442-1.057,0.837-2.135,1.26-3.196c0.22-0.553,0.57-1.113,0.574-1.756
		c0.002-0.441,0.365-0.725,0.487-1.113c0.22-0.705,0.305-1.523,0.677-2.091c0.576-0.884,0.607-1.925,1.135-2.813
		c0.38-0.643,0.458-1.477,0.744-2.202c0.141-0.356,0.451-0.63,0.458-1.059c0.002-0.218,0.23-0.227,0.425-0.227
		c1.818,0.006,3.638,0.019,5.456-0.006c0.449-0.006,0.43,0.223,0.43,0.529c0.001,0.31,0.013,0.5-0.43,0.523
		c-2.106,0.106-2.271,0.146-2.272,2.307c-0.004,4.537-0.008,9.074,0,13.611c0.004,2.107,0.231,2.069,2.128,2.192
		c0.436,0.028,0.591,0.099,0.589,0.574c0,0.499-0.24,0.491-0.6,0.489c-2.371-0.01-4.742-0.012-7.112,0.003
		c-0.375,0.002-0.538-0.065-0.533-0.491c0.005-0.398,0.074-0.594,0.522-0.58c0.359,0.01,0.729-0.113,1.078-0.125
		c0.682-0.022,0.809-0.56,0.955-0.969c0.163-0.463,0.15-1.002,0.152-1.508c0.009-4.926,0.006-9.852,0.004-14.776
		c0-0.079-0.011-0.159-0.018-0.257c-0.375,0.768-0.571,1.594-0.903,2.336c-0.407,0.909-0.631,1.865-0.998,2.771
		c-0.552,1.359-1.103,2.719-1.563,4.11c-0.42,1.271-0.893,2.525-1.348,3.782c-0.565,1.564-1.245,3.087-1.74,4.686
		c-0.116,0.38-0.192,1.187-1.026,1.016c-0.119-0.024-0.232-0.004-0.256-0.181c-0.094-0.679-0.296-1.362-0.641-1.919
		c-0.466-0.754-0.482-1.648-0.983-2.412c-0.324-0.495-0.403-1.273-0.647-1.896c-0.287-0.735-0.551-1.477-0.813-2.222
		c-0.371-1.056-0.818-2.086-1.204-3.138c-0.502-1.368-1.081-2.703-1.506-4.104C57.257,17.212,56.831,16.377,56.449,15.455z"/>
	<path fill-rule="evenodd" clip-rule="evenodd" fill="#FAFCFC" d="M43.41,13.299c0.235,0.911,0.511,1.803,0.866,2.671
		c0.174,0.424,0.391,0.832,0.406,1.311c0.018,0.54,0.479,0.904,0.568,1.461c0.075,0.467,0.258,0.961,0.419,1.434
		c0.29,0.854,0.601,1.701,0.9,2.548c0.35,0.985,0.558,2.044,0.993,2.957c0.52,1.093,0.597,2.316,1.234,3.367
		c0.25,0.413,0.352,1.001,0.442,1.541c0.132,0.772,0.61,1.421,1.122,1.991c0.258,0.289,0.729,0.305,1.131,0.275
		c0.516-0.037,0.4,0.319,0.422,0.611c0.023,0.328-0.02,0.512-0.443,0.508c-2.206-0.024-4.412-0.021-6.618-0.004
		c-0.37,0.004-0.456-0.133-0.427-0.461c0.025-0.288-0.096-0.646,0.41-0.621c0.202,0.01,0.406-0.031,0.61-0.026
		c0.688,0.011,1.071-0.417,1.372-0.953c0.046-0.079,0.08-0.231,0.038-0.284c-0.508-0.641-0.385-1.495-0.763-2.182
		c-0.352-0.638-0.542-1.338-0.679-2.049c-0.066-0.349-0.257-0.429-0.591-0.426c-2.124,0.015-4.248,0.021-6.373-0.003
		c-0.455-0.005-0.615,0.181-0.645,0.586c-0.031,0.428-0.045,0.83-0.414,1.183c-0.219,0.211-0.105,0.648-0.208,0.986
		c-0.214,0.709-0.526,1.377-0.177,2.213c0.318,0.764,0.862,0.834,1.482,0.936c0.301,0.049,0.576,0.022,0.565,0.5
		c-0.013,0.464-0.114,0.616-0.605,0.606c-1.612-0.034-3.228-0.011-4.841-0.017c-0.195-0.001-0.528,0.104-0.449-0.277
		c0.061-0.286-0.317-0.751,0.357-0.833c1.04-0.126,1.531-0.862,1.862-1.786c0.338-0.947,0.622-1.922,0.999-2.846
		c0.393-0.968,0.502-2.027,0.967-2.938c0.534-1.04,0.62-2.206,1.125-3.256c0.266-0.555,0.432-1.219,0.582-1.854
		c0.186-0.772,0.49-1.521,0.785-2.263c0.106-0.27,0.119-0.548,0.199-0.807c0.24-0.781,0.681-1.499,0.804-2.32
		c0.149-1.008,0.956-1.018,1.689-1.182C42.817,13.533,43.067,13.329,43.41,13.299z M41.624,16.104
		c-0.124,0.652-0.49,1.054-0.587,1.592c-0.183,1.014-0.608,1.955-0.969,2.914c-0.092,0.244-0.077,0.505-0.175,0.758
		c-0.241,0.616-0.37,1.278-0.631,1.884c-0.253,0.591-0.323,1.238-0.591,1.803c-0.243,0.513-0.124,0.581,0.357,0.577
		c1.633-0.012,3.265-0.004,4.896-0.005c0.776,0,0.727,0.011,0.563-0.739c-0.08-0.374-0.201-0.732-0.322-1.085
		c-0.084-0.243-0.322-0.414-0.356-0.719c-0.159-1.407-0.903-2.643-1.237-4.007c-0.066-0.277-0.002-0.599-0.205-0.857
		C41.911,17.638,41.931,16.887,41.624,16.104z"/>
	<path fill-rule="evenodd" clip-rule="evenodd" fill="#F8FBFB" d="M97.774,23.536c0,2.574-0.005,5.147,0.004,7.721
		c0.004,1.018,0.418,1.468,1.433,1.604c0.222,0.029,0.447,0.037,0.671,0.05c0.571,0.035,0.723,0.275,0.592,0.849
		c-0.057,0.253-0.221,0.198-0.369,0.198c-2.45,0.004-4.902-0.006-7.353,0.011c-0.368,0.002-0.411-0.173-0.369-0.446
		c0.037-0.234-0.183-0.594,0.333-0.613c0.4-0.017,0.809-0.1,1.203-0.133c0.65-0.058,0.816-0.471,0.897-0.947
		c0.094-0.559,0.125-1.136,0.126-1.704c0.01-4.636,0.006-9.273,0.006-13.909c0-0.164,0.003-0.328-0.007-0.491
		c-0.056-0.87-0.21-0.964-1.059-1.024c-0.933-0.067-1.825,0.188-2.511,0.678c-0.697,0.498-1.441,1.031-1.942,1.783
		c-0.229,0.346-0.479,0.688-0.821,0.931c-0.192,0.137-0.342,0.283-0.394,0.511c-0.079,0.353-0.271,0.4-0.591,0.284
		c-0.358-0.131-0.611-0.171-0.435-0.724c0.208-0.651,0.528-1.256,0.704-1.917c0.163-0.615,0.354-1.227,0.569-1.825
		c0.142-0.395,0.331-0.691,0.884-0.688c4.574,0.027,9.15,0.015,13.727,0.015c0.93,0,0.844,0.038,1.206,0.868
		c0.487,1.108,0.603,2.344,1.235,3.396c0.137,0.229,0.275,0.611-0.042,0.714c-0.273,0.087-0.633,0.498-0.995-0.117
		c-0.294-0.498-0.87-0.906-1.195-1.37c-0.564-0.806-1.308-1.354-2.049-1.898c-0.793-0.582-1.771-0.744-2.763-0.621
		c-0.473,0.06-0.713,0.367-0.714,0.85c-0.006,2.411-0.013,4.822-0.019,7.231c-0.001,0.245,0,0.49,0,0.735
		C97.751,23.536,97.763,23.536,97.774,23.536z"/>
	<path fill-rule="evenodd" clip-rule="evenodd" fill="#FAFCFC" d="M115.259,24.025c0.723-1.048,1.209-2.206,1.756-3.325
		c0.393-0.804,0.806-1.604,1.19-2.408c0.28-0.589,0.673-1.134,0.833-1.795c0.227-0.934,0.037-1.285-0.871-1.565
		c-0.212-0.065-0.431-0.192-0.639-0.177c-0.532,0.037-0.499-0.279-0.508-0.647c-0.014-0.513,0.352-0.351,0.592-0.352
		c1.676-0.011,3.352-0.007,5.027-0.003c0.171,0.001,0.421-0.051,0.387,0.238c-0.029,0.25,0.197,0.625-0.186,0.73
		c-1.426,0.391-2.176,1.447-2.742,2.697c-0.492,1.081-1.098,2.105-1.646,3.154c-0.382,0.73-0.743,1.489-1.182,2.199
		c-0.472,0.76-0.854,1.575-1.285,2.36c-0.096,0.175-0.075,0.354-0.075,0.534c0.001,1.799,0.008,3.598,0.01,5.396
		c0,0.244,0.07,0.475,0.105,0.712c0.117,0.762,0.631,0.998,1.291,1.082c0.242,0.031,0.487,0.036,0.731,0.055
		c0.588,0.042,0.737,0.274,0.606,0.85c-0.059,0.252-0.221,0.199-0.369,0.199c-2.494,0.002-4.986-0.008-7.48,0.011
		c-0.408,0.004-0.423-0.195-0.396-0.485c0.022-0.255-0.131-0.608,0.371-0.575c0.304,0.02,0.611-0.022,0.917-0.046
		c0.943-0.071,1.384-0.48,1.397-1.424c0.027-1.879,0.021-3.76,0.003-5.64c-0.007-0.706-0.617-1.159-0.831-1.792
		c-0.285-0.847-0.747-1.646-1.211-2.375c-0.503-0.79-0.773-1.676-1.283-2.462c-0.509-0.786-0.982-1.642-1.325-2.539
		c-0.385-1.004-1.04-1.728-2.151-1.848c-0.53-0.058-0.405-0.372-0.42-0.681c-0.021-0.44,0.293-0.354,0.545-0.354
		c2.023-0.002,4.047,0.006,6.07-0.007c0.34-0.002,0.529,0.032,0.503,0.451c-0.021,0.349-0.034,0.521-0.479,0.543
		c-0.538,0.027-1.127-0.006-1.564,0.492c-0.173,0.197-0.203,0.331-0.103,0.52c0.435,0.824,0.908,1.629,1.312,2.468
		c0.423,0.883,0.979,1.687,1.393,2.579c0.291,0.627,0.61,1.277,1.074,1.85C114.908,22.992,115.011,23.553,115.259,24.025z"/>
	<path fill-rule="evenodd" clip-rule="evenodd" fill="#FAFCFC" d="M82.141,33.962c-1.228,0-2.453-0.014-3.679,0.008
		c-0.363,0.007-0.468-0.121-0.434-0.456c0.029-0.279-0.118-0.657,0.41-0.604c0.16,0.015,0.324-0.032,0.487-0.043
		c1.342-0.087,1.788-0.498,1.794-1.857c0.023-4.781,0.021-9.564,0.003-14.346c-0.006-1.344-0.426-1.71-1.764-1.859
		c-0.302-0.033-0.792,0.238-0.917-0.291c-0.153-0.646-0.03-0.764,0.648-0.764c2.33,0,4.66,0.002,6.99-0.002
		c0.32-0.002,0.59-0.041,0.576,0.451c-0.013,0.432-0.081,0.628-0.568,0.592c-0.378-0.027-0.77,0.041-1.146,0.114
		c-1.012,0.201-1.087,1.072-1.094,1.816c-0.04,4.72-0.021,9.441-0.019,14.162c0,0.515,0.156,1.012,0.378,1.458
		c0.203,0.409,0.684,0.445,1.095,0.517c0.24,0.042,0.492,0.08,0.731,0.049c0.54-0.067,0.646,0.176,0.619,0.661
		c-0.019,0.336-0.136,0.402-0.436,0.398C84.592,33.955,83.366,33.962,82.141,33.962z"/>
	<path fill-rule="evenodd" clip-rule="evenodd" fill="#F7C201" d="M82.861,154.04c-0.987-0.073-1.783,0.066-2.557-0.248
		c-0.53-0.217-0.865-0.655-0.791-1.373c0.054-0.513,0.249-0.918,0.892-0.992c1.244-0.144,2.477,0.091,3.719,0.027
		c2.03-0.105,4.039-0.317,5.992-0.922c1.289-0.398,2.508-0.975,3.767-1.438c1.077-0.397,2.027-1.016,3.021-1.546
		c0.569-0.303,1.121-0.728,1.658-1.126c0.213-0.159,0.412-0.219,0.604-0.093s0.244,0.363,0.2,0.601
		c-0.087,0.454-0.349,0.738-0.689,1.078c-0.671,0.667-1.444,1.172-2.157,1.767c-0.962,0.803-2.094,1.294-3.153,1.917
		c-1.09,0.641-2.256,1.064-3.508,1.237c-0.592,0.083-1.094,0.407-1.685,0.54C86.352,153.882,84.505,153.904,82.861,154.04z"/>
	<path fill-rule="evenodd" clip-rule="evenodd" fill="#F8FBFB" d="M80.877,38.014c0.607,0.044,1.339-0.015,2.075,0.056
		c0.781,0.075,1.438,0.412,2.084,0.78c0.822,0.466,1.307,1.966,0.813,2.722c-0.345,0.529-0.859,0.963-1.538,1.102
		c-1.014,0.204-1.159,0.502-0.489,1.257c0.553,0.622,0.782,1.409,1.257,2.066c0.393,0.544,0.687,1.16,1.502,1.099
		c0.264-0.021,0.284,0.139,0.29,0.348c0.007,0.238-0.115,0.267-0.303,0.261c-0.245-0.007-0.492-0.019-0.735,0.002
		c-0.762,0.063-1.33,0.018-1.704-0.9c-0.489-1.2-1.27-2.283-1.916-3.423c-0.261-0.459-0.677-0.2-1.017-0.221
		c-0.382-0.022-0.208,0.324-0.213,0.503c-0.019,0.817-0.014,1.635-0.005,2.452c0.009,0.871,0.06,0.92,0.911,0.979
		c0.221,0.017,0.446-0.027,0.44,0.335c-0.005,0.348-0.229,0.268-0.415,0.27c-1,0.004-2.002,0.003-3.003,0.001
		c-0.22,0-0.512,0.035-0.487-0.287c0.017-0.236,0.23-0.32,0.493-0.331c0.735-0.029,0.829-0.148,0.83-0.924
		c0-2.166-0.025-4.333,0.016-6.498c0.012-0.608-0.167-0.916-0.767-0.989c-0.243-0.03-0.553,0.002-0.479-0.427
		c0.072-0.422,0.387-0.208,0.579-0.219C79.646,37.992,80.199,38.014,80.877,38.014z M80.975,40.91
		c0.054,0.451-0.239,1.181,0.121,1.487c0.304,0.259,1.012,0.041,1.54,0.034c0.062,0,0.123-0.001,0.185-0.003
		c1.232-0.027,1.93-0.846,1.681-2.048c-0.086-0.416,0.021-0.933-0.396-1.229c-0.701-0.498-1.51-0.646-2.337-0.495
		c-0.491,0.09-0.862,0.386-0.8,1.001C81.007,40.04,80.975,40.431,80.975,40.91z"/>
	<path fill-rule="evenodd" clip-rule="evenodd" fill="#F8FBFB" d="M45.292,40.048c0,1.896-0.01,3.793,0.005,5.69
		c0.007,0.884,0.245,1.164,1.116,1.341c0.247,0.05,0.213,0.182,0.227,0.341c0.018,0.209-0.066,0.285-0.278,0.283
		c-0.919-0.007-1.838-0.007-2.758,0.001c-0.21,0.002-0.296-0.074-0.277-0.283c0.014-0.159-0.017-0.284,0.227-0.342
		c0.942-0.226,1.122-0.476,1.122-1.418c0-2.003-0.007-4.006,0.006-6.007c0.004-0.469-0.077-0.794-0.646-0.8
		c-0.189-0.002-0.379-0.131-0.568-0.204c-0.217-0.084-0.119-0.272-0.134-0.422c-0.021-0.213,0.13-0.213,0.278-0.213
		c0.552,0,1.104,0,1.654-0.002c0.125-0.001,0.234,0.013,0.318,0.131c0.834,1.172,1.651,2.356,2.516,3.507
		c0.571,0.758,1.012,1.61,1.686,2.295c0.146,0.147,0.187,0.395,0.296,0.584c0.167,0.29,0.291,0.634,0.757,0.682
		c0-1.651-0.029-3.295,0.012-4.937c0.022-0.898-0.246-1.467-1.221-1.535c-0.295-0.021-0.168-0.272-0.19-0.43
		c-0.028-0.193,0.045-0.301,0.267-0.3c0.941,0.008,1.88,0.009,2.82-0.001c0.211-0.001,0.312,0.066,0.269,0.28
		c-0.034,0.173,0.104,0.391-0.229,0.469c-0.919,0.212-1.018,0.354-1.02,1.26c-0.002,2.472,0.003,4.944-0.005,7.416
		c0,0.157,0.113,0.402-0.176,0.44c-0.194,0.024-0.39,0.049-0.541-0.171c-0.485-0.706-1.028-1.375-1.483-2.1
		c-0.528-0.84-1.229-1.572-1.692-2.423c-0.385-0.706-1.001-1.222-1.325-1.96C46.121,40.766,45.608,40.496,45.292,40.048z"/>
	<path fill-rule="evenodd" clip-rule="evenodd" fill="#F8FBFB" d="M72.343,47.702c-1.042-0.001-2.083-0.001-3.125,0
		c-0.208,0.001-0.402,0.03-0.396-0.295c0.006-0.306,0.18-0.299,0.397-0.313c0.618-0.041,0.955-0.392,0.959-1.058
		c0.013-2.103,0.019-4.206-0.004-6.309c-0.005-0.56-0.289-0.979-0.896-1.076c-0.23-0.036-0.49,0.034-0.456-0.374
		c0.037-0.457,0.359-0.251,0.541-0.254c1.92-0.016,3.839-0.002,5.759-0.016c0.36-0.002,0.584,0.022,0.638,0.476
		c0.067,0.568,0.488,1.039,0.562,1.621c0.016,0.123,0.174,0.244-0.025,0.366c-0.225,0.137-0.302-0.101-0.381-0.175
		c-0.338-0.311-0.59-0.729-0.955-0.994c-0.923-0.67-1.957-0.885-3.082-0.562c-0.324,0.093-0.475,0.256-0.471,0.599
		c0.012,0.898,0.02,1.797-0.004,2.695c-0.009,0.339,0.121,0.381,0.421,0.402c0.787,0.055,1.479-0.066,1.989-0.742
		c0.104-0.139,0.182-0.26,0.174-0.436c-0.007-0.141-0.021-0.303,0.188-0.313c0.224-0.012,0.198,0.157,0.198,0.297
		c0.001,1.04,0.001,2.082-0.003,3.123c0,0.115,0.019,0.265-0.168,0.256c-0.119-0.004-0.155-0.103-0.19-0.203
		c-0.522-1.485-1.049-1.363-2.343-1.385c-0.232-0.005-0.261,0.118-0.261,0.305c0.005,1.041-0.01,2.083,0.007,3.124
		c0.007,0.391,0.209,0.586,0.647,0.637c1.35,0.155,2.516-0.295,3.594-1.023c0.256-0.174,0.393-0.521,0.586-0.786
		c0.109-0.15,0.221-0.315,0.442-0.183c0.19,0.114,0.078,0.268,0.064,0.426c-0.046,0.504-0.452,0.848-0.563,1.322
		c-0.031,0.129-0.131,0.246-0.117,0.396c0.039,0.411-0.217,0.457-0.541,0.454C74.466,47.696,73.403,47.702,72.343,47.702z"/>
	<path fill-rule="evenodd" clip-rule="evenodd" fill="#F8FBFB" d="M34.375,42.425c0-0.878-0.015-1.756,0.004-2.634
		c0.014-0.606-0.162-1.034-0.831-1.121c-0.213-0.027-0.444-0.018-0.416-0.368c0.031-0.386,0.3-0.262,0.491-0.265
		c0.939-0.011,1.88-0.005,2.819-0.003c0.191,0.001,0.416-0.067,0.436,0.263c0.017,0.283-0.116,0.311-0.356,0.353
		c-0.751,0.132-0.919,0.357-0.919,1.117c-0.001,1.614,0.025,3.227-0.014,4.839c-0.014,0.575,0.149,1.067,0.355,1.581
		c0.248,0.619,0.765,0.869,1.331,0.965c0.831,0.141,1.677,0.185,2.405-0.415c0.254-0.208,0.352-0.472,0.462-0.759
		c0.795-2.052,0.185-4.184,0.342-6.271c0.036-0.487-0.416-0.828-0.865-0.916c-0.364-0.071-0.338-0.242-0.341-0.491
		c-0.007-0.341,0.236-0.265,0.424-0.266c0.736-0.005,1.472-0.006,2.206,0.001c0.204,0.001,0.471-0.098,0.485,0.275
		c0.013,0.279-0.036,0.399-0.371,0.467c-0.539,0.11-0.93,0.385-0.922,1.089c0.016,1.632-0.123,3.266-0.083,4.895
		c0.042,1.717-1.187,3.293-3.227,3.1c-0.615-0.06-1.23,0.009-1.851-0.236c-0.334-0.133-0.556-0.385-0.692-0.57
		c-0.431-0.583-0.947-1.15-0.888-1.996C34.421,44.185,34.374,43.302,34.375,42.425z"/>
	<path fill-rule="evenodd" clip-rule="evenodd" fill="#F8FBFB" d="M90.997,38.013c0.661-0.142,1.413,0.37,2.178,0.01
		c0.152-0.071,0.269,0.015,0.331,0.229c0.207,0.704,0.444,1.4,0.709,2.084c0.044,0.115,0.021,0.09-0.041,0.13
		c-0.12,0.079-0.286,0.208-0.359,0.039c-0.159-0.37-0.542-0.506-0.741-0.857c-0.573-1.008-2.578-1.7-3.476-0.661
		c-0.463,0.536-0.541,1.564-0.067,2.086c0.561,0.616,1.258,0.88,2.071,1.002c1.339,0.201,2.463,0.869,2.921,2.164
		c0.353,0.995,0.018,2.002-0.725,2.816c-0.667,0.733-2.047,1.055-3.038,0.693c-0.548-0.199-1.087-0.321-1.626,0.025
		c-0.104,0.067-0.254,0.102-0.299-0.063c-0.206-0.757-0.742-1.394-0.792-2.205c-0.005-0.089-0.125-0.187,0.026-0.243
		c0.104-0.039,0.214-0.118,0.333-0.01c0.147,0.135,0.356,0.228,0.447,0.391c0.539,0.948,1.478,1.309,2.415,1.645
		c0.664,0.237,1.788-0.124,2.152-0.754c0.32-0.552,0.348-1.249,0.051-1.818c-0.389-0.745-1.16-0.998-1.937-1.187
		c-1.182-0.288-2.261-0.774-3.021-1.771c-0.601-0.788-0.263-2.389,0.629-3.142C89.856,38.011,89.856,38.011,90.997,38.013z"/>
	<path fill-rule="evenodd" clip-rule="evenodd" fill="#F8FBFB" d="M63.54,45.727c0.483-0.685,0.438-1.441,0.764-2.052
		c0.576-1.081,0.539-2.379,1.243-3.414c0.204-0.299,0.106-0.672,0.138-1.008c0.047-0.486-0.431-0.438-0.708-0.552
		c-0.251-0.103-0.345-0.22-0.313-0.484c0.036-0.312,0.266-0.194,0.418-0.197c0.714-0.012,1.43-0.011,2.145,0
		c0.139,0.001,0.355-0.093,0.377,0.175c0.014,0.2,0.057,0.421-0.224,0.485c-0.628,0.144-0.767,0.641-1.042,1.154
		c-0.473,0.882-0.489,1.903-1.047,2.745c-0.338,0.51-0.363,1.172-0.602,1.751c-0.354,0.864-0.583,1.782-0.885,2.67
		c-0.104,0.31-0.196,0.622-0.422,0.892c-0.231,0.277-0.375,0.155-0.412-0.07c-0.179-1.058-0.713-1.988-1.027-3
		c-0.305-0.984-0.562-2.01-1.001-2.929c-0.351-0.737-0.458-1.528-0.794-2.258c-0.226-0.492-0.621-0.699-1.048-0.905
		c-0.215-0.104-0.361-0.201-0.326-0.487c0.042-0.356,0.294-0.219,0.459-0.221c0.899-0.014,1.798-0.012,2.697-0.002
		c0.155,0.001,0.379-0.103,0.408,0.209c0.026,0.269-0.049,0.421-0.325,0.469c-0.178,0.031-0.354,0.081-0.522,0.146
		c-0.194,0.071-0.255,0.18-0.196,0.422c0.267,1.09,0.683,2.147,1.102,3.166C62.828,43.479,63.028,44.598,63.54,45.727z"/>
	<path fill-rule="evenodd" clip-rule="evenodd" fill="#F8FBFB" d="M114.742,47.701c-0.49,0-0.98,0.004-1.47-0.003
		c-0.186-0.002-0.419,0.082-0.42-0.266c0-0.289,0.14-0.326,0.375-0.346c0.727-0.057,0.844-0.191,0.857-0.91
		c0-0.021-0.004-0.042,0-0.061c0.318-1.75-0.374-3.267-1.226-4.68c-0.441-0.732-0.653-1.576-1.21-2.246
		c-0.219-0.263-0.45-0.478-0.76-0.535c-0.29-0.054-0.219-0.227-0.237-0.396c-0.03-0.256,0.138-0.245,0.308-0.245
		c0.898,0.001,1.797,0.003,2.696-0.003c0.212-0.001,0.344,0.026,0.331,0.294c-0.01,0.22-0.053,0.299-0.299,0.333
		c-0.774,0.107-0.754,0.192-0.43,0.938c0.436,1.005,0.992,1.936,1.536,2.878c0.059,0.104,0.058,0.229,0.22,0.241
		c0.148,0.012,0.211-0.073,0.283-0.179c0.419-0.6,0.704-1.271,0.972-1.94c0.137-0.341,0.429-0.546,0.546-0.921
		c0.203-0.657-0.116-0.866-0.607-0.996c-0.237-0.063-0.412-0.064-0.373-0.395c0.041-0.343,0.271-0.242,0.45-0.245
		c0.694-0.011,1.389-0.01,2.082,0c0.14,0.001,0.353-0.088,0.371,0.183c0.014,0.204,0.038,0.437-0.229,0.484
		c-0.633,0.111-0.943,0.628-1.153,1.098c-0.504,1.12-1.099,2.198-1.679,3.269c-0.615,1.138-0.222,2.271-0.355,3.395
		c-0.051,0.424,0.331,0.53,0.645,0.636c0.11,0.038,0.242,0.021,0.365,0.017c0.219-0.01,0.331,0.059,0.336,0.309
		c0.006,0.261-0.115,0.301-0.332,0.297C115.805,47.695,115.273,47.701,114.742,47.701z"/>
	<path fill-rule="evenodd" clip-rule="evenodd" fill="#F8FBFB" d="M105.997,42.636c0,1.083-0.006,2.165,0.002,3.248
		c0.007,0.908,0.188,1.119,1.081,1.21c0.26,0.026,0.366,0.108,0.354,0.368c-0.011,0.295-0.224,0.238-0.396,0.238
		c-1.001,0.003-2.001,0-3.002,0.003c-0.216,0.001-0.394,0.016-0.386-0.304c0.008-0.311,0.192-0.333,0.402-0.305
		c0.668,0.095,0.82-0.352,0.824-0.845c0.02-2.347,0.008-4.696,0.01-7.045c0-0.403-0.181-0.593-0.594-0.581
		c-0.928,0.025-1.623,0.437-2.11,1.221c-0.082,0.133-0.163,0.278-0.279,0.375c-0.185,0.153-0.323,0.499-0.638,0.305
		c-0.295-0.185,0.051-0.412,0.027-0.611c-0.064-0.564,0.405-0.928,0.497-1.432c0.063-0.354,0.284-0.486,0.685-0.48
		c1.981,0.028,3.962,0.027,5.943,0.004c0.492-0.006,0.746,0.189,0.86,0.634c0.136,0.525,0.268,1.052,0.412,1.575
		c0.032,0.117,0.107,0.211-0.04,0.31c-0.143,0.095-0.223,0.021-0.309-0.074c-0.242-0.271-0.545-0.454-0.751-0.797
		c-0.409-0.687-1.104-1.014-1.912-1.026c-0.452-0.006-0.701,0.193-0.69,0.703C106.014,40.431,105.997,41.534,105.997,42.636z"/>
	<path fill-rule="evenodd" clip-rule="evenodd" fill="#F7C201" d="M83.247,163.099c0.626,0.063,1.233,0.128,1.842,0.183
		c0.186,0.017,0.313,0.099,0.358,0.274c0.209,0.817,0.771,1.467,1.161,2.18c0.436,0.796,0.736,1.673,1.291,2.421
		c0.343,0.462,0.445,1.083,0.882,1.536c0.259,0.268,0.353,0.692-0.259,0.776c-0.038,0.006-0.068,0.047-0.106,0.061
		c-1.211,0.442-1.249,0.462-1.85-0.699c-0.778-1.506-1.701-2.927-2.491-4.426c-0.345-0.653-0.619-1.425-1.211-1.96
		c-0.059-0.053-0.093-0.229-0.053-0.28C82.927,163.021,83.111,163.126,83.247,163.099z"/>
	<path fill-rule="evenodd" clip-rule="evenodd" fill="#FAFCFC" d="M55.809,38.015c0.531,0,1.063-0.001,1.595,0.002
		c0.18,0,0.367-0.033,0.382,0.256c0.014,0.268-0.074,0.361-0.339,0.364c-0.701,0.007-0.982,0.403-0.971,1.072
		c0.039,2.283-0.107,4.57,0.077,6.854c0.037,0.454,0.214,0.564,0.605,0.527c0.121-0.011,0.245,0.011,0.368,0.012
		c0.225,0.002,0.248,0.146,0.258,0.329c0.012,0.229-0.104,0.271-0.297,0.271c-1.104-0.005-2.206-0.003-3.31,0
		c-0.181,0-0.32-0.009-0.31-0.254c0.009-0.208,0.038-0.323,0.293-0.358c0.941-0.131,0.94-0.143,0.94-1.122
		c0-2.104,0-4.208-0.001-6.313c-0.002-0.789-0.086-0.902-0.881-1.01c-0.246-0.033-0.354-0.074-0.354-0.349
		c0-0.337,0.215-0.28,0.41-0.282C54.788,38.013,55.298,38.015,55.809,38.015z"/>
	<path fill-rule="evenodd" clip-rule="evenodd" fill="#FAFCFC" d="M98.039,47.701c-0.511,0-1.022-0.007-1.532,0.004
		c-0.223,0.005-0.334-0.04-0.33-0.298c0.005-0.248,0.115-0.297,0.332-0.319c0.835-0.09,0.898-0.165,0.898-0.989
		c0.002-2.125-0.018-4.251,0.011-6.375c0.008-0.644-0.213-1.012-0.862-1.063c-0.264-0.022-0.403-0.078-0.379-0.395
		c0.025-0.35,0.266-0.245,0.441-0.247c1.001-0.01,2.003-0.005,3.004-0.005c0.18,0,0.371-0.043,0.367,0.258
		c-0.005,0.245-0.051,0.332-0.328,0.371c-0.885,0.124-1.025,0.317-1.026,1.207c-0.001,2.104-0.001,4.208,0,6.313
		c0,0.657,0.222,0.89,0.86,0.933c0.223,0.014,0.51-0.083,0.494,0.337c-0.014,0.403-0.295,0.256-0.479,0.263
		C99.021,47.712,98.528,47.701,98.039,47.701z"/>
	<path fill-rule="evenodd" clip-rule="evenodd" fill="#F7C201" d="M88.872,163.112c0.9,0.078,1.747,0.16,2.596,0.223
		c0.246,0.018,0.324,0.205,0.352,0.36c0.144,0.844,0.83,1.452,0.977,2.284c0.121,0.692,0.609,1.223,0.789,1.88
		c0.078,0.286,0.201,0.602-0.35,0.677c-0.373,0.051-0.783,0.26-1.093,0.473c-0.67,0.464-0.824-0.115-0.919-0.45
		c-0.349-1.232-1.048-2.306-1.52-3.484C89.446,164.433,89.084,163.826,88.872,163.112z"/>
	<path fill-rule="evenodd" clip-rule="evenodd" fill="#F7C201" d="M96.421,161.434c0.187,0.14,0.314,0.278,0.363,0.484
		c0.27,1.128,0.555,2.254,0.807,3.385c0.082,0.37,0.41,0.774,0.234,1.084s-0.711,0.288-1.004,0.591
		c-0.113,0.119-0.35,0.106-0.496,0.204c-0.372,0.247-0.48,0.037-0.508-0.278c-0.095-1.071-0.596-2.053-0.666-3.139
		c-0.018-0.29-0.295-0.602-0.352-0.974c-0.133-0.884-0.163-0.868,0.699-1.124C95.809,161.575,96.174,161.755,96.421,161.434z"/>
	<path fill-rule="evenodd" clip-rule="evenodd" fill="#F7C201" d="M77.182,151.447c0.52,0.007,1,0.529,0.987,1.074
		c-0.009,0.392-0.562,0.901-0.959,0.886c-0.384-0.015-1.138-0.681-1.137-1.003C76.077,151.891,76.598,151.44,77.182,151.447z"/>
	<path fill-rule="evenodd" clip-rule="evenodd" fill="#F7C201" d="M75.24,151.553c0.011,0.358-0.239,0.458-0.511,0.468
		c-0.314,0.01-0.453-0.237-0.483-0.504c-0.035-0.322,0.221-0.434,0.474-0.418C74.978,151.115,75.247,151.206,75.24,151.553z"/>
	<path fill-rule="evenodd" clip-rule="evenodd" fill="#979591" d="M86.489,88.588c0.055,2.836-0.193,5.417-0.653,7.961
		c-0.231,1.284-0.327,2.63-0.778,3.841c-0.407,1.09-0.448,2.249-0.874,3.309c-0.435,1.085-0.538,2.281-1.023,3.325
		c-0.548,1.182-0.583,2.528-1.304,3.638c-0.227,0.347-0.159,0.784-0.303,1.175c-0.418,1.142-0.731,2.321-1.159,3.461
		c-0.754,2.011-1.251,4.098-1.886,6.141c-0.625,2.006-0.753,4.017-0.457,6.065c0.145,1.001,0.751,1.831,1.197,2.715
		c0.391,0.775,1.113,1.288,1.688,1.916c0.26,0.284,0.635,0.516,1.002,0.642c1.204,0.415,2.428,0.829,3.731,0.637
		c1.345-0.198,2.581-0.565,3.522-1.707c1.386-1.68,1.881-3.62,1.954-5.714c0.085-2.37-0.315-4.721-0.271-7.094
		c0.027-1.414,0.123-2.829,0.346-4.201c0.216-1.323,0.361-2.698,0.84-3.955c0.389-1.016,0.583-2.113,1.092-3.057
		c0.541-1,0.938-2.088,1.648-2.999c0.871-1.116,1.739-2.247,2.79-3.186c0.673-0.601,1.561-0.963,2.356-1.425
		c0.445-0.259,0.698,0.032,0.938,0.348c0.275,0.363-0.001,0.512-0.208,0.789c-0.462,0.618-0.889,1.29-1.18,2.001
		c-0.35,0.851-0.926,1.592-1.131,2.515c-0.069,0.311-0.112,0.634-0.197,0.945c-0.633,2.337-0.827,4.702-0.423,7.107
		c0.322,1.911,0.488,3.857,0.944,5.734c0.254,1.043,0.572,2.084,0.858,3.129c0.318,1.162,0.711,2.306,0.841,3.51
		c0.19,1.764,0.267,3.526,0.131,5.305c-0.08,1.037-0.166,2.092-0.577,3.008c-0.424,0.945-0.46,2.03-1.223,2.877
		c-0.457,0.506-0.688,1.242-1.094,1.85c-0.854,1.277-1.972,2.275-3.128,3.238c-1.136,0.947-2.394,1.714-3.733,2.344
		c-0.607,0.286-1.269,0.442-1.903,0.609c-0.517,0.137-0.991,0.373-1.522,0.49c-2.191,0.483-4.368,0.65-6.605,0.355
		c-0.828-0.109-1.703-0.148-2.438-0.461c-1.36-0.579-2.821-0.849-4.128-1.635c-1.271-0.764-2.471-1.593-3.61-2.524
		c-0.963-0.787-1.847-1.685-2.518-2.712c-0.534-0.82-1.052-1.672-1.524-2.544c-0.545-1.005-0.938-2.063-1.348-3.116
		c-0.254-0.653-0.321-1.398-0.563-2.041c-0.387-1.031-0.405-2.091-0.57-3.139c-0.23-1.467-0.127-2.934,0.076-4.391
		c0.07-0.506,0.036-1.013,0.166-1.517c0.354-1.382,0.595-2.797,1.01-4.159c0.389-1.278,0.981-2.492,1.412-3.761
		c0.381-1.119,0.902-2.19,1.384-3.252c0.388-0.853,0.784-1.746,1.284-2.572c0.758-1.257,1.305-2.642,2.067-3.896
		c0.511-0.838,1.005-1.704,1.45-2.557c0.545-1.048,1.215-2.032,1.688-3.124c0.387-0.892,0.914-1.722,1.336-2.6
		c0.447-0.931,0.967-1.841,1.142-2.878c0.091-0.54,0.45-0.961,0.562-1.501c0.246-1.185,0.453-2.38,0.703-3.562
		c0.189-0.895,0.336-1.783,0.387-2.686c0.071-1.299-0.013-2.572-0.354-3.854c-0.207-0.778-0.371-1.571-0.639-2.336
		c-0.043-0.124-0.023-0.309-0.219-0.328c-0.215-0.021-0.178,0.182-0.245,0.291c-0.854,1.407-1.854,2.701-2.987,3.893
		c-0.484,0.509-1.06,0.932-1.545,1.412c-0.724,0.713-1.538,1.33-2.212,2.094c-0.222,0.252-0.518,0.442-0.787,0.65
		c-1.286,0.997-2.453,2.137-3.567,3.309c-0.707,0.741-1.424,1.511-1.985,2.395c-0.594,0.933-1.048,1.924-1.522,2.918
		c-0.605,1.264-0.495,2.588-0.815,3.857c-0.204,0.799-0.198,1.594-0.226,2.398c-0.047,1.406,0.471,2.752,0.397,4.158
		c-0.013,0.249,0.277,0.559-0.155,0.714c-0.471,0.171-0.944,0.367-1.279-0.234c-0.902-1.628-1.919-3.185-2.537-4.976
		c-0.542-1.574-0.827-3.155-0.847-4.804c-0.005-0.336,0.069-0.691-0.16-1.005c-0.063-0.085-0.061-0.242-0.038-0.357
		c0.351-1.761,0.201-3.6,0.816-5.315c0.438-1.222,0.957-2.407,1.544-3.571c0.39-0.773,0.835-1.55,1.338-2.192
		c0.633-0.808,1.229-1.68,2.001-2.397c0.382-0.355,0.687-0.818,1.031-1.229c1.04-1.24,2.216-2.353,3.256-3.595
		c0.703-0.843,1.447-1.669,2.172-2.5c0.494-0.569,0.805-1.298,1.296-1.872c0.677-0.793,0.978-1.779,1.473-2.66
		c0.395-0.703,0.45-1.589,0.724-2.37c0.452-1.288,0.314-2.616,0.393-3.936c0.057-0.937-0.491-1.726-0.478-2.64
		c0.006-0.318-0.081-0.646-0.173-0.957c-0.09-0.312-0.194-0.625,0.182-0.786c0.342-0.146,0.647-0.228,1.031,0.104
		c1.744,1.508,3.105,3.35,4.564,5.106c0.711,0.854,1.294,1.805,1.931,2.713c0.659,0.939,1.172,1.95,1.766,2.919
		c0.704,1.15,1.325,2.343,1.792,3.592c0.416,1.113,0.832,2.236,1.191,3.378c0.484,1.537,0.894,3.087,1.157,4.663
		C86.349,84.424,86.603,86.614,86.489,88.588z M98.518,102.521c-0.147-0.039-0.281-0.019-0.397,0.086
		c-0.901,0.805-1.655,1.734-2.326,2.734c-0.67,0.997-1.186,2.076-1.73,3.144c-0.402,0.788-0.413,1.678-0.897,2.452
		c-0.339,0.54-0.249,1.332-0.435,1.988c-0.305,1.088-0.312,2.215-0.551,3.317c-0.296,1.363-0.224,2.801-0.164,4.207
		c0.056,1.329,0.047,2.657,0.316,3.982c0.166,0.813-0.005,1.667-0.156,2.517c-0.219,1.229-0.372,2.438-0.894,3.603
		c-0.935,2.085-2.509,3.424-4.662,3.935c-1.817,0.432-3.568,0.15-5.271-0.876c-1.48-0.892-2.67-1.937-3.465-3.442
		c-0.585-1.109-0.96-2.281-1.086-3.539c-0.242-2.474,0.354-4.832,1.042-7.156c0.497-1.675,1.014-3.349,1.611-5
		c0.518-1.425,0.981-2.879,1.448-4.327c0.111-0.343,0.044-0.809,0.254-1.045c0.678-0.769,0.571-1.797,0.992-2.662
		c0.555-1.14,0.735-2.456,1.106-3.688c0.334-1.112,0.541-2.254,0.87-3.369c0.471-1.596,0.566-3.28,0.858-4.921
		c0.293-1.652,0.294-3.357,0.404-5.042c0.122-1.881-0.241-3.742-0.257-5.62c-0.002-0.238-0.04-0.498-0.135-0.715
		c-0.307-0.688-0.314-1.433-0.465-2.15c-0.147-0.711-0.158-1.485-0.463-2.118c-0.518-1.077-0.594-2.284-1.205-3.344
		c-0.395-0.683-0.584-1.494-0.97-2.227c-0.558-1.056-1.132-2.101-1.69-3.153c-0.606-1.141-1.346-2.181-2.059-3.233
		c-1.227-1.813-2.727-3.413-4.23-5.095c0.07,0.74,0.203,1.403,0.182,2.061c-0.053,1.624,0.158,3.243-0.426,4.867
		c-0.461,1.279-0.785,2.601-1.507,3.775c-0.458,0.743-0.917,1.481-1.429,2.195c-0.49,0.684-0.98,1.377-1.522,2.012
		c-0.714,0.832-1.479,1.638-2.196,2.463c-0.86,0.993-1.808,1.906-2.645,2.92c-0.996,1.208-2.084,2.341-2.914,3.683
		c-0.536,0.865-1.039,1.749-1.547,2.627c-0.527,0.919-0.766,1.905-1.095,2.86c-0.407,1.18-0.499,2.446-0.597,3.71
		c-0.093,1.235,0.06,2.442,0.13,3.655c0.074,1.266,0.554,2.458,0.978,3.643c0.302,0.846,0.723,1.649,1.266,2.465
		c0-0.361,0.024-0.629-0.004-0.891c-0.255-2.293-0.043-4.553,0.521-6.776c0.223-0.877,0.498-1.734,0.925-2.562
		c0.351-0.681,0.773-1.309,1.173-1.947c0.432-0.689,1.011-1.289,1.539-1.917c0.245-0.289,0.648-0.501,0.803-0.785
		c0.395-0.721,1.064-1.167,1.611-1.685c1.276-1.208,2.644-2.329,3.972-3.486c1.001-0.871,1.943-1.802,2.854-2.757
		c0.695-0.732,1.348-1.541,1.854-2.412c0.504-0.87,1.131-1.716,1.246-2.774c0.009-0.083,0.107-0.222,0.162-0.221
		c0.109,0.002,0.227,0.053,0.293,0.181c0.213,0.411,0.424,0.823,0.664,1.22c0.881,1.448,1.387,3.06,1.505,4.705
		c0.191,2.66,0.123,5.332-0.63,7.94c-0.287,0.994-0.5,2.009-0.843,2.989c-0.265,0.758-0.411,1.576-0.794,2.267
		c-0.696,1.257-1.291,2.565-2.033,3.803c-0.626,1.045-1.221,2.12-1.775,3.208c-0.655,1.285-1.373,2.534-2.041,3.811
		c-0.678,1.289-1.297,2.611-1.997,3.887c-0.183,0.331-0.166,0.73-0.398,1.003c-0.594,0.696-0.813,1.598-1.149,2.39
		c-0.491,1.154-1.011,2.334-1.313,3.579c-0.222,0.911-0.67,1.756-0.83,2.689c-0.12,0.696-0.178,1.415-0.4,2.076
		c-0.319,0.952-0.433,1.927-0.457,2.905c-0.044,1.713-0.048,3.414,0.539,5.09c0.323,0.924,0.417,1.932,0.787,2.868
		c0.593,1.508,1.212,2.98,2.104,4.355c0.856,1.321,1.874,2.461,3.046,3.486c1.063,0.929,2.236,1.686,3.495,2.337
		c0.727,0.376,1.482,0.691,2.222,1.02c1.433,0.639,3.006,0.841,4.563,0.878c2.584,0.063,5.16,0.033,7.582-1.148
		c1.012-0.493,2.087-0.832,3.04-1.475c1.48-0.997,2.78-2.155,3.922-3.534c1.249-1.508,1.99-3.258,2.6-5.063
		c0.32-0.946,0.497-1.981,0.52-2.98c0.056-2.38,0.017-4.745-0.779-7.067c-0.437-1.271-0.685-2.627-1.019-3.945
		c-0.344-1.357-0.592-2.746-0.818-4.123c-0.147-0.883-0.396-1.784-0.313-2.717c0.055-0.605-0.021-1.224-0.029-1.836
		c-0.024-1.885,0.133-3.736,0.693-5.559c0.344-1.117,0.921-2.121,1.31-3.209c0.033-0.042,0.068-0.083,0.102-0.124
		c-0.025-0.013-0.052-0.025-0.077-0.038C98.528,102.409,98.522,102.466,98.518,102.521z"/>
	<path fill-rule="evenodd" clip-rule="evenodd" fill="#02458D" d="M41.624,16.104c0.307,0.782,0.287,1.533,0.744,2.115
		c0.203,0.259,0.139,0.58,0.205,0.857c0.334,1.364,1.078,2.6,1.237,4.007c0.034,0.305,0.272,0.476,0.356,0.719
		c0.121,0.353,0.242,0.711,0.322,1.085c0.163,0.75,0.213,0.739-0.563,0.739c-1.632,0.001-3.264-0.007-4.896,0.005
		c-0.481,0.004-0.601-0.064-0.357-0.577c0.268-0.564,0.338-1.212,0.591-1.803c0.261-0.605,0.39-1.268,0.631-1.884
		c0.098-0.253,0.083-0.514,0.175-0.758c0.36-0.959,0.786-1.9,0.969-2.914C41.134,17.158,41.5,16.757,41.624,16.104z"/>
	<path fill-rule="evenodd" clip-rule="evenodd" fill="#02458D" d="M80.975,40.91c0-0.479,0.032-0.87-0.007-1.253
		c-0.063-0.615,0.309-0.911,0.8-1.001c0.827-0.15,1.636-0.003,2.337,0.495c0.417,0.297,0.311,0.813,0.396,1.229
		c0.249,1.202-0.448,2.021-1.681,2.048c-0.062,0.002-0.123,0.003-0.185,0.003c-0.528,0.007-1.236,0.225-1.54-0.034
		C80.735,42.091,81.028,41.361,80.975,40.91z"/>
	<path fill-rule="evenodd" clip-rule="evenodd" fill="#FEFEFE" d="M98.509,102.515c-0.389,1.088-0.966,2.092-1.31,3.209
		c-0.561,1.822-0.718,3.674-0.693,5.559c0.008,0.612,0.084,1.23,0.029,1.836c-0.083,0.933,0.166,1.834,0.313,2.717
		c0.227,1.377,0.475,2.766,0.818,4.123c0.334,1.318,0.582,2.675,1.019,3.945c0.796,2.322,0.835,4.688,0.779,7.067
		c-0.022,0.999-0.199,2.034-0.52,2.98c-0.609,1.806-1.351,3.556-2.6,5.063c-1.142,1.379-2.441,2.537-3.922,3.534
		c-0.953,0.643-2.028,0.981-3.04,1.475c-2.422,1.182-4.998,1.211-7.582,1.148c-1.557-0.037-3.13-0.239-4.563-0.878
		c-0.739-0.328-1.495-0.644-2.222-1.02c-1.259-0.651-2.432-1.408-3.495-2.337c-1.172-1.025-2.189-2.165-3.046-3.486
		c-0.892-1.375-1.511-2.848-2.104-4.355c-0.37-0.937-0.464-1.944-0.787-2.868c-0.587-1.676-0.583-3.377-0.539-5.09
		c0.024-0.979,0.138-1.953,0.457-2.905c0.223-0.661,0.28-1.38,0.4-2.076c0.16-0.934,0.608-1.778,0.83-2.689
		c0.303-1.245,0.822-2.425,1.313-3.579c0.336-0.792,0.556-1.693,1.149-2.39c0.232-0.272,0.216-0.672,0.398-1.003
		c0.7-1.275,1.319-2.598,1.997-3.887c0.668-1.276,1.386-2.525,2.041-3.811c0.555-1.088,1.149-2.163,1.775-3.208
		c0.742-1.237,1.337-2.546,2.033-3.803c0.383-0.69,0.529-1.509,0.794-2.267c0.343-0.98,0.556-1.995,0.843-2.989
		c0.753-2.608,0.821-5.28,0.63-7.94c-0.118-1.646-0.624-3.257-1.505-4.705c-0.24-0.396-0.451-0.809-0.664-1.22
		c-0.066-0.128-0.184-0.179-0.293-0.181c-0.055-0.001-0.153,0.138-0.162,0.221c-0.115,1.059-0.742,1.904-1.246,2.774
		c-0.506,0.871-1.158,1.68-1.854,2.412c-0.911,0.955-1.854,1.886-2.854,2.757c-1.328,1.157-2.695,2.278-3.972,3.486
		c-0.547,0.518-1.217,0.964-1.611,1.685c-0.154,0.284-0.558,0.496-0.803,0.785c-0.528,0.628-1.107,1.228-1.539,1.917
		c-0.399,0.639-0.822,1.267-1.173,1.947c-0.427,0.827-0.702,1.685-0.925,2.562c-0.564,2.224-0.776,4.483-0.521,6.776
		c0.028,0.262,0.004,0.529,0.004,0.891c-0.543-0.815-0.964-1.619-1.266-2.465c-0.424-1.185-0.903-2.377-0.978-3.643
		c-0.07-1.213-0.223-2.42-0.13-3.655c0.098-1.264,0.189-2.53,0.597-3.71c0.329-0.955,0.567-1.941,1.095-2.86
		c0.508-0.878,1.011-1.762,1.547-2.627c0.83-1.342,1.918-2.475,2.914-3.683c0.837-1.014,1.784-1.927,2.645-2.92
		c0.717-0.825,1.482-1.631,2.196-2.463c0.542-0.635,1.032-1.328,1.522-2.012c0.512-0.714,0.971-1.452,1.429-2.195
		c0.722-1.175,1.046-2.496,1.507-3.775c0.584-1.624,0.373-3.243,0.426-4.867c0.021-0.657-0.111-1.32-0.182-2.061
		c1.504,1.682,3.004,3.281,4.23,5.095c0.713,1.053,1.452,2.093,2.059,3.233c0.559,1.053,1.133,2.098,1.69,3.153
		c0.386,0.732,0.575,1.544,0.97,2.227c0.611,1.06,0.688,2.267,1.205,3.344c0.305,0.633,0.315,1.407,0.463,2.118
		c0.15,0.718,0.158,1.463,0.465,2.15c0.095,0.217,0.133,0.477,0.135,0.715c0.016,1.878,0.379,3.739,0.257,5.62
		c-0.11,1.685-0.111,3.39-0.404,5.042c-0.292,1.641-0.388,3.325-0.858,4.921c-0.329,1.115-0.536,2.257-0.87,3.369
		c-0.371,1.231-0.552,2.548-1.106,3.688c-0.421,0.865-0.314,1.894-0.992,2.662c-0.21,0.236-0.143,0.702-0.254,1.045
		c-0.467,1.448-0.931,2.902-1.448,4.327c-0.598,1.651-1.114,3.325-1.611,5c-0.688,2.324-1.284,4.683-1.042,7.156
		c0.126,1.258,0.501,2.43,1.086,3.539c0.795,1.506,1.984,2.551,3.465,3.442c1.702,1.026,3.453,1.308,5.271,0.876
		c2.153-0.511,3.728-1.85,4.662-3.935c0.521-1.164,0.675-2.374,0.894-3.603c0.151-0.85,0.322-1.703,0.156-2.517
		c-0.27-1.325-0.261-2.653-0.316-3.982c-0.06-1.406-0.132-2.844,0.164-4.207c0.239-1.103,0.246-2.229,0.551-3.317
		c0.186-0.656,0.096-1.448,0.435-1.988c0.484-0.774,0.495-1.664,0.897-2.452c0.545-1.067,1.061-2.146,1.73-3.144
		c0.671-1,1.425-1.93,2.326-2.734c0.116-0.104,0.25-0.125,0.397-0.086L98.509,102.515z"/>
	<path fill-rule="evenodd" clip-rule="evenodd" fill="#FEFEFE" d="M98.518,102.521c0.005-0.055,0.011-0.111,0.016-0.168
		c0.025,0.013,0.052,0.025,0.077,0.038c-0.033,0.041-0.068,0.082-0.102,0.124L98.518,102.521z"/>
</g>
</svg>
