<?xml version="1.0" encoding="utf-8"?>
<!-- Generator: Adobe Illustrator 16.0.0, SVG Export Plug-In . SVG Version: 6.00 Build 0)  -->
<!DOCTYPE svg PUBLIC "-//W3C//DTD SVG 1.1//EN" "http://www.w3.org/Graphics/SVG/1.1/DTD/svg11.dtd">
<svg version="1.1" id="Layer_1" xmlns="http://www.w3.org/2000/svg" xmlns:xlink="http://www.w3.org/1999/xlink" x="0px" y="0px"
	 width="56.611px" height="60.008px" viewBox="0 0 56.611 60.008" enable-background="new 0 0 56.611 60.008" xml:space="preserve">
<g>
	<defs>
		<rect id="SVGID_17_" x="1391.305" y="-1690.449" width="1600" height="819"/>
	</defs>
	<clipPath id="SVGID_2_">
		<use xlink:href="#SVGID_17_"  overflow="visible"/>
	</clipPath>
	<g clip-path="url(#SVGID_2_)">
		<g>
			<g>
				<g>
					<g>
						<defs>
							<rect id="SVGID_189_" x="1391.306" y="-2121.449" width="1600" height="1600"/>
						</defs>
						<clipPath id="SVGID_4_">
							<use xlink:href="#SVGID_189_"  overflow="visible"/>
						</clipPath>
						<g clip-path="url(#SVGID_4_)">
							
								<linearGradient id="SVGID_6_" gradientUnits="userSpaceOnUse" x1="-1288.8145" y1="1360.71" x2="-548.8145" y2="1360.71" gradientTransform="matrix(0 -1 1 0 -1698.1543 -613.1387)">
								<stop  offset="0" style="stop-color:#FFFFFF"/>
								<stop  offset="1" style="stop-color:#C2C2C2"/>
							</linearGradient>
							<polygon fill="url(#SVGID_6_)" points="-700.882,-64.324 25.993,675.676 -35.569,-18.699 							"/>
							
								<linearGradient id="SVGID_8_" gradientUnits="userSpaceOnUse" x1="-1300.5645" y1="1981.1162" x2="-634.0645" y2="1981.1162" gradientTransform="matrix(0 -1 1 0 -1698.1543 -613.1387)">
								<stop  offset="0" style="stop-color:#FFFFFF"/>
								<stop  offset="1" style="stop-color:#C2C2C2"/>
							</linearGradient>
							<polygon fill="url(#SVGID_8_)" points="25.993,675.676 369.056,687.426 539.931,21.551 539.181,20.926 							"/>
							
								<linearGradient id="SVGID_10_" gradientUnits="userSpaceOnUse" x1="-594.4395" y1="1949.959" x2="-1288.8145" y2="1949.959" gradientTransform="matrix(0 -1 1 0 -1698.1543 -613.1387)">
								<stop  offset="0" style="stop-color:#FFFFFF"/>
								<stop  offset="1" style="stop-color:#C2C2C2"/>
							</linearGradient>
							<polygon fill="url(#SVGID_10_)" points="-35.569,-18.699 25.993,675.676 539.181,20.926 							"/>
							
								<linearGradient id="SVGID_12_" gradientUnits="userSpaceOnUse" x1="-269.627" y1="2237.335" x2="-269.627" y2="1600.8975" gradientTransform="matrix(0 -1 1 0 -1698.1543 -613.1387)">
								<stop  offset="0" style="stop-color:#FFFFFF"/>
								<stop  offset="1" style="stop-color:#C2C2C2"/>
							</linearGradient>
							<polygon fill="url(#SVGID_12_)" points="-35.569,-18.699 539.181,20.926 539.181,20.301 -97.257,-707.949 							"/>
							
								<linearGradient id="SVGID_14_" gradientUnits="userSpaceOnUse" x1="-269.3145" y1="2631.1475" x2="-269.3145" y2="1600.8975" gradientTransform="matrix(0 -1 1 0 -1698.1543 -613.1387)">
								<stop  offset="0" style="stop-color:#FFFFFF"/>
								<stop  offset="1" style="stop-color:#C2C2C2"/>
							</linearGradient>
							<polygon fill="url(#SVGID_14_)" points="539.181,20.301 932.993,-481.824 -97.257,-707.949 							"/>
							
								<linearGradient id="SVGID_16_" gradientUnits="userSpaceOnUse" x1="-1694.8145" y1="1360.71" x2="-548.8145" y2="1360.71" gradientTransform="matrix(0 -1 1 0 -1698.1543 -613.1387)">
								<stop  offset="0" style="stop-color:#FFFFFF"/>
								<stop  offset="1" style="stop-color:#C2C2C2"/>
							</linearGradient>
							<polygon fill="url(#SVGID_16_)" points="-700.882,-64.324 -119.507,1081.676 25.993,675.676 							"/>
						</g>
					</g>
				</g>
			</g>
		</g>
	</g>
</g>
<g>
	<defs>
		<rect id="SVGID_307_" x="-1924.695" y="-2139.449" width="1600" height="819"/>
	</defs>
	<clipPath id="SVGID_18_">
		<use xlink:href="#SVGID_307_"  overflow="visible"/>
	</clipPath>
	<g clip-path="url(#SVGID_18_)">
		<g>
			<g>
				<g>
					<g>
						<defs>
							<rect id="SVGID_335_" x="-1924.694" y="-2570.449" width="1600" height="1600"/>
						</defs>
						<clipPath id="SVGID_20_">
							<use xlink:href="#SVGID_335_"  overflow="visible"/>
						</clipPath>
						<g clip-path="url(#SVGID_20_)">
							
								<linearGradient id="SVGID_22_" gradientUnits="userSpaceOnUse" x1="-2254.3843" y1="1032.3906" x2="-2254.3843" y2="395.8906" gradientTransform="matrix(-1 0 0 -1 -2401.1406 914.0664)">
								<stop  offset="0" style="stop-color:#FFFFFF"/>
								<stop  offset="1" style="stop-color:#C2C2C2"/>
							</linearGradient>
							<polygon fill="url(#SVGID_22_)" points="178.056,456.426 217.681,-118.324 216.993,-118.324 -511.194,518.176 							"/>
							
								<linearGradient id="SVGID_24_" gradientUnits="userSpaceOnUse" x1="-2254.0405" y1="1426.1406" x2="-2254.0405" y2="395.8906" gradientTransform="matrix(-1 0 0 -1 -2401.1406 914.0664)">
								<stop  offset="0" style="stop-color:#FFFFFF"/>
								<stop  offset="1" style="stop-color:#C2C2C2"/>
							</linearGradient>
							<polygon fill="url(#SVGID_24_)" points="216.993,-118.324 -285.132,-512.074 -511.194,518.176 							"/>
						</g>
					</g>
				</g>
			</g>
		</g>
	</g>
</g>
<g>
	<path fill="#EFCE4A" d="M28.306,10.19c-10.005,0-18.115,8.11-18.115,18.115c0,8.026,5.226,14.822,12.454,17.2v11.105h2.265v3.396
		h6.794v-3.396h2.264V45.506c7.229-2.378,12.455-9.174,12.455-17.2C46.422,18.301,38.312,10.19,28.306,10.19z"/>
	<g>
		<path fill="#EFCE4A" d="M28.306,0c-0.626,0-1.132,0.506-1.132,1.132V5.66c0,0.627,0.506,1.133,1.132,1.133
			s1.132-0.506,1.132-1.133V1.132C29.438,0.506,28.932,0,28.306,0z"/>
		<path fill="#EFCE4A" d="M55.479,27.173H50.95c-0.626,0-1.132,0.507-1.132,1.133s0.506,1.132,1.132,1.132h4.528
			c0.627,0,1.133-0.506,1.133-1.132S56.105,27.173,55.479,27.173z"/>
		<path fill="#EFCE4A" d="M5.662,27.173H1.133C0.506,27.173,0,27.68,0,28.306s0.506,1.132,1.133,1.132h4.529
			c0.626,0,1.131-0.506,1.131-1.132S6.288,27.173,5.662,27.173z"/>
		<path fill="#EFCE4A" d="M46.721,8.29l-3.202,3.202c-0.442,0.442-0.442,1.158,0,1.601c0.221,0.221,0.511,0.332,0.801,0.332
			s0.579-0.111,0.8-0.332l3.202-3.202c0.442-0.442,0.442-1.158,0-1.601S47.162,7.849,46.721,8.29z"/>
		<path fill="#EFCE4A" d="M11.492,43.518l-3.201,3.203c-0.443,0.441-0.443,1.157,0,1.601c0.221,0.221,0.51,0.331,0.8,0.331
			s0.58-0.11,0.801-0.331l3.202-3.202c0.442-0.442,0.442-1.158,0-1.602C12.65,43.075,11.936,43.075,11.492,43.518z"/>
		<path fill="#EFCE4A" d="M45.119,43.518c-0.442-0.442-1.158-0.442-1.601,0c-0.442,0.443-0.442,1.159,0,1.602l3.202,3.202
			c0.221,0.221,0.51,0.331,0.801,0.331c0.289,0,0.58-0.11,0.8-0.331c0.442-0.443,0.442-1.159,0-1.601L45.119,43.518z"/>
		<path fill="#EFCE4A" d="M9.892,8.29c-0.442-0.442-1.158-0.442-1.601,0c-0.443,0.442-0.443,1.158,0,1.601l3.201,3.202
			c0.221,0.221,0.511,0.332,0.801,0.332s0.58-0.111,0.801-0.332c0.442-0.442,0.442-1.158,0-1.601L9.892,8.29z"/>
	</g>
	<path fill="#F7E6A1" d="M15.852,29.438c-0.626,0-1.133-0.506-1.133-1.132c0-7.492,6.096-13.587,13.587-13.587
		c0.626,0,1.132,0.507,1.132,1.132c0,0.627-0.506,1.132-1.132,1.132c-6.243,0-11.322,5.08-11.322,11.323
		C16.983,28.932,16.479,29.438,15.852,29.438z"/>
	<polygon fill="#556080" points="22.645,48.686 22.645,56.611 24.909,56.611 24.909,60.008 31.703,60.008 31.703,56.611 
		33.967,56.611 33.967,48.686 	"/>
</g>
</svg>
