<?xml version="1.0" encoding="utf-8"?>
<!-- Generator: Adobe Illustrator 16.0.0, SVG Export Plug-In . SVG Version: 6.00 Build 0)  -->
<!DOCTYPE svg PUBLIC "-//W3C//DTD SVG 1.1//EN" "http://www.w3.org/Graphics/SVG/1.1/DTD/svg11.dtd">
<svg version="1.1" id="Layer_1" xmlns="http://www.w3.org/2000/svg" xmlns:xlink="http://www.w3.org/1999/xlink" x="0px" y="0px"
	 width="12.237px" height="12.26px" viewBox="0 0 12.237 12.26" enable-background="new 0 0 12.237 12.26" xml:space="preserve">
<g>
	<defs>
		<rect id="SVGID_17_" x="303.268" y="-31.857" width="1600" height="819"/>
	</defs>
	<clipPath id="SVGID_2_">
		<use xlink:href="#SVGID_17_"  overflow="visible"/>
	</clipPath>
	<g clip-path="url(#SVGID_2_)">
		<g>
			<g>
				<g>
					<g>
						<defs>
							<rect id="SVGID_45_" x="303.269" y="-462.857" width="1600" height="1600"/>
						</defs>
						<clipPath id="SVGID_4_">
							<use xlink:href="#SVGID_45_"  overflow="visible"/>
						</clipPath>
						<g clip-path="url(#SVGID_4_)">
							
								<linearGradient id="SVGID_6_" gradientUnits="userSpaceOnUse" x1="-4790.4214" y1="4544.8789" x2="-4790.4214" y2="3459.2371" gradientTransform="matrix(-1 0 0 -1 -4577.2148 4231.25)">
								<stop  offset="0" style="stop-color:#FFFFFF"/>
								<stop  offset="1" style="stop-color:#C2C2C2"/>
							</linearGradient>
							<polygon fill="url(#SVGID_6_)" points="-420.606,414.268 847.019,-180.982 -420.606,-294.357 							"/>
							
								<linearGradient id="SVGID_8_" gradientUnits="userSpaceOnUse" x1="-5424.2334" y1="3744.7324" x2="-4547.9209" y2="3744.7324" gradientTransform="matrix(-1 0 0 -1 -4577.2148 4231.25)">
								<stop  offset="0" style="stop-color:#FFFFFF"/>
								<stop  offset="1" style="stop-color:#C2C2C2"/>
							</linearGradient>
							<polygon fill="url(#SVGID_8_)" points="-27.981,529.518 266.956,1154.018 847.019,-180.982 -29.294,529.518 							"/>
							
								<linearGradient id="SVGID_10_" gradientUnits="userSpaceOnUse" x1="-5424.2334" y1="4015.7949" x2="-3394.9561" y2="4015.7949" gradientTransform="matrix(-1 0 0 -1 -4577.2148 4231.25)">
								<stop  offset="0" style="stop-color:#FFFFFF"/>
								<stop  offset="1" style="stop-color:#C2C2C2"/>
							</linearGradient>
							<polygon fill="url(#SVGID_10_)" points="-420.606,611.893 -29.294,529.518 847.019,-180.982 -420.606,414.268 							"/>
						</g>
					</g>
				</g>
			</g>
		</g>
		<g>
			<g>
				<g>
					<g>
						<defs>
							<rect id="SVGID_189_" x="303.269" y="-462.857" width="1600" height="1600"/>
						</defs>
						<clipPath id="SVGID_12_">
							<use xlink:href="#SVGID_189_"  overflow="visible"/>
						</clipPath>
						<g clip-path="url(#SVGID_12_)">
							
								<linearGradient id="SVGID_14_" gradientUnits="userSpaceOnUse" x1="-539.1016" y1="4540.833" x2="456.5234" y2="4540.833" gradientTransform="matrix(0 -1 1 0 -4444.7832 -42.584)">
								<stop  offset="0" style="stop-color:#FFFFFF"/>
								<stop  offset="1" style="stop-color:#C2C2C2"/>
							</linearGradient>
							<polygon fill="url(#SVGID_14_)" points="512.831,496.518 286.456,-499.107 -320.731,318.643 							"/>
							
								<linearGradient id="SVGID_16_" gradientUnits="userSpaceOnUse" x1="47.6484" y1="4731.2393" x2="47.6484" y2="3651.1143" gradientTransform="matrix(0 -1 1 0 -4444.7832 -42.584)">
								<stop  offset="0" style="stop-color:#FFFFFF"/>
								<stop  offset="1" style="stop-color:#C2C2C2"/>
							</linearGradient>
							<polygon fill="url(#SVGID_16_)" points="-793.669,217.268 -320.731,318.643 286.456,-499.107 -793.669,216.518 							"/>
							
								<linearGradient id="SVGID_18_" gradientUnits="userSpaceOnUse" x1="-259.1016" y1="4191.1768" x2="456.5234" y2="4191.1768" gradientTransform="matrix(0 -1 1 0 -4444.7832 -42.584)">
								<stop  offset="0" style="stop-color:#FFFFFF"/>
								<stop  offset="1" style="stop-color:#C2C2C2"/>
							</linearGradient>
							<polygon fill="url(#SVGID_18_)" points="-793.669,216.518 286.456,-499.107 -541.044,-182.857 							"/>
						</g>
					</g>
				</g>
			</g>
		</g>
	</g>
</g>
<g>
	<defs>
		<rect id="SVGID_307_" x="-3012.732" y="-480.857" width="1600" height="819"/>
	</defs>
	<clipPath id="SVGID_20_">
		<use xlink:href="#SVGID_307_"  overflow="visible"/>
	</clipPath>
	<g clip-path="url(#SVGID_20_)">
		<g>
			<g>
				<g>
					<g>
						<defs>
							<rect id="SVGID_335_" x="-3012.731" y="-911.857" width="1600" height="1600"/>
						</defs>
						<clipPath id="SVGID_22_">
							<use xlink:href="#SVGID_335_"  overflow="visible"/>
						</clipPath>
						<g clip-path="url(#SVGID_22_)">
							
								<linearGradient id="SVGID_24_" gradientUnits="userSpaceOnUse" x1="-4909.8594" y1="4347.0566" x2="-4909.8594" y2="3120.0566" gradientTransform="matrix(-1 0 0 -1 -4577.2148 4231.25)">
								<stop  offset="0" style="stop-color:#FFFFFF"/>
								<stop  offset="1" style="stop-color:#C2C2C2"/>
							</linearGradient>
							<polygon fill="url(#SVGID_24_)" points="-167.481,643.018 832.77,-85.607 832.77,-85.607 46.77,-583.982 							"/>
							
								<linearGradient id="SVGID_26_" gradientUnits="userSpaceOnUse" x1="-5409.9844" y1="3952.5449" x2="-4409.7334" y2="3952.5449" gradientTransform="matrix(-1 0 0 -1 -4577.2148 4231.25)">
								<stop  offset="0" style="stop-color:#FFFFFF"/>
								<stop  offset="1" style="stop-color:#C2C2C2"/>
							</linearGradient>
							<polygon fill="url(#SVGID_26_)" points="832.77,452.768 832.77,-85.607 -167.481,643.018 							"/>
							
								<linearGradient id="SVGID_28_" gradientUnits="userSpaceOnUse" x1="-3833.4824" y1="4201.7314" x2="-4623.9834" y2="4201.7314" gradientTransform="matrix(-1 0 0 -1 -4577.2148 4231.25)">
								<stop  offset="0" style="stop-color:#FFFFFF"/>
								<stop  offset="1" style="stop-color:#C2C2C2"/>
							</linearGradient>
							<polygon fill="url(#SVGID_28_)" points="-167.481,643.018 46.77,-583.982 -743.731,-305.232 							"/>
						</g>
					</g>
				</g>
			</g>
		</g>
	</g>
</g>
<g>
	<g>
		<path fill="#DDDDDD" d="M10.503,10.941C10.5,10.941,10.5,10.944,10.503,10.941c-0.106,0.115-0.217,0.219-0.335,0.335
			c-0.179,0.17-0.359,0.348-0.528,0.548c-0.278,0.296-0.604,0.436-1.033,0.436c-0.04,0-0.083,0-0.125-0.002
			c-0.815-0.053-1.57-0.371-2.14-0.643c-1.554-0.751-2.917-1.819-4.05-3.171C1.356,7.316,0.729,6.275,0.317,5.155
			C0.063,4.472-0.032,3.939,0.01,3.437c0.028-0.32,0.151-0.587,0.38-0.814l0.935-0.936c0.134-0.125,0.277-0.194,0.417-0.194
			c0.173,0,0.313,0.104,0.4,0.192C2.144,1.687,2.147,1.69,2.149,1.693c0.168,0.156,0.328,0.318,0.494,0.491
			C2.728,2.272,2.815,2.36,2.904,2.45l0.749,0.749c0.29,0.291,0.29,0.561,0,0.851C3.572,4.128,3.496,4.208,3.417,4.285
			C3.186,4.521,2.968,4.74,2.728,4.955C2.723,4.96,2.717,4.963,2.715,4.968C2.479,5.204,2.522,5.435,2.571,5.591
			C2.574,5.6,2.577,5.607,2.58,5.617c0.195,0.472,0.47,0.915,0.886,1.444l0.002,0.004c0.758,0.932,1.557,1.659,2.438,2.216
			C6.019,9.352,6.132,9.41,6.242,9.465c0.1,0.049,0.193,0.096,0.272,0.146c0.012,0.005,0.021,0.013,0.033,0.018
			c0.094,0.047,0.182,0.069,0.271,0.069c0.228,0,0.369-0.142,0.417-0.189L8.173,8.57c0.094-0.093,0.242-0.205,0.415-0.205
			c0.171,0,0.311,0.107,0.395,0.199C8.985,8.568,8.985,8.568,8.989,8.57l1.511,1.513C10.784,10.362,10.784,10.65,10.503,10.941z"/>
		<path fill="#DDDDDD" d="M6.273,3.092c0.718,0.12,1.371,0.46,1.893,0.981c0.521,0.521,0.858,1.174,0.983,1.894
			c0.028,0.181,0.186,0.308,0.363,0.308c0.023,0,0.041-0.004,0.063-0.006c0.203-0.033,0.337-0.226,0.305-0.428
			C9.732,4.971,9.321,4.178,8.693,3.55C8.065,2.921,7.271,2.51,6.402,2.362C6.198,2.33,6.01,2.463,5.976,2.664
			C5.938,2.864,6.069,3.059,6.273,3.092z"/>
		<path fill="#DDDDDD" d="M12.231,5.734C11.987,4.302,11.313,3,10.276,1.962C9.238,0.925,7.936,0.249,6.503,0.006
			C6.304-0.03,6.113,0.107,6.079,0.308c-0.032,0.203,0.1,0.392,0.305,0.427c1.277,0.217,2.443,0.823,3.369,1.749
			c0.93,0.927,1.531,2.092,1.75,3.371c0.028,0.182,0.186,0.308,0.364,0.308c0.022,0,0.04-0.002,0.063-0.006
			C12.131,6.126,12.267,5.935,12.231,5.734z"/>
	</g>
</g>
</svg>
