<?xml version="1.0" encoding="utf-8"?>
<!-- Generator: Adobe Illustrator 16.0.0, SVG Export Plug-In . SVG Version: 6.00 Build 0)  -->
<!DOCTYPE svg PUBLIC "-//W3C//DTD SVG 1.1//EN" "http://www.w3.org/Graphics/SVG/1.1/DTD/svg11.dtd">
<svg version="1.1" id="Layer_1" xmlns="http://www.w3.org/2000/svg" xmlns:xlink="http://www.w3.org/1999/xlink" x="0px" y="0px"
	 width="28.242px" height="25.035px" viewBox="0 0 28.242 25.035" enable-background="new 0 0 28.242 25.035" xml:space="preserve">
<g>
	<defs>
		<rect id="SVGID_17_" x="1005.117" y="-556.057" width="1600" height="819"/>
	</defs>
	<clipPath id="SVGID_2_">
		<use xlink:href="#SVGID_17_"  overflow="visible"/>
	</clipPath>
	<g clip-path="url(#SVGID_2_)">
		<g>
			<g>
				<g>
					<g>
						<defs>
							<rect id="SVGID_189_" x="1005.118" y="-987.057" width="1600" height="1600"/>
						</defs>
						<clipPath id="SVGID_4_">
							<use xlink:href="#SVGID_189_"  overflow="visible"/>
						</clipPath>
						<g clip-path="url(#SVGID_4_)">
							
								<linearGradient id="SVGID_6_" gradientUnits="userSpaceOnUse" x1="-517.502" y1="3446.2271" x2="441.998" y2="3446.2271" gradientTransform="matrix(0 -1 1 0 -3218.7339 135.0659)">
								<stop  offset="0" style="stop-color:#FFFFFF"/>
								<stop  offset="1" style="stop-color:#C2C2C2"/>
							</linearGradient>
							<polygon fill="url(#SVGID_6_)" points="381.118,-205.557 -91.819,-306.932 546.806,652.568 380.368,-204.307 							"/>
							
								<linearGradient id="SVGID_8_" gradientUnits="userSpaceOnUse" x1="441.998" y1="3446.2261" x2="-517.502" y2="3446.2261" gradientTransform="matrix(0 -1 1 0 -3218.7339 135.0659)">
								<stop  offset="0" style="stop-color:#FFFFFF"/>
								<stop  offset="1" style="stop-color:#C2C2C2"/>
							</linearGradient>
							<polygon fill="url(#SVGID_8_)" points="-91.819,-306.932 1.743,144.568 0.431,144.568 546.806,652.568 -91.819,-306.932 
															"/>
							
								<linearGradient id="SVGID_10_" gradientUnits="userSpaceOnUse" x1="271.123" y1="2615.6646" x2="271.123" y2="3220.4771" gradientTransform="matrix(0 -1 1 0 -3218.7339 135.0659)">
								<stop  offset="0" style="stop-color:#FFFFFF"/>
								<stop  offset="1" style="stop-color:#C2C2C2"/>
							</linearGradient>
							<polygon fill="url(#SVGID_10_)" points="0.431,144.568 1.743,144.568 -91.819,-306.932 -603.069,-416.682 							"/>
							
								<linearGradient id="SVGID_12_" gradientUnits="userSpaceOnUse" x1="130.1855" y1="3219.1646" x2="130.1855" y2="2615.6646" gradientTransform="matrix(0 -1 1 0 -3218.7339 135.0659)">
								<stop  offset="0" style="stop-color:#FFFFFF"/>
								<stop  offset="1" style="stop-color:#C2C2C2"/>
							</linearGradient>
							<polygon fill="url(#SVGID_12_)" points="-483.444,426.443 0.431,144.568 -603.069,-416.682 							"/>
						</g>
					</g>
				</g>
			</g>
		</g>
	</g>
</g>
<g>
	<defs>
		<rect id="SVGID_307_" x="-2310.883" y="-1005.057" width="1600" height="819"/>
	</defs>
	<clipPath id="SVGID_14_">
		<use xlink:href="#SVGID_307_"  overflow="visible"/>
	</clipPath>
	<g clip-path="url(#SVGID_14_)">
		<g>
			<g>
				<g>
					<g>
						<defs>
							<rect id="SVGID_335_" x="-2310.882" y="-1436.057" width="1600" height="1600"/>
						</defs>
						<clipPath id="SVGID_16_">
							<use xlink:href="#SVGID_335_"  overflow="visible"/>
						</clipPath>
						<g clip-path="url(#SVGID_16_)">
							
								<linearGradient id="SVGID_18_" gradientUnits="userSpaceOnUse" x1="-3131.6328" y1="3677.5317" x2="-3922.1338" y2="3677.5317" gradientTransform="matrix(-1 0 0 -1 -3173.5156 3182.8506)">
								<stop  offset="0" style="stop-color:#FFFFFF"/>
								<stop  offset="1" style="stop-color:#C2C2C2"/>
							</linearGradient>
							<polygon fill="url(#SVGID_18_)" points="534.368,118.818 748.619,-1108.182 -41.882,-829.432 							"/>
							
								<linearGradient id="SVGID_20_" gradientUnits="userSpaceOnUse" x1="-3707.8838" y1="3538.1577" x2="-2705.5088" y2="3538.1577" gradientTransform="matrix(-1 0 0 -1 -3173.5156 3182.8506)">
								<stop  offset="0" style="stop-color:#FFFFFF"/>
								<stop  offset="1" style="stop-color:#C2C2C2"/>
							</linearGradient>
							<polygon fill="url(#SVGID_20_)" points="-468.007,-678.057 534.368,118.818 -41.882,-829.432 							"/>
							
								<linearGradient id="SVGID_22_" gradientUnits="userSpaceOnUse" x1="-3105.0405" y1="3860.9077" x2="-3105.0405" y2="2560.5327" gradientTransform="matrix(-1 0 0 -1 -3173.5156 3182.8506)">
								<stop  offset="0" style="stop-color:#FFFFFF"/>
								<stop  offset="1" style="stop-color:#C2C2C2"/>
							</linearGradient>
							<polygon fill="url(#SVGID_22_)" points="-671.319,622.318 534.368,118.818 -468.007,-678.057 							"/>
						</g>
					</g>
				</g>
			</g>
		</g>
	</g>
</g>
<g>
	<path fill="#26B99A" d="M25.808,0H2.435C1.109,0,0,1.109,0,2.435v16.069c0,1.325,1.109,2.434,2.435,2.434h13.479l-2.161-2.513
		c-0.176-0.203-0.152-0.511,0.052-0.687c0.203-0.176,0.512-0.152,0.686,0.052l2.434,2.83l4.016,4.415v-4.098h0.974h2.922h0.974
		c1.325,0,2.435-1.108,2.435-2.434V2.435C28.242,1.109,27.133,0,25.808,0z"/>
	<path fill="#FFFFFF" d="M12.66,7.304H5.355c-0.269,0-0.486-0.218-0.486-0.487c0-0.269,0.218-0.486,0.486-0.486h7.305
		c0.27,0,0.487,0.218,0.487,0.486C13.147,7.086,12.93,7.304,12.66,7.304z"/>
	<path fill="#FFFFFF" d="M21.912,11.199H5.355c-0.269,0-0.486-0.219-0.486-0.487s0.218-0.486,0.486-0.486h16.557
		c0.27,0,0.486,0.218,0.486,0.486S22.182,11.199,21.912,11.199z"/>
	<path fill="#FFFFFF" d="M21.912,15.095H5.355c-0.269,0-0.486-0.218-0.486-0.487c0-0.269,0.218-0.486,0.486-0.486h16.557
		c0.27,0,0.486,0.218,0.486,0.486C22.398,14.877,22.182,15.095,21.912,15.095z"/>
</g>
</svg>
