<?xml version="1.0" encoding="utf-8"?>
<!-- Generator: Adobe Illustrator 16.0.0, SVG Export Plug-In . SVG Version: 6.00 Build 0)  -->
<!DOCTYPE svg PUBLIC "-//W3C//DTD SVG 1.1//EN" "http://www.w3.org/Graphics/SVG/1.1/DTD/svg11.dtd">
<svg version="1.1" id="Layer_1" xmlns="http://www.w3.org/2000/svg" xmlns:xlink="http://www.w3.org/1999/xlink" x="0px" y="0px"
	 width="85.521px" height="85.521px" viewBox="0 0 85.521 85.521" enable-background="new 0 0 85.521 85.521" xml:space="preserve">
<g>
	<defs>
		<rect id="SVGID_17_" x="661.607" y="-639.021" width="1600" height="819"/>
	</defs>
	<clipPath id="SVGID_2_">
		<use xlink:href="#SVGID_17_"  overflow="visible"/>
	</clipPath>
	<g clip-path="url(#SVGID_2_)">
		<g>
			<g>
				<g>
					<g>
						<defs>
							<rect id="SVGID_45_" x="661.608" y="-1070.021" width="1600" height="1600"/>
						</defs>
						<clipPath id="SVGID_4_">
							<use xlink:href="#SVGID_45_"  overflow="visible"/>
						</clipPath>
						<g clip-path="url(#SVGID_4_)">
							
								<linearGradient id="SVGID_6_" gradientUnits="userSpaceOnUse" x1="-3079.4829" y1="2715.0674" x2="-4485.8301" y2="2715.0676" gradientTransform="matrix(-1 0 0 -1 -3860.5352 3016.9219)">
								<stop  offset="0" style="stop-color:#FFFFFF"/>
								<stop  offset="1" style="stop-color:#C2C2C2"/>
							</linearGradient>
							<polygon fill="url(#SVGID_6_)" points="-62.267,681.354 625.296,546.854 330.358,-77.646 329.046,-77.646 -62.267,239.479 
															"/>
							
								<linearGradient id="SVGID_8_" gradientUnits="userSpaceOnUse" x1="-5065.8936" y1="3408.6309" x2="-3036.6162" y2="3408.6309" gradientTransform="matrix(-1 0 0 -1 -3860.5352 3016.9219)">
								<stop  offset="0" style="stop-color:#FFFFFF"/>
								<stop  offset="1" style="stop-color:#C2C2C2"/>
							</linearGradient>
							<polygon fill="url(#SVGID_8_)" points="-62.267,4.729 329.046,-77.646 1205.358,-788.146 -62.267,-192.896 							"/>
						</g>
					</g>
				</g>
			</g>
		</g>
		<g>
			<g>
				<g>
					<g>
						<defs>
							<rect id="SVGID_189_" x="661.608" y="-1070.021" width="1600" height="1600"/>
						</defs>
						<clipPath id="SVGID_10_">
							<use xlink:href="#SVGID_189_"  overflow="visible"/>
						</clipPath>
						<g clip-path="url(#SVGID_10_)">
							
								<linearGradient id="SVGID_12_" gradientUnits="userSpaceOnUse" x1="-861.0117" y1="3933.2939" x2="-2.8867" y2="3933.2939" gradientTransform="matrix(0 -1 1 0 -3479.2793 -291.4082)">
								<stop  offset="0" style="stop-color:#FFFFFF"/>
								<stop  offset="1" style="stop-color:#C2C2C2"/>
							</linearGradient>
							<polygon fill="url(#SVGID_12_)" points="36.858,-287.271 203.296,569.604 871.171,-110.646 37.608,-288.521 							"/>
							
								<linearGradient id="SVGID_14_" gradientUnits="userSpaceOnUse" x1="-861.0117" y1="3363.2627" x2="98.4883" y2="3363.2627" gradientTransform="matrix(0 -1 1 0 -3479.2793 -291.4082)">
								<stop  offset="0" style="stop-color:#FFFFFF"/>
								<stop  offset="1" style="stop-color:#C2C2C2"/>
							</linearGradient>
							<polygon fill="url(#SVGID_14_)" points="37.608,-288.521 -435.329,-389.896 203.296,569.604 36.858,-287.271 							"/>
							
								<linearGradient id="SVGID_16_" gradientUnits="userSpaceOnUse" x1="-861.0117" y1="3167.4502" x2="-353.0117" y2="3167.4502" gradientTransform="matrix(0 -1 1 0 -3479.2793 -291.4082)">
								<stop  offset="0" style="stop-color:#FFFFFF"/>
								<stop  offset="1" style="stop-color:#C2C2C2"/>
							</linearGradient>
							<polygon fill="url(#SVGID_16_)" points="-826.954,343.479 203.296,569.604 -343.079,61.604 							"/>
							
								<linearGradient id="SVGID_18_" gradientUnits="userSpaceOnUse" x1="98.4883" y1="3363.2617" x2="-861.0117" y2="3363.2617" gradientTransform="matrix(0 -1 1 0 -3479.2793 -291.4082)">
								<stop  offset="0" style="stop-color:#FFFFFF"/>
								<stop  offset="1" style="stop-color:#C2C2C2"/>
							</linearGradient>
							<polygon fill="url(#SVGID_18_)" points="-435.329,-389.896 -341.767,61.604 -343.079,61.604 203.296,569.604 
								-435.329,-389.896 							"/>
						</g>
					</g>
				</g>
			</g>
		</g>
	</g>
</g>
<g>
	<defs>
		<rect id="SVGID_307_" x="-2654.393" y="-1088.021" width="1600" height="819"/>
	</defs>
	<clipPath id="SVGID_20_">
		<use xlink:href="#SVGID_307_"  overflow="visible"/>
	</clipPath>
	<g clip-path="url(#SVGID_20_)">
		<g>
			<g>
				<g>
					<g>
						<defs>
							<rect id="SVGID_335_" x="-2654.392" y="-1519.021" width="1600" height="1600"/>
						</defs>
						<clipPath id="SVGID_22_">
							<use xlink:href="#SVGID_335_"  overflow="visible"/>
						</clipPath>
						<g clip-path="url(#SVGID_22_)">
							
								<linearGradient id="SVGID_24_" gradientUnits="userSpaceOnUse" x1="-3475.1426" y1="3594.5674" x2="-4265.6436" y2="3594.5674" gradientTransform="matrix(-1 0 0 -1 -3860.5352 3016.9219)">
								<stop  offset="0" style="stop-color:#FFFFFF"/>
								<stop  offset="1" style="stop-color:#C2C2C2"/>
							</linearGradient>
							<polygon fill="url(#SVGID_24_)" points="190.858,35.854 405.109,-1191.146 -385.392,-912.396 							"/>
							
								<linearGradient id="SVGID_26_" gradientUnits="userSpaceOnUse" x1="-4051.3936" y1="3455.1934" x2="-3049.0186" y2="3455.1934" gradientTransform="matrix(-1 0 0 -1 -3860.5352 3016.9219)">
								<stop  offset="0" style="stop-color:#FFFFFF"/>
								<stop  offset="1" style="stop-color:#C2C2C2"/>
							</linearGradient>
							<polygon fill="url(#SVGID_26_)" points="-811.517,-761.021 190.858,35.854 -385.392,-912.396 							"/>
							
								<linearGradient id="SVGID_28_" gradientUnits="userSpaceOnUse" x1="-3448.5503" y1="3777.9434" x2="-3448.5503" y2="2477.5684" gradientTransform="matrix(-1 0 0 -1 -3860.5352 3016.9219)">
								<stop  offset="0" style="stop-color:#FFFFFF"/>
								<stop  offset="1" style="stop-color:#C2C2C2"/>
							</linearGradient>
							<polygon fill="url(#SVGID_28_)" points="-1014.829,539.354 190.858,35.854 -811.517,-761.021 							"/>
							
								<linearGradient id="SVGID_30_" gradientUnits="userSpaceOnUse" x1="-3700.2681" y1="1913.6934" x2="-3700.2681" y2="2981.0684" gradientTransform="matrix(-1 0 0 -1 -3860.5352 3016.9219)">
								<stop  offset="0" style="stop-color:#FFFFFF"/>
								<stop  offset="1" style="stop-color:#C2C2C2"/>
							</linearGradient>
							<polygon fill="url(#SVGID_30_)" points="154.421,1103.229 190.858,35.854 -511.392,932.354 							"/>
							
								<linearGradient id="SVGID_32_" gradientUnits="userSpaceOnUse" x1="-4051.3936" y1="2532.4434" x2="-2845.7061" y2="2532.4434" gradientTransform="matrix(-1 0 0 -1 -3860.5352 3016.9219)">
								<stop  offset="0" style="stop-color:#FFFFFF"/>
								<stop  offset="1" style="stop-color:#C2C2C2"/>
							</linearGradient>
							<polygon fill="url(#SVGID_32_)" points="-512.704,933.104 -511.392,932.354 190.858,35.854 -1014.829,539.354 							"/>
						</g>
					</g>
				</g>
			</g>
		</g>
	</g>
</g>
<g>
	<path fill="#CCD0D2" d="M42.761,0c23.584,0,42.76,19.176,42.76,42.761s-19.176,42.761-42.76,42.761
		C19.176,85.521,0,66.413,0,42.761C0,19.176,19.176,0,42.761,0z"/>
	<path fill="#EFEFEF" d="M42.761,3.942c21.447,0,38.818,17.371,38.818,38.818S64.208,81.58,42.761,81.58S3.941,64.208,3.941,42.761
		S21.313,3.942,42.761,3.942z"/>
	<path fill="#CCD0D2" d="M42.761,23.385c-10.69,0-19.376,8.686-19.376,19.376s8.686,19.376,19.376,19.376
		c10.689,0,19.375-8.686,19.375-19.376S53.45,23.385,42.761,23.385z M42.761,59.464c-9.22,0-16.703-7.483-16.703-16.703
		c0-9.221,7.483-16.704,16.703-16.704c9.221,0,16.703,7.483,16.703,16.704C59.464,51.98,51.98,59.464,42.761,59.464z"/>
	<path fill="#BF392B" d="M66.079,19.442c1.469,1.471-16.303,27.327-17.839,28.797c-1.471,1.471-27.328,19.31-28.864,17.84
		c-1.47-1.47,16.369-27.394,17.839-28.797C38.686,35.813,64.542,17.906,66.079,19.442z"/>
	<path fill="#CCD0D2" d="M42.761,10.69c-1.136,0-2.004,0.868-2.004,2.004s0.868,2.005,2.004,2.005s2.005-0.869,2.005-2.005
		C44.766,11.625,43.896,10.69,42.761,10.69z M42.761,70.822c-1.136,0-2.004,0.869-2.004,2.005s0.868,2.004,2.004,2.004
		s2.005-0.868,2.005-2.004S43.896,70.822,42.761,70.822z M72.827,40.756c-1.137,0-2.006,0.869-2.006,2.005s0.869,2.004,2.006,2.004
		c1.135,0,2.004-0.868,2.004-2.004C74.831,41.691,73.962,40.756,72.827,40.756z M12.695,40.756c-1.137,0-2.005,0.869-2.005,2.005
		s0.868,2.004,2.005,2.004c1.135,0,2.004-0.868,2.004-2.004C14.699,41.691,13.83,40.756,12.695,40.756z M62.737,62.07
		c-0.801,0.801-0.801,2.07,0,2.872c0.803,0.802,2.072,0.802,2.873,0c0.803-0.802,0.803-2.071,0-2.872
		C64.81,61.269,63.54,61.269,62.737,62.07z M19.978,20.646c-0.802,0.802-0.802,2.071,0,2.873s2.071,0.802,2.872,0
		c0.803-0.802,0.803-2.071,0-2.873C21.981,19.844,20.713,19.844,19.978,20.646z"/>
	<path fill="#E2574C" d="M48.641,47.905c2.873-3.608,18.907-26.993,17.438-28.396c-1.537-1.537-26.124,15.434-28.663,17.639
		L48.641,47.905z"/>
	<path fill="#C64D41" d="M37.282,37.282c-1.403,1.403-18.976,26.792-17.839,28.729l46.567-46.569
		C63.874,18.374,38.686,35.879,37.282,37.282z"/>
	<path fill="#E5685E" d="M37.416,37.148l5.545,5.345l23.05-23.051C63.94,18.374,39.955,35.01,37.416,37.148z"/>
	<path fill="#AC3327" d="M42.093,40.088c1.87,0,3.341,1.471,3.341,3.341c0,1.871-1.471,3.341-3.341,3.341s-3.341-1.47-3.341-3.341
		C38.752,41.559,40.222,40.088,42.093,40.088z"/>
	<path fill="#BF392B" d="M42.093,40.088c-1.871,0-3.341,1.471-3.341,3.341c0,0.869,0.334,1.737,0.936,2.339l4.744-4.744
		C43.83,40.422,42.961,40.088,42.093,40.088z"/>
	<path fill="#EFEFEF" d="M42.761,39.42c1.871,0,3.341,1.47,3.341,3.341s-1.47,3.341-3.341,3.341c-1.87,0-3.341-1.47-3.341-3.341
		S40.891,39.42,42.761,39.42z"/>
</g>
</svg>
