<?xml version="1.0" encoding="utf-8"?>
<!-- Generator: Adobe Illustrator 16.0.0, SVG Export Plug-In . SVG Version: 6.00 Build 0)  -->
<!DOCTYPE svg PUBLIC "-//W3C//DTD SVG 1.1//EN" "http://www.w3.org/Graphics/SVG/1.1/DTD/svg11.dtd">
<svg version="1.1" id="Layer_1" xmlns="http://www.w3.org/2000/svg" xmlns:xlink="http://www.w3.org/1999/xlink" x="0px" y="0px"
	 width="5.389px" height="11.547px" viewBox="0 0 5.389 11.547" enable-background="new 0 0 5.389 11.547" xml:space="preserve">
<g>
	<defs>
		<rect id="SVGID_17_" x="198.156" y="-32.423" width="1600" height="819"/>
	</defs>
	<clipPath id="SVGID_2_">
		<use xlink:href="#SVGID_17_"  overflow="visible"/>
	</clipPath>
	<g clip-path="url(#SVGID_2_)">
		<g>
			<g>
				<g>
					<g>
						<defs>
							<rect id="SVGID_45_" x="198.157" y="-463.423" width="1600" height="1600"/>
						</defs>
						<clipPath id="SVGID_4_">
							<use xlink:href="#SVGID_45_"  overflow="visible"/>
						</clipPath>
						<g clip-path="url(#SVGID_4_)">
							
								<linearGradient id="SVGID_6_" gradientUnits="userSpaceOnUse" x1="-4895.5327" y1="4544.313" x2="-4895.5327" y2="3458.6711" gradientTransform="matrix(-1 0 0 -1 -4787.4375 4230.1182)">
								<stop  offset="0" style="stop-color:#FFFFFF"/>
								<stop  offset="1" style="stop-color:#C2C2C2"/>
							</linearGradient>
							<polygon fill="url(#SVGID_6_)" points="-525.718,413.702 741.907,-181.548 -525.718,-294.923 							"/>
							
								<linearGradient id="SVGID_8_" gradientUnits="userSpaceOnUse" x1="-5529.3447" y1="3744.1665" x2="-4653.0322" y2="3744.1665" gradientTransform="matrix(-1 0 0 -1 -4787.4375 4230.1182)">
								<stop  offset="0" style="stop-color:#FFFFFF"/>
								<stop  offset="1" style="stop-color:#C2C2C2"/>
							</linearGradient>
							<polygon fill="url(#SVGID_8_)" points="-133.093,528.952 161.845,1153.452 741.907,-181.548 -134.405,528.952 							"/>
							
								<linearGradient id="SVGID_10_" gradientUnits="userSpaceOnUse" x1="-5529.3447" y1="4015.229" x2="-3500.0674" y2="4015.229" gradientTransform="matrix(-1 0 0 -1 -4787.4375 4230.1182)">
								<stop  offset="0" style="stop-color:#FFFFFF"/>
								<stop  offset="1" style="stop-color:#C2C2C2"/>
							</linearGradient>
							<polygon fill="url(#SVGID_10_)" points="-525.718,611.327 -134.405,528.952 741.907,-181.548 -525.718,413.702 							"/>
						</g>
					</g>
				</g>
			</g>
		</g>
		<g>
			<g>
				<g>
					<g>
						<defs>
							<rect id="SVGID_189_" x="198.157" y="-463.423" width="1600" height="1600"/>
						</defs>
						<clipPath id="SVGID_12_">
							<use xlink:href="#SVGID_189_"  overflow="visible"/>
						</clipPath>
						<g clip-path="url(#SVGID_12_)">
							
								<linearGradient id="SVGID_14_" gradientUnits="userSpaceOnUse" x1="-644.2129" y1="4540.2671" x2="351.4121" y2="4540.2671" gradientTransform="matrix(0 -1 1 0 -4549.3286 -148.2612)">
								<stop  offset="0" style="stop-color:#FFFFFF"/>
								<stop  offset="1" style="stop-color:#C2C2C2"/>
							</linearGradient>
							<polygon fill="url(#SVGID_14_)" points="407.72,495.952 181.345,-499.673 -425.843,318.077 							"/>
							
								<linearGradient id="SVGID_16_" gradientUnits="userSpaceOnUse" x1="-57.4629" y1="4730.6733" x2="-57.4629" y2="3650.5483" gradientTransform="matrix(0 -1 1 0 -4549.3286 -148.2612)">
								<stop  offset="0" style="stop-color:#FFFFFF"/>
								<stop  offset="1" style="stop-color:#C2C2C2"/>
							</linearGradient>
							<polygon fill="url(#SVGID_16_)" points="-898.78,216.702 -425.843,318.077 181.345,-499.673 -898.78,215.952 							"/>
							
								<linearGradient id="SVGID_18_" gradientUnits="userSpaceOnUse" x1="-364.2129" y1="4190.6108" x2="351.4121" y2="4190.6108" gradientTransform="matrix(0 -1 1 0 -4549.3286 -148.2612)">
								<stop  offset="0" style="stop-color:#FFFFFF"/>
								<stop  offset="1" style="stop-color:#C2C2C2"/>
							</linearGradient>
							<polygon fill="url(#SVGID_18_)" points="-898.78,215.952 181.345,-499.673 -646.155,-183.423 							"/>
						</g>
					</g>
				</g>
			</g>
		</g>
	</g>
</g>
<g>
	<defs>
		<rect id="SVGID_307_" x="-3117.844" y="-481.423" width="1600" height="819"/>
	</defs>
	<clipPath id="SVGID_20_">
		<use xlink:href="#SVGID_307_"  overflow="visible"/>
	</clipPath>
	<g clip-path="url(#SVGID_20_)">
		<g>
			<g>
				<g>
					<g>
						<defs>
							<rect id="SVGID_335_" x="-3117.843" y="-912.423" width="1600" height="1600"/>
						</defs>
						<clipPath id="SVGID_22_">
							<use xlink:href="#SVGID_335_"  overflow="visible"/>
						</clipPath>
						<g clip-path="url(#SVGID_22_)">
							
								<linearGradient id="SVGID_24_" gradientUnits="userSpaceOnUse" x1="-5014.9707" y1="4346.4907" x2="-5014.9707" y2="3119.4907" gradientTransform="matrix(-1 0 0 -1 -4787.4375 4230.1182)">
								<stop  offset="0" style="stop-color:#FFFFFF"/>
								<stop  offset="1" style="stop-color:#C2C2C2"/>
							</linearGradient>
							<polygon fill="url(#SVGID_24_)" points="-272.593,642.452 727.658,-86.173 727.658,-86.173 -58.342,-584.548 							"/>
							
								<linearGradient id="SVGID_26_" gradientUnits="userSpaceOnUse" x1="-5515.0957" y1="3951.979" x2="-4514.8447" y2="3951.979" gradientTransform="matrix(-1 0 0 -1 -4787.4375 4230.1182)">
								<stop  offset="0" style="stop-color:#FFFFFF"/>
								<stop  offset="1" style="stop-color:#C2C2C2"/>
							</linearGradient>
							<polygon fill="url(#SVGID_26_)" points="727.658,452.202 727.658,-86.173 -272.593,642.452 							"/>
						</g>
					</g>
				</g>
			</g>
		</g>
	</g>
</g>
<g>
	<path id="Facebook_5_" fill="#DDDDDD" d="M1.164,2.236c0,0.291,0,1.59,0,1.59H0V5.77h1.164v5.777h2.393V5.77h1.607
		c0,0,0.15-0.932,0.223-1.951c-0.209,0-1.82,0-1.82,0s0-1.131,0-1.329s0.262-0.466,0.52-0.466c0.256,0,0.801,0,1.303,0
		c0-0.265,0-1.18,0-2.023C4.717,0,3.953,0,3.617,0C1.105,0,1.164,1.945,1.164,2.236z"/>
</g>
</svg>
