<?xml version="1.0" encoding="utf-8"?>
<!-- Generator: Adobe Illustrator 16.0.0, SVG Export Plug-In . SVG Version: 6.00 Build 0)  -->
<!DOCTYPE svg PUBLIC "-//W3C//DTD SVG 1.1//EN" "http://www.w3.org/Graphics/SVG/1.1/DTD/svg11.dtd">
<svg version="1.1" id="Layer_1" xmlns="http://www.w3.org/2000/svg" xmlns:xlink="http://www.w3.org/1999/xlink" x="0px" y="0px"
	 width="15.744px" height="16.8px" viewBox="0 0 15.744 16.8" enable-background="new 0 0 15.744 16.8" xml:space="preserve">
<g>
	<defs>
		<rect id="SVGID_17_" x="1031.854" y="-572.854" width="1600" height="819"/>
	</defs>
	<clipPath id="SVGID_2_">
		<use xlink:href="#SVGID_17_"  overflow="visible"/>
	</clipPath>
	<g clip-path="url(#SVGID_2_)">
		<g>
			<g>
				<g>
					<g>
						<defs>
							<rect id="SVGID_189_" x="1031.855" y="-1003.854" width="1600" height="1600"/>
						</defs>
						<clipPath id="SVGID_4_">
							<use xlink:href="#SVGID_189_"  overflow="visible"/>
						</clipPath>
						<g clip-path="url(#SVGID_4_)">
							
								<linearGradient id="SVGID_6_" gradientUnits="userSpaceOnUse" x1="-490.7646" y1="3429.4302" x2="468.7354" y2="3429.4302" gradientTransform="matrix(0 -1 1 0 -3175.1997 145.0063)">
								<stop  offset="0" style="stop-color:#FFFFFF"/>
								<stop  offset="1" style="stop-color:#C2C2C2"/>
							</linearGradient>
							<polygon fill="url(#SVGID_6_)" points="407.855,-222.354 -65.082,-323.729 573.543,635.771 407.105,-221.104 							"/>
							
								<linearGradient id="SVGID_8_" gradientUnits="userSpaceOnUse" x1="468.7354" y1="3429.4292" x2="-490.7646" y2="3429.4292" gradientTransform="matrix(0 -1 1 0 -3175.1997 145.0063)">
								<stop  offset="0" style="stop-color:#FFFFFF"/>
								<stop  offset="1" style="stop-color:#C2C2C2"/>
							</linearGradient>
							<polygon fill="url(#SVGID_8_)" points="-65.082,-323.729 28.48,127.771 27.168,127.771 573.543,635.771 -65.082,-323.729 
															"/>
							
								<linearGradient id="SVGID_10_" gradientUnits="userSpaceOnUse" x1="297.8604" y1="2598.8677" x2="297.8603" y2="3203.6802" gradientTransform="matrix(0 -1 1 0 -3175.1997 145.0063)">
								<stop  offset="0" style="stop-color:#FFFFFF"/>
								<stop  offset="1" style="stop-color:#C2C2C2"/>
							</linearGradient>
							<polygon fill="url(#SVGID_10_)" points="27.168,127.771 28.48,127.771 -65.082,-323.729 -576.332,-433.479 							"/>
							
								<linearGradient id="SVGID_12_" gradientUnits="userSpaceOnUse" x1="156.9229" y1="3202.3677" x2="156.9228" y2="2598.8677" gradientTransform="matrix(0 -1 1 0 -3175.1997 145.0063)">
								<stop  offset="0" style="stop-color:#FFFFFF"/>
								<stop  offset="1" style="stop-color:#C2C2C2"/>
							</linearGradient>
							<polygon fill="url(#SVGID_12_)" points="-456.707,409.646 27.168,127.771 -576.332,-433.479 							"/>
						</g>
					</g>
				</g>
			</g>
		</g>
	</g>
</g>
<g>
	<defs>
		<rect id="SVGID_307_" x="-2284.146" y="-1021.854" width="1600" height="819"/>
	</defs>
	<clipPath id="SVGID_14_">
		<use xlink:href="#SVGID_307_"  overflow="visible"/>
	</clipPath>
	<g clip-path="url(#SVGID_14_)">
		<g>
			<g>
				<g>
					<g>
						<defs>
							<rect id="SVGID_335_" x="-2284.145" y="-1452.854" width="1600" height="1600"/>
						</defs>
						<clipPath id="SVGID_16_">
							<use xlink:href="#SVGID_335_"  overflow="visible"/>
						</clipPath>
						<g clip-path="url(#SVGID_16_)">
							
								<linearGradient id="SVGID_18_" gradientUnits="userSpaceOnUse" x1="-3104.8955" y1="3660.7349" x2="-3895.3965" y2="3660.7349" gradientTransform="matrix(-1 0 0 -1 -3120.041 3149.2568)">
								<stop  offset="0" style="stop-color:#FFFFFF"/>
								<stop  offset="1" style="stop-color:#C2C2C2"/>
							</linearGradient>
							<polygon fill="url(#SVGID_18_)" points="561.105,102.021 775.356,-1124.979 -15.145,-846.229 							"/>
							
								<linearGradient id="SVGID_20_" gradientUnits="userSpaceOnUse" x1="-3681.1465" y1="3521.3608" x2="-2678.7715" y2="3521.3608" gradientTransform="matrix(-1 0 0 -1 -3120.041 3149.2568)">
								<stop  offset="0" style="stop-color:#FFFFFF"/>
								<stop  offset="1" style="stop-color:#C2C2C2"/>
							</linearGradient>
							<polygon fill="url(#SVGID_20_)" points="-441.27,-694.854 561.105,102.021 -15.145,-846.229 							"/>
							
								<linearGradient id="SVGID_22_" gradientUnits="userSpaceOnUse" x1="-3078.3032" y1="3844.1108" x2="-3078.3032" y2="2543.7358" gradientTransform="matrix(-1 0 0 -1 -3120.041 3149.2568)">
								<stop  offset="0" style="stop-color:#FFFFFF"/>
								<stop  offset="1" style="stop-color:#C2C2C2"/>
							</linearGradient>
							<polygon fill="url(#SVGID_22_)" points="-644.582,605.521 561.105,102.021 -441.27,-694.854 							"/>
						</g>
					</g>
				</g>
			</g>
		</g>
	</g>
</g>
<g>
	<path fill="#FFFFFF" d="M15.601,6.191h-3.48l-0.552,4.561h3.384l-0.144,1.704h-3.456L10.824,16.8h-1.68l0.528-4.344H5.064
		L4.536,16.8h-1.68l0.528-4.344H0l0.145-1.704h3.456l0.552-4.561H0.769l0.144-1.703h3.456L4.921,0h1.703L6.072,4.488h4.584L11.208,0
		h1.681l-0.553,4.488h3.408L15.601,6.191z M9.889,10.752l0.552-4.561H5.856L5.28,10.752H9.889z"/>
</g>
</svg>
