<?xml version="1.0" encoding="utf-8"?>
<!-- Generator: Adobe Illustrator 16.0.0, SVG Export Plug-In . SVG Version: 6.00 Build 0)  -->
<!DOCTYPE svg PUBLIC "-//W3C//DTD SVG 1.1//EN" "http://www.w3.org/Graphics/SVG/1.1/DTD/svg11.dtd">
<svg version="1.1" id="Layer_1" xmlns="http://www.w3.org/2000/svg" xmlns:xlink="http://www.w3.org/1999/xlink" x="0px" y="0px"
	 width="797.438px" height="484.589px" viewBox="0 0 797.438 484.589" enable-background="new 0 0 797.438 484.589"
	 xml:space="preserve">
<g>
	<defs>
		<rect id="SVGID_17_" x="1301.587" y="-1015.987" width="1600" height="819"/>
	</defs>
	<clipPath id="SVGID_2_">
		<use xlink:href="#SVGID_17_"  overflow="visible"/>
	</clipPath>
	<g clip-path="url(#SVGID_2_)">
		<g>
			<g>
				<g>
					<g>
						<defs>
							<rect id="SVGID_45_" x="1301.588" y="-1446.987" width="1600" height="1600"/>
						</defs>
						<clipPath id="SVGID_4_">
							<use xlink:href="#SVGID_45_"  overflow="visible"/>
						</clipPath>
						<g clip-path="url(#SVGID_4_)">
							
								<linearGradient id="SVGID_6_" gradientUnits="userSpaceOnUse" x1="-2439.5034" y1="2338.1021" x2="-3845.8506" y2="2338.1023" gradientTransform="matrix(-1 0 0 -1 -2580.5762 2262.9912)">
								<stop  offset="0" style="stop-color:#FFFFFF"/>
								<stop  offset="1" style="stop-color:#C2C2C2"/>
							</linearGradient>
							<polygon fill="url(#SVGID_6_)" points="577.713,304.388 1265.275,169.888 970.338,-454.612 969.025,-454.612 
								577.713,-137.487 							"/>
							
								<linearGradient id="SVGID_8_" gradientUnits="userSpaceOnUse" x1="-3896.5391" y1="1479.6655" x2="-2439.5068" y2="1479.6655" gradientTransform="matrix(-1 0 0 -1 -2580.5762 2262.9912)">
								<stop  offset="0" style="stop-color:#FFFFFF"/>
								<stop  offset="1" style="stop-color:#C2C2C2"/>
							</linearGradient>
							<polygon fill="url(#SVGID_8_)" points="577.713,524.388 629.963,295.013 1315.963,1396.763 1265.275,169.888 
								577.713,304.388 							"/>
							
								<linearGradient id="SVGID_10_" gradientUnits="userSpaceOnUse" x1="-3080.6875" y1="1417.1021" x2="-3896.5349" y2="1417.1022" gradientTransform="matrix(-1 0 0 -1 -2580.5762 2262.9912)">
								<stop  offset="0" style="stop-color:#FFFFFF"/>
								<stop  offset="1" style="stop-color:#C2C2C2"/>
							</linearGradient>
							<polygon fill="url(#SVGID_10_)" points="577.713,915.263 1315.963,1396.763 629.963,295.013 577.713,524.388 							"/>
						</g>
					</g>
				</g>
			</g>
		</g>
		<g>
			<g>
				<g>
					<g>
						<defs>
							<rect id="SVGID_189_" x="1301.588" y="-1446.987" width="1600" height="1600"/>
						</defs>
						<clipPath id="SVGID_12_">
							<use xlink:href="#SVGID_189_"  overflow="visible"/>
						</clipPath>
						<g clip-path="url(#SVGID_12_)">
							
								<linearGradient id="SVGID_14_" gradientUnits="userSpaceOnUse" x1="-359.3447" y1="2911.7974" x2="-359.3448" y2="2275.3599" gradientTransform="matrix(0 -1 1 0 -2462.3345 -28.394)">
								<stop  offset="0" style="stop-color:#FFFFFF"/>
								<stop  offset="1" style="stop-color:#C2C2C2"/>
							</linearGradient>
							<polygon fill="url(#SVGID_14_)" points="-125.287,655.763 449.463,695.388 449.463,694.763 -186.975,-33.487 							"/>
							
								<linearGradient id="SVGID_16_" gradientUnits="userSpaceOnUse" x1="-221.0322" y1="3556.3286" x2="637.0928" y2="3556.3286" gradientTransform="matrix(0 -1 1 0 -2462.3345 -28.394)">
								<stop  offset="0" style="stop-color:#FFFFFF"/>
								<stop  offset="1" style="stop-color:#C2C2C2"/>
							</linearGradient>
							<polygon fill="url(#SVGID_16_)" points="676.838,-664.237 843.275,192.638 1511.15,-487.612 677.588,-665.487 							"/>
							
								<linearGradient id="SVGID_18_" gradientUnits="userSpaceOnUse" x1="-221.0322" y1="2986.2974" x2="738.4678" y2="2986.2974" gradientTransform="matrix(0 -1 1 0 -2462.3345 -28.394)">
								<stop  offset="0" style="stop-color:#FFFFFF"/>
								<stop  offset="1" style="stop-color:#C2C2C2"/>
							</linearGradient>
							<polygon fill="url(#SVGID_18_)" points="677.588,-665.487 204.65,-766.862 843.275,192.638 676.838,-664.237 							"/>
							
								<linearGradient id="SVGID_20_" gradientUnits="userSpaceOnUse" x1="-221.0322" y1="2790.4849" x2="286.9678" y2="2790.4849" gradientTransform="matrix(0 -1 1 0 -2462.3345 -28.394)">
								<stop  offset="0" style="stop-color:#FFFFFF"/>
								<stop  offset="1" style="stop-color:#C2C2C2"/>
							</linearGradient>
							<polygon fill="url(#SVGID_20_)" points="-186.975,-33.487 843.275,192.638 296.9,-315.362 							"/>
							
								<linearGradient id="SVGID_22_" gradientUnits="userSpaceOnUse" x1="-359.0322" y1="3305.6099" x2="-359.0323" y2="2275.3599" gradientTransform="matrix(0 -1 1 0 -2462.3345 -28.394)">
								<stop  offset="0" style="stop-color:#FFFFFF"/>
								<stop  offset="1" style="stop-color:#C2C2C2"/>
							</linearGradient>
							<polygon fill="url(#SVGID_22_)" points="449.463,694.763 843.275,192.638 -186.975,-33.487 							"/>
							
								<linearGradient id="SVGID_24_" gradientUnits="userSpaceOnUse" x1="738.4678" y1="2986.2964" x2="-221.0322" y2="2986.2964" gradientTransform="matrix(0 -1 1 0 -2462.3345 -28.394)">
								<stop  offset="0" style="stop-color:#FFFFFF"/>
								<stop  offset="1" style="stop-color:#C2C2C2"/>
							</linearGradient>
							<polygon fill="url(#SVGID_24_)" points="204.65,-766.862 298.213,-315.362 296.9,-315.362 843.275,192.638 204.65,-766.862 
															"/>
							
								<linearGradient id="SVGID_26_" gradientUnits="userSpaceOnUse" x1="-1426.6572" y1="3360.4536" x2="-221.0322" y2="3360.4536" gradientTransform="matrix(0 -1 1 0 -2462.3345 -28.394)">
								<stop  offset="0" style="stop-color:#FFFFFF"/>
								<stop  offset="1" style="stop-color:#C2C2C2"/>
							</linearGradient>
							<polygon fill="url(#SVGID_26_)" points="449.463,694.763 450.213,696.013 1346.775,1398.263 843.275,192.638 							"/>
						</g>
					</g>
				</g>
			</g>
		</g>
	</g>
</g>
<g>
	<defs>
		<rect id="SVGID_307_" x="-2014.413" y="-1464.987" width="1600" height="819"/>
	</defs>
	<clipPath id="SVGID_28_">
		<use xlink:href="#SVGID_307_"  overflow="visible"/>
	</clipPath>
	<g clip-path="url(#SVGID_28_)">
		<g>
			<g>
				<g>
					<g>
						<defs>
							<rect id="SVGID_335_" x="-2014.412" y="-1895.987" width="1600" height="1600"/>
						</defs>
						<clipPath id="SVGID_30_">
							<use xlink:href="#SVGID_335_"  overflow="visible"/>
						</clipPath>
						<g clip-path="url(#SVGID_30_)">
							
								<linearGradient id="SVGID_32_" gradientUnits="userSpaceOnUse" x1="-2343.7583" y1="2100.603" x2="-2343.7583" y2="1070.353" gradientTransform="matrix(-1 0 0 -1 -2580.5762 2262.9912)">
								<stop  offset="0" style="stop-color:#FFFFFF"/>
								<stop  offset="1" style="stop-color:#C2C2C2"/>
							</linearGradient>
							<polygon fill="url(#SVGID_32_)" points="127.275,556.138 -374.85,162.388 -600.912,1192.638 							"/>
							
								<linearGradient id="SVGID_34_" gradientUnits="userSpaceOnUse" x1="-4103.79" y1="1464.9155" x2="-3363.2891" y2="1464.9155" gradientTransform="matrix(-1 0 0 -1 -2580.5762 2262.9912)">
								<stop  offset="0" style="stop-color:#FFFFFF"/>
								<stop  offset="1" style="stop-color:#C2C2C2"/>
							</linearGradient>
							<polygon fill="url(#SVGID_34_)" points="782.713,1069.388 1188.65,1214.888 1523.214,381.263 1522.589,381.263 							"/>
							
								<linearGradient id="SVGID_36_" gradientUnits="userSpaceOnUse" x1="-2808.5708" y1="3400.978" x2="-2808.5708" y2="2100.603" gradientTransform="matrix(-1 0 0 -1 -2580.5762 2262.9912)">
								<stop  offset="0" style="stop-color:#FFFFFF"/>
								<stop  offset="1" style="stop-color:#C2C2C2"/>
							</linearGradient>
							<polygon fill="url(#SVGID_36_)" points="-374.85,162.388 830.838,-341.112 -171.537,-1137.987 							"/>
							
								<linearGradient id="SVGID_38_" gradientUnits="userSpaceOnUse" x1="-3060.2886" y1="1536.728" x2="-3060.2886" y2="2604.103" gradientTransform="matrix(-1 0 0 -1 -2580.5762 2262.9912)">
								<stop  offset="0" style="stop-color:#FFFFFF"/>
								<stop  offset="1" style="stop-color:#C2C2C2"/>
							</linearGradient>
							<polygon fill="url(#SVGID_38_)" points="794.4,726.263 830.838,-341.112 128.588,555.388 							"/>
							
								<linearGradient id="SVGID_40_" gradientUnits="userSpaceOnUse" x1="-3733.2275" y1="1881.728" x2="-3733.2275" y2="1193.603" gradientTransform="matrix(-1 0 0 -1 -2580.5762 2262.9912)">
								<stop  offset="0" style="stop-color:#FFFFFF"/>
								<stop  offset="1" style="stop-color:#C2C2C2"/>
							</linearGradient>
							<polygon fill="url(#SVGID_40_)" points="794.4,726.263 782.713,1069.388 1522.589,381.263 1522.589,381.263 794.963,726.263 
															"/>
							
								<linearGradient id="SVGID_42_" gradientUnits="userSpaceOnUse" x1="-3411.4141" y1="2155.478" x2="-2205.7266" y2="2155.478" gradientTransform="matrix(-1 0 0 -1 -2580.5762 2262.9912)">
								<stop  offset="0" style="stop-color:#FFFFFF"/>
								<stop  offset="1" style="stop-color:#C2C2C2"/>
							</linearGradient>
							<polygon fill="url(#SVGID_42_)" points="127.275,556.138 128.588,555.388 830.838,-341.112 -374.85,162.388 							"/>
							
								<linearGradient id="SVGID_44_" gradientUnits="userSpaceOnUse" x1="-3739.0713" y1="2604.103" x2="-3739.0713" y2="1536.728" gradientTransform="matrix(-1 0 0 -1 -2580.5762 2262.9912)">
								<stop  offset="0" style="stop-color:#FFFFFF"/>
								<stop  offset="1" style="stop-color:#C2C2C2"/>
							</linearGradient>
							<polygon fill="url(#SVGID_44_)" points="794.963,726.263 1522.589,381.263 830.838,-341.112 794.4,726.263 							"/>
						</g>
					</g>
				</g>
			</g>
		</g>
	</g>
</g>
<path fill="#E7E7E7" d="M795.051,346l-127.955-0.219c-0.705-0.001-1.279,0.57-1.279,1.276l-0.014,7.507v0.169l0,0l-0.123,72.586
	c-0.002,1.005,1.104,1.619,1.955,1.086l117.568-73.468l0,0l1.082-0.676l9.439-5.898C796.814,347.683,796.332,346.002,795.051,346z
	 M740.725,363.209l-56.951,36.258c-0.852,0.542-1.967-0.07-1.965-1.08l0.063-36.356c0.002-0.706,0.574-1.277,1.281-1.276
	l56.889,0.098C741.318,360.854,741.803,362.522,740.725,363.209z"/>
<path fill="#E7E7E7" d="M128.146,221.859c25.869,2.443,47.889-16.306,50.75-40.899l0,0c0.137,0.011,0.271,0.021,0.41,0.021h0.002
	h13.471c3.154,0,5.711-2.557,5.711-5.713v-2.387c0-3.154-2.557-5.712-5.711-5.712h-11.953l0,0h-1.518
	c-0.285,0-0.563,0.028-0.836,0.068l0.001,0.001c-3.911-21.752-22.921-38.263-45.8-38.263c-26.802,0-48.314,22.653-46.434,49.857
	C87.794,201.326,105.7,219.739,128.146,221.859z"/>
<path fill="#E7E7E7" d="M652.064,324.457h27.793l-1.674,3.799l8.623-3.799h63.719c2.463,0,4.459-1.997,4.459-4.459v-55.333
	l0.279-0.277c0.463-0.463,0.717-1.078,0.717-1.732s-0.254-1.27-0.717-1.732l-0.279-0.279v-2.883l0.783-0.783l-0.783-0.782v-0.156
	l2.742-2.741c0.893-0.895,0.895-2.343,0-3.236l-1.563-1.564c-0.336-0.334-0.748-0.543-1.18-0.627v-51.107
	c0-1.593-0.842-2.98-2.098-3.77c-0.309-1.184-1.031-2.197-2.025-2.855c-0.883-1.271-2.352-2.108-4.02-2.108h-90.494
	c-2.512,0-4.557,1.896-4.842,4.331c-2.195,0.277-3.9,2.131-3.9,4.402v123.235C647.605,322.46,649.602,324.457,652.064,324.457z"/>
<path fill="#E7E7E7" d="M91.031,398.827h0.096c5.191,0,9.4-4.209,9.4-9.4V278.091l0,0c0-2.271-0.805-4.354-2.146-5.979
	c-0.767-0.929-1.708-1.708-2.773-2.286c-0.532-0.289-1.097-0.529-1.685-0.712c-0.885-0.275-1.822-0.423-2.797-0.423h-0.096h-5.168
	h-61.98h-4.679h-0.097c-5.191,0-9.4,4.209-9.4,9.4v111.336c0,5.191,4.209,9.4,9.4,9.4h0.097h4.679h61.98H91.031z"/>
<path opacity="0.5" fill="#F2F2F2" d="M534.479,386.666c-0.113-0.383-0.242-0.771-0.4-1.169c-0.133-0.328-0.279-0.66-0.445-0.995
	c-0.332-0.67-0.736-1.352-1.23-2.032c-0.248-0.34-0.518-0.681-0.809-1.019c-1.174-1.355-2.611-2.229-4.238-2.672
	c-0.814-0.221-1.674-0.334-2.572-0.346c-1.537-0.02-3.189,0.274-4.898,0.819l-0.592-13.008h14.9c4.441,0,8.041-3.6,8.041-8.041
	V197.433c0-4.44-3.6-8.041-8.041-8.041h-1.58c5.262,0,9.799-3.707,10.844-8.864L583.301,32.62c0.072-0.356,0.115-0.71,0.154-1.063
	l1.338-6.499c1.41-6.942-3.273-12.093-10.357-12.093H264.674c-7.085,0-11.631,5.813-10.221,12.757l1.42,6.897
	c-1.392-6.856-1.326-6.856,0.066,0l-6.668,147.907c1.047,5.157,5.581,8.864,10.844,8.864h-1.579c-4.442,0-8.042,3.601-8.042,8.041
	v160.771c0,4.441,3.6,8.041,8.042,8.041h17.443l-0.131,2.881c-5.319-1.929-10.126-1.515-13.056,2.076
	c-4.529,5.551-2.919,11.354-2.919,11.354L152.303,520.635l46.88,36.429l107.223-138.351c0,0,3.388,0.071,6.878-2.322
	c1.164-0.799,2.34-1.871,3.404-3.311c1.331-1.801,1.839-3.842,1.65-5.999c-0.076-0.862-0.264-1.744-0.555-2.636
	c-0.582-1.783-1.578-3.608-2.924-5.41c-0.859-1.153-1.877-2.293-3.005-3.411l2.696-2.687l0.536-0.532l3.47-3.455l19.832-19.745
	l2.016-2.96h107.527l9.449,13.871l26.566,26.45c-6.324,6.278-8.912,13.342-5.016,18.304c4.424,5.635,10.441,5.334,10.441,5.334
	l111.096,135.091l0,0l0.084,0.1l45.807-37.768l-111.521-134.91C534.838,392.717,535.486,390.057,534.479,386.666z"/>
<g>
	<g>
		<path fill="#E6E7E8" d="M522.695,178.535H250.197c-5.262,0-9.797-3.707-10.844-8.864L214.045,45.018
			c-1.393-6.856,3.848-13.267,10.844-13.267h323.115c6.996,0,12.236,6.41,10.846,13.267l-25.311,124.653
			C532.492,174.828,527.959,178.535,522.695,178.535z"/>
		<polygon fill="#F00025" points="253.805,163.056 230.289,47.23 542.604,47.23 519.088,163.056 		"/>
		<path fill="#E6E7E8" d="M524.275,355.389H248.618c-4.44,0-8.041-3.6-8.041-8.041V186.576c0-4.441,3.601-8.041,8.041-8.041h275.657
			c4.441,0,8.041,3.6,8.041,8.041v160.771C532.316,351.789,528.717,355.389,524.275,355.389z"/>
		<g>
			<rect x="273.956" y="178.535" fill="#939598" width="224.981" height="8.191"/>
			<rect x="273.956" y="186.727" fill="#808285" width="224.981" height="4.295"/>
		</g>
		<path fill="#BCBEC0" d="M512.043,304.786H260.851c-2.916,0-5.278-2.362-5.278-5.277v-77.542c0-2.916,2.362-5.279,5.278-5.279
			h251.192c2.916,0,5.279,2.363,5.279,5.279v77.542C517.322,302.424,514.959,304.786,512.043,304.786z"/>
		<path fill="#A7A9AC" d="M256.766,300.703V223.16c0-2.916,2.363-5.278,5.279-5.278h251.193c1.152,0,2.209,0.38,3.078,1.006
			c-0.959-1.327-2.51-2.2-4.273-2.2H260.851c-2.916,0-5.278,2.363-5.278,5.279v77.541c0,1.764,0.872,3.314,2.199,4.272
			C257.146,302.912,256.766,301.854,256.766,300.703z"/>
		<path fill="#D1D3D4" d="M549.982,25.364H222.779c-7.084,0-11.631,5.813-10.221,12.757l1.42,6.896
			c-1.391-6.856,3.85-13.267,10.845-13.267h323.116c6.994,0,12.234,6.41,10.844,13.267l1.557-7.56
			C561.75,30.514,557.066,25.364,549.982,25.364z"/>
		<g>
			<rect x="279.041" y="223.384" fill="#414042" width="14.117" height="12.169"/>
			<rect x="261.031" y="223.384" fill="#414042" width="14.116" height="12.169"/>
			<rect x="296.564" y="223.384" fill="#414042" width="14.116" height="12.169"/>
			<rect x="314.088" y="223.384" fill="#414042" width="14.115" height="12.169"/>
			<rect x="331.61" y="223.384" fill="#414042" width="14.116" height="12.169"/>
			<rect x="349.134" y="223.384" fill="#414042" width="14.116" height="12.169"/>
			<rect x="366.658" y="223.384" fill="#414042" width="14.115" height="12.169"/>
			<rect x="384.18" y="223.384" fill="#414042" width="14.117" height="12.169"/>
			<rect x="401.703" y="223.384" fill="#414042" width="14.117" height="12.169"/>
			<rect x="419.227" y="223.384" fill="#414042" width="14.115" height="12.169"/>
			<rect x="436.75" y="223.384" fill="#414042" width="14.115" height="12.169"/>
			<rect x="454.271" y="223.384" fill="#414042" width="14.117" height="12.169"/>
			<rect x="471.795" y="223.384" fill="#414042" width="14.117" height="12.169"/>
			<rect x="488.771" y="223.384" fill="#414042" width="23.09" height="12.169"/>
			<rect x="484.451" y="255.691" fill="#414042" width="27.41" height="12.169"/>
			<rect x="476.055" y="272.211" fill="#414042" width="35.807" height="12.168"/>
			<rect x="304.504" y="239.082" fill="#414042" width="14.117" height="12.168"/>
			<rect x="322.059" y="239.082" fill="#414042" width="14.115" height="12.168"/>
			<rect x="339.612" y="239.082" fill="#414042" width="14.116" height="12.168"/>
			<rect x="357.166" y="239.082" fill="#414042" width="14.115" height="12.168"/>
			<rect x="374.719" y="239.082" fill="#414042" width="14.115" height="12.168"/>
			<rect x="392.271" y="239.082" fill="#414042" width="14.117" height="12.168"/>
			<rect x="409.826" y="239.082" fill="#414042" width="14.115" height="12.168"/>
			<rect x="427.379" y="239.082" fill="#414042" width="14.115" height="12.168"/>
			<rect x="444.934" y="239.082" fill="#414042" width="14.115" height="12.168"/>
			<rect x="462.486" y="239.082" fill="#414042" width="14.117" height="12.168"/>
			<rect x="480.041" y="239.082" fill="#414042" width="14.115" height="12.168"/>
			<rect x="497.746" y="239.082" fill="#414042" width="14.115" height="12.168"/>
			<rect x="286.951" y="239.082" fill="#414042" width="14.115" height="12.168"/>
			<rect x="261.031" y="239.082" fill="#414042" width="22.238" height="12.168"/>
			<rect x="261.031" y="255.691" fill="#414042" width="26.802" height="12.169"/>
			<rect x="261.031" y="271.754" fill="#414042" width="35.838" height="12.169"/>
			<rect x="261.031" y="288.639" fill="#414042" width="13.34" height="12.169"/>
			<rect x="278.951" y="288.639" fill="#414042" width="13.34" height="12.169"/>
			<rect x="296.382" y="288.639" fill="#414042" width="13.341" height="12.169"/>
			<rect x="313.257" y="288.639" fill="#414042" width="18.63" height="12.169"/>
			<g>
				<rect x="291.515" y="255.691" fill="#414042" width="14.116" height="12.169"/>
				<rect x="309.056" y="255.691" fill="#414042" width="14.116" height="12.169"/>
				<rect x="326.598" y="255.691" fill="#414042" width="14.115" height="12.169"/>
				<rect x="344.139" y="255.691" fill="#414042" width="14.116" height="12.169"/>
				<rect x="361.68" y="255.691" fill="#414042" width="14.115" height="12.169"/>
				<rect x="379.222" y="255.691" fill="#414042" width="14.116" height="12.169"/>
				<rect x="396.762" y="255.691" fill="#414042" width="14.117" height="12.169"/>
				<rect x="414.303" y="255.691" fill="#414042" width="14.117" height="12.169"/>
				<rect x="431.846" y="255.691" fill="#414042" width="14.115" height="12.169"/>
				<rect x="449.387" y="255.691" fill="#414042" width="14.115" height="12.169"/>
				<rect x="466.928" y="255.691" fill="#414042" width="14.115" height="12.169"/>
			</g>
			<g>
				<rect x="300.275" y="272.211" fill="#414042" width="14.117" height="12.168"/>
				<rect x="317.766" y="272.211" fill="#414042" width="14.115" height="12.168"/>
				<rect x="335.254" y="272.211" fill="#414042" width="14.117" height="12.168"/>
				<rect x="335.254" y="288.639" fill="#414042" width="84.074" height="12.169"/>
				<rect x="352.744" y="272.211" fill="#414042" width="14.115" height="12.168"/>
				<rect x="370.233" y="272.211" fill="#414042" width="14.116" height="12.168"/>
				<rect x="387.723" y="272.211" fill="#414042" width="14.115" height="12.168"/>
				<rect x="405.213" y="272.211" fill="#414042" width="14.115" height="12.168"/>
				<rect x="422.701" y="272.211" fill="#414042" width="14.115" height="12.168"/>
				<rect x="422.701" y="288.639" fill="#414042" width="18.793" height="12.169"/>
				<rect x="444.709" y="288.639" fill="#414042" width="13.457" height="12.169"/>
				<rect x="440.189" y="272.211" fill="#414042" width="14.117" height="12.168"/>
				<rect x="457.68" y="272.211" fill="#414042" width="14.115" height="12.168"/>
			</g>
			<rect x="462.547" y="296.396" fill="#414042" width="14.359" height="4.411"/>
			<rect x="479.6" y="296.396" fill="#414042" width="14.359" height="4.411"/>
			<rect x="479.6" y="288.639" fill="#414042" width="14.359" height="4.411"/>
			<rect x="497.502" y="296.396" fill="#414042" width="14.359" height="4.411"/>
		</g>
		<path fill="#BCBEC0" d="M354.535,350.621c-4.266,0-7.737-3.473-7.737-7.738v-27.228c0-4.267,3.472-7.738,7.737-7.738h63.822
			c4.268,0,7.738,3.472,7.738,7.738v27.228c0,4.266-3.471,7.738-7.738,7.738H354.535z"/>
		<path fill="#F1F2F2" d="M418.357,349.383h-63.822c-3.59,0-6.5-2.91-6.5-6.5v-27.228c0-3.59,2.91-6.5,6.5-6.5h63.822
			c3.59,0,6.5,2.91,6.5,6.5v27.228C424.857,346.473,421.947,349.383,418.357,349.383z"/>
	</g>
	<g>
		<path fill="#4AA88B" d="M436.998,57.363c-3.98,0-5.27,2.032-5.643,5.178c-0.375-3.146-1.664-5.178-5.643-5.178h-85.514
			l14.64,98.756h76.483h0.066h76.482l14.641-98.756H436.998z"/>
		<path fill="#F1F2F2" d="M428.453,153.184l0.006-84.865c0-7.593,1.328-13.892-5.682-13.892h-85.514l14.64,98.757H428.453z"/>
		<path fill="#E6E7E8" d="M422.777,54.427h-14.045c7.01,0,8.52,6.779,8.52,14.372l1.395,84.385h9.807l0.006-84.865
			C428.459,60.726,429.787,54.427,422.777,54.427z"/>
		<path fill="#F1F2F2" d="M504.936,153.184l14.641-98.757h-85.514c-7.008,0-5.682,6.299-5.682,13.892l0.006,84.865H504.936z"/>
		<path fill="#D1D3D4" d="M445.326,54.427h-11.264c-7.008,0-5.682,6.299-5.682,13.892l0.006,84.865h4.955l3.463-84.794
			C436.803,60.797,438.316,54.427,445.326,54.427z"/>
		<g>
			<g>
				<polygon fill="#939598" points="411.605,90.266 351.622,90.266 348.014,63.058 410.814,63.058 				"/>
			</g>
			<g>
				<g>
					<path fill="#A7A9AC" d="M411.789,96.577h-33.344c-0.271,0-0.508-0.205-0.531-0.458c-0.021-0.252,0.18-0.458,0.451-0.458h33.396
						c0.271,0,0.496,0.206,0.504,0.458C412.273,96.372,412.059,96.577,411.789,96.577z"/>
				</g>
				<g>
					<path fill="#A7A9AC" d="M366.188,96.577h-13.729c-0.271,0-0.518-0.205-0.552-0.458c-0.034-0.252,0.159-0.458,0.431-0.458h13.75
						c0.271,0,0.514,0.206,0.541,0.458C366.656,96.372,366.459,96.577,366.188,96.577z"/>
				</g>
				<g>
					<path fill="#A7A9AC" d="M412.072,106.363h-15.904c-0.266,0-0.494-0.197-0.508-0.441c-0.014-0.245,0.189-0.442,0.457-0.442
						h15.93c0.268,0,0.488,0.197,0.494,0.442C412.549,106.166,412.34,106.363,412.072,106.363z"/>
				</g>
				<g>
					<path fill="#A7A9AC" d="M389.1,106.363h-35.343c-0.267,0-0.509-0.197-0.542-0.441c-0.032-0.245,0.158-0.442,0.424-0.442h35.398
						c0.268,0,0.498,0.197,0.514,0.442C389.568,106.166,389.365,106.363,389.1,106.363z"/>
				</g>
				<g>
					<path fill="#A7A9AC" d="M412.348,115.82H379.02c-0.263,0-0.492-0.19-0.514-0.427c-0.021-0.237,0.174-0.428,0.438-0.428h33.379
						c0.262,0,0.479,0.19,0.486,0.428C412.814,115.63,412.609,115.82,412.348,115.82z"/>
				</g>
				<g>
					<path fill="#A7A9AC" d="M368.596,115.82h-13.585c-0.262,0-0.499-0.19-0.531-0.427c-0.03-0.237,0.155-0.428,0.418-0.428h13.604
						c0.264,0,0.496,0.19,0.521,0.428C369.049,115.63,368.857,115.82,368.596,115.82z"/>
				</g>
				<g>
					<path fill="#A7A9AC" d="M412.613,124.966h-56.39c-0.257,0-0.491-0.185-0.521-0.413c-0.031-0.229,0.152-0.413,0.411-0.413
						h56.474c0.258,0,0.473,0.185,0.479,0.413S412.869,124.966,412.613,124.966z"/>
				</g>
				<g>
					<path fill="#A7A9AC" d="M412.869,133.813h-14.67c-0.254,0-0.469-0.179-0.482-0.399c-0.012-0.222,0.184-0.4,0.436-0.4h14.693
						c0.254,0,0.465,0.179,0.471,0.4C413.322,133.635,413.123,133.813,412.869,133.813z"/>
				</g>
				<g>
					<path fill="#A7A9AC" d="M385.516,133.813h-28.119c-0.252,0-0.482-0.179-0.511-0.399c-0.03-0.222,0.151-0.4,0.405-0.4h28.16
						c0.254,0,0.473,0.179,0.49,0.4C385.959,133.635,385.77,133.813,385.516,133.813z"/>
				</g>
				<g>
					<path fill="#A7A9AC" d="M413.117,142.378H377.93c-0.249,0-0.467-0.173-0.487-0.388c-0.021-0.214,0.165-0.387,0.414-0.387
						h35.239c0.25,0,0.455,0.173,0.463,0.387C413.564,142.205,413.367,142.378,413.117,142.378z"/>
				</g>
				<g>
					<path fill="#A7A9AC" d="M368.457,142.378h-9.924c-0.25,0-0.475-0.173-0.503-0.388c-0.028-0.214,0.15-0.387,0.4-0.387h9.938
						c0.25,0,0.473,0.173,0.496,0.387C368.889,142.205,368.707,142.378,368.457,142.378z"/>
				</g>
			</g>
			<g>
				<g>
					<path fill="#A7A9AC" d="M503.982,77.462h-16.719c-0.281,0-0.486-0.218-0.459-0.487c0.025-0.27,0.275-0.488,0.555-0.488h16.748
						c0.279,0,0.479,0.219,0.445,0.488C504.518,77.244,504.264,77.462,503.982,77.462z"/>
				</g>
				<g>
					<path fill="#A7A9AC" d="M479.83,77.462h-37.156c-0.281,0-0.502-0.218-0.496-0.487c0.008-0.27,0.238-0.488,0.52-0.488h37.219
						c0.281,0,0.488,0.219,0.465,0.488C480.355,77.244,480.111,77.462,479.83,77.462z"/>
				</g>
				<g>
					<path fill="#A7A9AC" d="M502.648,87.907h-35.008c-0.275,0-0.484-0.211-0.465-0.471c0.016-0.262,0.254-0.473,0.529-0.473h35.064
						c0.275,0,0.473,0.211,0.438,0.473C503.174,87.696,502.924,87.907,502.648,87.907z"/>
				</g>
				<g>
					<path fill="#A7A9AC" d="M456.691,87.907h-14.27c-0.275,0-0.494-0.211-0.486-0.471c0.006-0.262,0.234-0.473,0.51-0.473h14.291
						c0.277,0,0.488,0.211,0.477,0.473C457.199,87.696,456.967,87.907,456.691,87.907z"/>
				</g>
				<g>
					<path fill="#A7A9AC" d="M497.918,124.966h-56.389c-0.258,0-0.461-0.185-0.457-0.413c0.006-0.229,0.219-0.413,0.477-0.413
						h56.475c0.258,0,0.443,0.185,0.414,0.413S498.176,124.966,497.918,124.966z"/>
				</g>
				<g>
					<path fill="#A7A9AC" d="M496.787,133.813h-14.67c-0.252,0-0.439-0.179-0.418-0.399c0.021-0.222,0.244-0.4,0.5-0.4h14.691
						c0.254,0,0.436,0.179,0.408,0.4C497.27,133.635,497.043,133.813,496.787,133.813z"/>
				</g>
				<g>
					<path fill="#A7A9AC" d="M469.436,133.813h-28.119c-0.254,0-0.455-0.179-0.449-0.399c0.004-0.222,0.215-0.4,0.469-0.4h28.16
						c0.254,0,0.445,0.179,0.428,0.4C469.908,133.635,469.688,133.813,469.436,133.813z"/>
				</g>
				<g>
					<path fill="#A7A9AC" d="M495.695,142.378h-35.188c-0.25,0-0.441-0.173-0.428-0.388c0.014-0.214,0.225-0.387,0.475-0.387h35.24
						c0.248,0,0.428,0.173,0.4,0.387C496.168,142.205,495.945,142.378,495.695,142.378z"/>
				</g>
				<g>
					<path fill="#A7A9AC" d="M451.035,142.378h-9.924c-0.25,0-0.449-0.173-0.443-0.388c0.004-0.214,0.211-0.387,0.461-0.387h9.939
						c0.248,0,0.443,0.173,0.434,0.387C451.492,142.205,451.285,142.378,451.035,142.378z"/>
				</g>
			</g>
			<g>
				<path fill="#939598" d="M498.955,116.843h-57.23c-0.26,0-0.469-0.19-0.463-0.426l0.471-20.298
					c0.008-0.252,0.23-0.458,0.504-0.458h59.422c0.273,0,0.465,0.206,0.434,0.458l-2.609,20.298
					C499.453,116.652,499.217,116.843,498.955,116.843z"/>
			</g>
		</g>
	</g>
	<polygon fill="#4AA88B" points="255.354,103.142 245.206,55.012 322.21,55.012 330.807,103.142 	"/>
	<polygon fill="#E6E7E8" points="328.588,101.283 256.86,101.283 247.496,56.87 320.654,56.87 	"/>
	<g>
		<path fill="#EE4127" d="M299.131,80.286c0.236,6.361-5.08,11.056-11.854,11.056s-13.467-4.694-15.094-11.056
			c-1.815-7.094,3.244-13.474,11.5-13.474C291.938,66.813,298.867,73.192,299.131,80.286z"/>
		<polygon fill="#E6E7E8" points="280.176,71.188 283.205,88.214 294.203,80.286 		"/>
	</g>
	<g>
		<rect x="258.362" y="109.165" fill="#D1D3D4" width="70.226" height="1.093"/>
	</g>
	<g>
		<rect x="261.57" y="123.082" fill="#D1D3D4" width="70.225" height="1.092"/>
	</g>
	<g>
		<rect x="264.552" y="137.233" fill="#D1D3D4" width="70.224" height="1.093"/>
	</g>
	<g>
		<rect x="267.039" y="151.478" fill="#D1D3D4" width="70.225" height="1.092"/>
	</g>
</g>
<g>
	<path fill="#EE4036" d="M792.326,341.528l-127.953-0.219c-0.705-0.002-1.279,0.57-1.281,1.276l-0.137,80.261
		c-0.002,1.005,1.104,1.619,1.957,1.086l128.09-80.042C794.09,343.21,793.609,341.53,792.326,341.528z M738.002,358.736
		l-56.951,36.259c-0.852,0.543-1.967-0.071-1.965-1.081l0.061-36.355c0.002-0.706,0.576-1.278,1.281-1.276l56.889,0.098
		C738.594,356.382,739.078,358.05,738.002,358.736z"/>
	<g>
		
			<rect x="786.202" y="343.828" transform="matrix(-0.002 1 -1 -0.002 1133.7502 -443.4703)" fill="#BCBEC0" width="3.938" height="0.377"/>
		
			<rect x="780.505" y="343.819" transform="matrix(-0.002 1 -1 -0.002 1128.0328 -437.7822)" fill="#BCBEC0" width="3.938" height="0.377"/>
		
			<rect x="774.808" y="343.809" transform="matrix(-0.002 1 -1 -0.002 1122.314 -432.0952)" fill="#BCBEC0" width="3.938" height="0.377"/>
		
			<rect x="769.11" y="343.798" transform="matrix(-0.0015 1 -1 -0.0015 1116.2135 -426.579)" fill="#BCBEC0" width="3.938" height="0.379"/>
		
			<rect x="763.413" y="343.788" transform="matrix(-0.0015 1 -1 -0.0015 1110.4979 -420.8915)" fill="#BCBEC0" width="3.938" height="0.379"/>
		
			<rect x="757.715" y="343.779" transform="matrix(-0.0015 1 -1 -0.0015 1104.7815 -415.2031)" fill="#BCBEC0" width="3.938" height="0.377"/>
		
			<rect x="752.017" y="343.77" transform="matrix(-0.002 1 -1 -0.002 1099.4392 -409.3429)" fill="#BCBEC0" width="3.938" height="0.377"/>
		
			<rect x="746.319" y="343.76" transform="matrix(-0.002 1 -1 -0.002 1093.7203 -403.6559)" fill="#BCBEC0" width="3.938" height="0.377"/>
		
			<rect x="740.622" y="343.75" transform="matrix(-0.0015 1 -1 -0.0015 1087.6345 -398.1392)" fill="#BCBEC0" width="3.938" height="0.379"/>
		
			<rect x="734.925" y="343.739" transform="matrix(-0.0015 1 -1 -0.0015 1081.9185 -392.4521)" fill="#BCBEC0" width="3.938" height="0.379"/>
		
			<rect x="729.227" y="343.731" transform="matrix(-0.0015 1 -1 -0.0015 1076.2024 -386.7632)" fill="#BCBEC0" width="3.938" height="0.377"/>
		
			<rect x="723.529" y="343.72" transform="matrix(-0.002 1 -1 -0.002 1070.8466 -380.9046)" fill="#BCBEC0" width="3.938" height="0.379"/>
		
			<rect x="717.832" y="343.711" transform="matrix(-0.0015 1 -1 -0.0015 1064.771 -375.3888)" fill="#BCBEC0" width="3.938" height="0.377"/>
		
			<rect x="712.134" y="343.702" transform="matrix(-0.002 1 -1 -0.002 1059.4089 -369.5287)" fill="#BCBEC0" width="3.938" height="0.377"/>
		
			<rect x="706.436" y="343.692" transform="matrix(-0.002 1 -1 -0.002 1053.6902 -363.8414)" fill="#BCBEC0" width="3.938" height="0.377"/>
		
			<rect x="700.739" y="343.681" transform="matrix(-0.0015 1 -1 -0.0015 1047.6239 -358.3249)" fill="#BCBEC0" width="3.938" height="0.379"/>
		
			<rect x="695.042" y="343.671" transform="matrix(-0.0015 1 -1 -0.0015 1041.9084 -352.6374)" fill="#BCBEC0" width="3.938" height="0.379"/>
		
			<rect x="689.345" y="343.662" transform="matrix(-0.0015 1 -1 -0.0015 1036.1931 -346.9498)" fill="#BCBEC0" width="3.937" height="0.379"/>
		
			<rect x="683.646" y="343.653" transform="matrix(-0.0015 1 -1 -0.0015 1030.4764 -341.2615)" fill="#BCBEC0" width="3.938" height="0.377"/>
		
			<rect x="677.949" y="343.643" transform="matrix(-0.002 1 -1 -0.002 1025.0973 -335.4017)" fill="#BCBEC0" width="3.937" height="0.377"/>
		
			<rect x="672.251" y="343.633" transform="matrix(-0.002 1 -1 -0.002 1019.3786 -329.7144)" fill="#BCBEC0" width="3.938" height="0.377"/>
		
			<rect x="666.553" y="343.624" transform="matrix(-0.0015 1 -1 -0.0015 1013.3297 -324.1972)" fill="#BCBEC0" width="3.938" height="0.379"/>
	</g>
	<g>
		<rect x="785.219" y="342.043" fill="#BCBEC0" width="0.379" height="1.97"/>
		<rect x="779.521" y="342.034" fill="#BCBEC0" width="0.377" height="1.968"/>
		<rect x="773.824" y="342.023" fill="#BCBEC0" width="0.377" height="1.969"/>
		<rect x="768.127" y="342.014" fill="#BCBEC0" width="0.377" height="1.97"/>
		<rect x="762.429" y="342.004" fill="#BCBEC0" width="0.379" height="1.969"/>
		<rect x="756.731" y="341.995" fill="#BCBEC0" width="0.379" height="1.969"/>
		<rect x="751.034" y="341.985" fill="#BCBEC0" width="0.379" height="1.969"/>
		<rect x="745.336" y="341.976" fill="#BCBEC0" width="0.379" height="1.968"/>
		<rect x="739.639" y="341.965" fill="#BCBEC0" width="0.379" height="1.97"/>
		<rect x="733.941" y="341.956" fill="#BCBEC0" width="0.377" height="1.968"/>
		<rect x="728.244" y="341.946" fill="#BCBEC0" width="0.377" height="1.97"/>
		<rect x="722.547" y="341.936" fill="#BCBEC0" width="0.377" height="1.969"/>
		<rect x="716.848" y="341.927" fill="#BCBEC0" width="0.379" height="1.969"/>
		<rect x="711.151" y="341.917" fill="#BCBEC0" width="0.379" height="1.969"/>
		<rect x="705.453" y="341.907" fill="#BCBEC0" width="0.377" height="1.968"/>
		<rect x="699.756" y="341.897" fill="#BCBEC0" width="0.377" height="1.97"/>
		<rect x="694.059" y="341.888" fill="#BCBEC0" width="0.377" height="1.968"/>
		<rect x="688.36" y="341.877" fill="#BCBEC0" width="0.379" height="1.97"/>
		<rect x="682.663" y="341.868" fill="#BCBEC0" width="0.379" height="1.968"/>
		<rect x="676.966" y="341.858" fill="#BCBEC0" width="0.377" height="1.969"/>
		<rect x="671.268" y="341.848" fill="#BCBEC0" width="0.379" height="1.97"/>
		<rect x="665.57" y="341.839" fill="#BCBEC0" width="0.377" height="1.969"/>
	</g>
	<polygon fill="#D8231E" points="663.082,349.495 663.08,350.261 782.48,350.465 783.703,349.702 	"/>
</g>
<g>
	<g>
		<path fill="#D1D3D4" d="M186.19,175.077h-13.47c-3.155,0-5.712-2.557-5.712-5.713v-2.387c0-3.154,2.557-5.712,5.712-5.712h13.47
			c3.154,0,5.713,2.558,5.713,5.712v2.387C191.903,172.521,189.345,175.077,186.19,175.077z"/>
		<circle fill="#FFFFFF" cx="126.087" cy="169.621" r="46.549"/>
		<circle fill="#939598" cx="126.086" cy="169.621" r="40.155"/>
		<circle fill="#231F20" cx="126.086" cy="169.621" r="40.155"/>
		<path fill="#58595B" d="M96.147,173.33c0-18.584,15.064-33.648,33.647-33.648c8.349,0,15.979,3.047,21.86,8.079
			c-6.172-7.211-15.333-11.788-25.568-11.788c-18.583,0-33.647,15.065-33.647,33.648c0,10.235,4.576,19.397,11.787,25.567
			C99.193,189.308,96.147,181.677,96.147,173.33z"/>
		<path fill="#BCBEC0" d="M126.087,128.528c-22.695,0-41.092,18.397-41.092,41.093c0,22.694,18.396,41.092,41.092,41.092
			s41.092-18.397,41.092-41.092C167.179,146.926,148.782,128.528,126.087,128.528z M126.981,208.113
			c-21.258,0-38.491-17.234-38.491-38.492c0-21.259,17.233-38.492,38.491-38.492c21.259,0,38.493,17.233,38.493,38.492
			C165.475,190.879,148.24,208.113,126.981,208.113z"/>
	</g>
	<path fill="#A7A9AC" d="M174.238,161.266h-1.518c-0.284,0-0.562,0.028-0.836,0.068c0.484,2.69,0.751,5.456,0.751,8.287
		c0,1.839-0.119,3.651-0.326,5.435c0.137,0.011,0.271,0.021,0.411,0.021h1.952c0.209-1.791,0.328-3.609,0.328-5.456
		C175.001,166.767,174.729,163.978,174.238,161.266z"/>
</g>
<g>
	<path fill="#27AEB6" d="M743.939,318.553h-98.463c-2.463,0-4.459-1.997-4.459-4.459V190.858c0-2.463,1.996-4.459,4.459-4.459
		h98.463c2.463,0,4.459,1.996,4.459,4.459v123.235C748.398,316.556,746.402,318.553,743.939,318.553z"/>
	<path fill="#DBD2AB" d="M741.574,183.417H651.08c-2.707,0-4.898,2.194-4.898,4.9v122.684c0,2.707,2.191,4.9,4.898,4.9h90.494
		c2.707,0,4.9-2.193,4.9-4.9V188.317C746.475,185.611,744.281,183.417,741.574,183.417z M650.324,307.743
		c-1.559,0-2.822-1.263-2.822-2.822c0-1.559,1.264-2.822,2.822-2.822s2.822,1.264,2.822,2.822
		C653.146,306.48,651.883,307.743,650.324,307.743z M650.324,291.648c-1.559,0-2.822-1.264-2.822-2.822s1.264-2.823,2.822-2.823
		s2.822,1.265,2.822,2.823S651.883,291.648,650.324,291.648z M650.324,275.554c-1.559,0-2.822-1.264-2.822-2.822
		c0-1.56,1.264-2.823,2.822-2.823s2.822,1.264,2.822,2.823C653.146,274.29,651.883,275.554,650.324,275.554z M650.324,259.459
		c-1.559,0-2.822-1.265-2.822-2.823s1.264-2.822,2.822-2.822s2.822,1.264,2.822,2.822S651.883,259.459,650.324,259.459z
		 M650.324,243.364c-1.559,0-2.822-1.265-2.822-2.824c0-1.559,1.264-2.822,2.822-2.822s2.822,1.264,2.822,2.822
		C653.146,242.1,651.883,243.364,650.324,243.364z M650.324,227.269c-1.559,0-2.822-1.264-2.822-2.822s1.264-2.823,2.822-2.823
		s2.822,1.265,2.822,2.823S651.883,227.269,650.324,227.269z M650.324,211.173c-1.559,0-2.822-1.263-2.822-2.822
		c0-1.559,1.264-2.822,2.822-2.822s2.822,1.264,2.822,2.822C653.146,209.91,651.883,211.173,650.324,211.173z M650.324,195.078
		c-1.559,0-2.822-1.263-2.822-2.822c0-1.559,1.264-2.823,2.822-2.823s2.822,1.265,2.822,2.823
		C653.146,193.815,651.883,195.078,650.324,195.078z"/>
	<g>
		<path fill="#F2EED6" d="M740.256,182.125H649.76c-2.705,0-4.898,2.194-4.898,4.899v122.685c0,2.706,2.193,4.9,4.898,4.9h90.496
			c2.705,0,4.898-2.194,4.898-4.9V187.024C745.154,184.319,742.961,182.125,740.256,182.125z M649.006,306.451
			c-1.561,0-2.822-1.264-2.822-2.822s1.262-2.823,2.822-2.823c1.559,0,2.822,1.265,2.822,2.823S650.564,306.451,649.006,306.451z
			 M649.006,290.356c-1.561,0-2.822-1.264-2.822-2.822c0-1.56,1.262-2.823,2.822-2.823c1.559,0,2.822,1.264,2.822,2.823
			C651.828,289.093,650.564,290.356,649.006,290.356z M649.006,274.262c-1.561,0-2.822-1.265-2.822-2.823s1.262-2.823,2.822-2.823
			c1.559,0,2.822,1.265,2.822,2.823S650.564,274.262,649.006,274.262z M649.006,258.167c-1.561,0-2.822-1.265-2.822-2.823
			c0-1.56,1.262-2.822,2.822-2.822c1.559,0,2.822,1.263,2.822,2.822C651.828,256.902,650.564,258.167,649.006,258.167z
			 M649.006,242.071c-1.561,0-2.822-1.264-2.822-2.823c0-1.559,1.262-2.821,2.822-2.821c1.559,0,2.822,1.263,2.822,2.821
			C651.828,240.808,650.564,242.071,649.006,242.071z M649.006,225.976c-1.561,0-2.822-1.263-2.822-2.821
			c0-1.56,1.262-2.823,2.822-2.823c1.559,0,2.822,1.264,2.822,2.823C651.828,224.713,650.564,225.976,649.006,225.976z
			 M649.006,209.881c-1.561,0-2.822-1.263-2.822-2.822c0-1.559,1.262-2.823,2.822-2.823c1.559,0,2.822,1.265,2.822,2.823
			C651.828,208.618,650.564,209.881,649.006,209.881z M649.006,193.786c-1.561,0-2.822-1.264-2.822-2.822s1.262-2.823,2.822-2.823
			c1.559,0,2.822,1.265,2.822,2.823S650.564,193.786,649.006,193.786z"/>
		<g>
			<path fill="#A7A9AC" d="M649.035,192.886h-5.344c-0.879,0-1.592-0.713-1.592-1.592v-0.66c0-0.879,0.713-1.592,1.592-1.592h5.344
				c0.879,0,1.592,0.713,1.592,1.592v0.66C650.627,192.173,649.914,192.886,649.035,192.886z"/>
			<path fill="#A7A9AC" d="M649.035,208.98h-5.344c-0.879,0-1.592-0.712-1.592-1.592v-0.661c0-0.879,0.713-1.59,1.592-1.59h5.344
				c0.879,0,1.592,0.711,1.592,1.59v0.661C650.627,208.269,649.914,208.98,649.035,208.98z"/>
			<path fill="#A7A9AC" d="M649.035,225.075h-5.344c-0.879,0-1.592-0.712-1.592-1.591v-0.661c0-0.879,0.713-1.592,1.592-1.592h5.344
				c0.879,0,1.592,0.713,1.592,1.592v0.661C650.627,224.363,649.914,225.075,649.035,225.075z"/>
			<path fill="#A7A9AC" d="M649.035,241.17h-5.344c-0.879,0-1.592-0.712-1.592-1.591v-0.661c0-0.879,0.713-1.591,1.592-1.591h5.344
				c0.879,0,1.592,0.712,1.592,1.591v0.661C650.627,240.458,649.914,241.17,649.035,241.17z"/>
			<path fill="#A7A9AC" d="M649.035,257.265h-5.344c-0.879,0-1.592-0.712-1.592-1.591v-0.66c0-0.88,0.713-1.592,1.592-1.592h5.344
				c0.879,0,1.592,0.712,1.592,1.592v0.66C650.627,256.553,649.914,257.265,649.035,257.265z"/>
			<path fill="#A7A9AC" d="M649.035,273.36h-5.344c-0.879,0-1.592-0.713-1.592-1.592v-0.66c0-0.879,0.713-1.592,1.592-1.592h5.344
				c0.879,0,1.592,0.713,1.592,1.592v0.66C650.627,272.647,649.914,273.36,649.035,273.36z"/>
			<path fill="#A7A9AC" d="M649.035,289.456h-5.344c-0.879,0-1.592-0.713-1.592-1.592v-0.66c0-0.879,0.713-1.592,1.592-1.592h5.344
				c0.879,0,1.592,0.713,1.592,1.592v0.66C650.627,288.743,649.914,289.456,649.035,289.456z"/>
			<g>
				<path fill="#A7A9AC" d="M649.035,305.551h-5.344c-0.879,0-1.592-0.713-1.592-1.592v-0.66c0-0.879,0.713-1.592,1.592-1.592h5.344
					c0.879,0,1.592,0.713,1.592,1.592v0.66C650.627,304.838,649.914,305.551,649.035,305.551z"/>
			</g>
		</g>
		<g>
			<path fill="#D1D3D4" d="M649.035,189.042h-5.344c-0.879,0-1.592,0.713-1.592,1.592v0.66c0,0.225,0.047,0.437,0.131,0.63
				c0.244-0.564,0.805-0.96,1.461-0.96h5.344c0.654,0,1.217,0.396,1.461,0.96c0.084-0.193,0.131-0.405,0.131-0.63v-0.66
				C650.627,189.755,649.914,189.042,649.035,189.042z"/>
			<path fill="#D1D3D4" d="M649.035,205.138h-5.344c-0.879,0-1.592,0.711-1.592,1.59v0.661c0,0.225,0.047,0.437,0.131,0.631
				c0.244-0.565,0.805-0.961,1.461-0.961h5.344c0.654,0,1.217,0.396,1.461,0.961c0.084-0.194,0.131-0.406,0.131-0.631v-0.661
				C650.627,205.849,649.914,205.138,649.035,205.138z"/>
			<path fill="#D1D3D4" d="M649.035,221.231h-5.344c-0.879,0-1.592,0.713-1.592,1.592v0.661c0,0.224,0.047,0.437,0.131,0.63
				c0.244-0.564,0.805-0.96,1.461-0.96h5.344c0.654,0,1.217,0.396,1.461,0.96c0.084-0.193,0.131-0.406,0.131-0.63v-0.661
				C650.627,221.944,649.914,221.231,649.035,221.231z"/>
			<path fill="#D1D3D4" d="M649.035,237.327h-5.344c-0.879,0-1.592,0.712-1.592,1.591v0.661c0,0.224,0.047,0.438,0.131,0.631
				c0.244-0.565,0.805-0.962,1.461-0.962h5.344c0.654,0,1.217,0.396,1.461,0.962c0.084-0.193,0.131-0.407,0.131-0.631v-0.661
				C650.627,238.039,649.914,237.327,649.035,237.327z"/>
			<path fill="#D1D3D4" d="M649.035,253.422h-5.344c-0.879,0-1.592,0.712-1.592,1.592v0.66c0,0.224,0.047,0.438,0.131,0.631
				c0.244-0.564,0.805-0.961,1.461-0.961h5.344c0.654,0,1.217,0.396,1.461,0.961c0.084-0.193,0.131-0.407,0.131-0.631v-0.66
				C650.627,254.134,649.914,253.422,649.035,253.422z"/>
			<path fill="#D1D3D4" d="M649.035,269.517h-5.344c-0.879,0-1.592,0.713-1.592,1.592v0.66c0,0.225,0.047,0.438,0.131,0.631
				c0.244-0.565,0.805-0.961,1.461-0.961h5.344c0.654,0,1.217,0.396,1.461,0.961c0.084-0.193,0.131-0.406,0.131-0.631v-0.66
				C650.627,270.229,649.914,269.517,649.035,269.517z"/>
			<path fill="#D1D3D4" d="M649.035,285.612h-5.344c-0.879,0-1.592,0.713-1.592,1.592v0.66c0,0.225,0.047,0.437,0.131,0.63
				c0.244-0.564,0.805-0.96,1.461-0.96h5.344c0.654,0,1.217,0.396,1.461,0.96c0.084-0.193,0.131-0.405,0.131-0.63v-0.66
				C650.627,286.325,649.914,285.612,649.035,285.612z"/>
			<path fill="#D1D3D4" d="M649.035,301.706h-5.344c-0.879,0-1.592,0.713-1.592,1.593v0.66c0,0.225,0.047,0.437,0.131,0.63
				c0.244-0.564,0.805-0.96,1.461-0.96h5.344c0.654,0,1.217,0.396,1.461,0.96c0.084-0.193,0.131-0.405,0.131-0.63v-0.66
				C650.627,302.419,649.914,301.706,649.035,301.706z"/>
		</g>
	</g>
	<g>
		<polygon fill="#E6E7E8" points="691.754,314.609 744.787,261.56 744.797,261.569 745.154,261.211 745.154,249.87 744.695,250.329 
			744.029,249.663 742.174,251.519 741.924,251.271 738.871,254.324 739.119,254.573 679.104,314.609 		"/>
		<path fill="#E6E7E8" d="M745.154,268.096v-4.839l-7.207,7.208c-0.67,0.669-0.67,1.752,0,2.419
			c0.332,0.335,0.771,0.503,1.209,0.503s0.877-0.168,1.211-0.503L745.154,268.096z"/>
	</g>
	<g>
		<g>
			<path fill="#F15A29" d="M751.141,244.157l-1.564-1.564c-0.895-0.893-2.342-0.893-3.234,0l-2.965,2.964l4.799,4.8l2.965-2.963
				C752.033,246.499,752.033,245.051,751.141,244.157z"/>
			
				<rect x="708.406" y="234.187" transform="matrix(0.7071 0.7071 -0.7071 0.7071 407.5358 -421.7614)" fill="#F2AB1D" width="8.947" height="93.743"/>
			
				<rect x="708.406" y="234.187" transform="matrix(0.7071 0.7071 -0.7071 0.7071 407.5358 -421.7614)" fill="#F2AB1D" width="8.947" height="93.743"/>
			<polygon fill="#E59B1A" points="747.77,249.663 681.438,315.903 682.904,317.37 749.182,251.073 			"/>
			
				<rect x="709.328" y="231.96" transform="matrix(0.7069 0.7073 -0.7073 0.7069 405.4911 -420.9182)" fill="#F7B64D" width="2.647" height="93.743"/>
			<polygon fill="#F15A29" points="671.596,322.352 682.904,317.37 676.578,311.044 			"/>
		</g>
		
			<rect x="737.804" y="249.145" transform="matrix(0.7072 0.7071 -0.7071 0.7072 395.164 -451.4991)" fill="#F15A29" width="9.681" height="4.318"/>
		
			<rect x="737.804" y="249.145" transform="matrix(0.7072 0.7071 -0.7071 0.7072 395.164 -451.4991)" fill="#F15A29" width="9.681" height="4.318"/>
		
			<rect x="737.804" y="249.145" transform="matrix(0.7072 0.7071 -0.7071 0.7072 395.164 -451.4991)" fill="#F15A29" width="9.681" height="4.318"/>
		<path fill="#F15A29" d="M748.678,255.019l-1.453-1.452l-2.418,2.421l0.764,0.764l-8.799,8.799c-0.67,0.668-0.67,1.751,0,2.42
			c0.334,0.334,0.771,0.501,1.209,0.501s0.877-0.167,1.211-0.501l9.484-9.486c0.465-0.463,0.719-1.078,0.719-1.732
			S749.141,255.481,748.678,255.019z"/>
		
			<rect x="744.605" y="254.653" transform="matrix(0.7067 -0.7075 0.7075 0.7067 38.4344 602.8636)" fill="#DB461F" width="3.422" height="0.849"/>
		
			<rect x="740.321" y="248.687" transform="matrix(0.7061 -0.7082 0.7082 0.7061 38.4718 599.0054)" fill="#E29814" width="0.932" height="8.947"/>
	</g>
</g>
<g>
	<path fill="#296A87" d="M84.541,392.923H12.617c-5.191,0-9.4-4.209-9.4-9.4V272.187c0-5.191,4.209-9.4,9.4-9.4h71.924
		c5.191,0,9.4,4.209,9.4,9.4v111.336C93.941,388.714,89.732,392.923,84.541,392.923z"/>
	<path fill="#296A87" d="M84.444,392.923H12.521c-5.192,0-9.401-4.209-9.401-9.4V272.187c0-5.191,4.209-9.4,9.401-9.4h71.923
		c5.191,0,9.4,4.209,9.4,9.4v111.336C93.845,388.714,89.636,392.923,84.444,392.923z"/>
	<path fill="#206177" d="M84.541,262.786h-5.264c5.191,0,9.4,4.209,9.4,9.4v111.336c0,5.191-4.209,9.4-9.4,9.4h5.264
		c5.191,0,9.4-4.209,9.4-9.4V272.187C93.941,266.995,89.732,262.786,84.541,262.786z"/>
	<path fill="#3E859E" d="M7.896,383.522V272.187c0-5.191,4.208-9.4,9.4-9.4h-4.68c-5.191,0-9.4,4.209-9.4,9.4v111.336
		c0,5.191,4.209,9.4,9.4,9.4h4.68C12.104,392.923,7.896,388.714,7.896,383.522z"/>
	<path fill="#093754" d="M23.898,327.604H12.977c-1.413,0-2.56-1.146-2.56-2.562v-6.362c0-1.415,1.146-2.562,2.56-2.562h10.922
		c1.414,0,2.561,1.146,2.561,2.562v6.362C26.459,326.458,25.313,327.604,23.898,327.604z"/>
	<path fill="#093754" d="M43.993,327.604H33.072c-1.416,0-2.562-1.146-2.562-2.562v-6.362c0-1.415,1.146-2.562,2.562-2.562h10.921
		c1.413,0,2.56,1.146,2.56,2.562v6.362C46.553,326.458,45.406,327.604,43.993,327.604z"/>
	<path fill="#093754" d="M64.087,327.604H53.166c-1.416,0-2.563-1.146-2.563-2.562v-6.362c0-1.415,1.146-2.562,2.563-2.562h10.921
		c1.415,0,2.562,1.146,2.562,2.562v6.362C66.648,326.458,65.502,327.604,64.087,327.604z"/>
	<path fill="#093754" d="M84.18,327.604H73.26c-1.414,0-2.561-1.146-2.561-2.562v-6.362c0-1.415,1.146-2.562,2.561-2.562h10.92
		c1.416,0,2.563,1.146,2.563,2.562v6.362C86.742,326.458,85.596,327.604,84.18,327.604z"/>
	<path fill="#093754" d="M23.898,343.689H12.977c-1.413,0-2.56-1.146-2.56-2.562v-6.362c0-1.415,1.146-2.562,2.56-2.562h10.922
		c1.414,0,2.561,1.146,2.561,2.562v6.362C26.459,342.543,25.313,343.689,23.898,343.689z"/>
	<path fill="#093754" d="M43.993,343.689H33.072c-1.416,0-2.562-1.146-2.562-2.562v-6.362c0-1.415,1.146-2.562,2.562-2.562h10.921
		c1.413,0,2.56,1.146,2.56,2.562v6.362C46.553,342.543,45.406,343.689,43.993,343.689z"/>
	<path fill="#093754" d="M64.087,343.689H53.166c-1.416,0-2.563-1.146-2.563-2.562v-6.362c0-1.415,1.146-2.562,2.563-2.562h10.921
		c1.415,0,2.562,1.146,2.562,2.562v6.362C66.648,342.543,65.502,343.689,64.087,343.689z"/>
	<path fill="#093754" d="M84.18,343.689H73.26c-1.414,0-2.561-1.146-2.561-2.562v-6.362c0-1.415,1.146-2.562,2.561-2.562h10.92
		c1.416,0,2.563,1.146,2.563,2.562v6.362C86.742,342.543,85.596,343.689,84.18,343.689z"/>
	<path fill="#093754" d="M23.898,359.774H12.977c-1.413,0-2.56-1.146-2.56-2.562v-6.362c0-1.415,1.146-2.562,2.56-2.562h10.922
		c1.414,0,2.561,1.146,2.561,2.562v6.362C26.459,358.628,25.313,359.774,23.898,359.774z"/>
	<path fill="#093754" d="M43.993,359.774H33.072c-1.416,0-2.562-1.146-2.562-2.562v-6.362c0-1.415,1.146-2.562,2.562-2.562h10.921
		c1.413,0,2.56,1.146,2.56,2.562v6.362C46.553,358.628,45.406,359.774,43.993,359.774z"/>
	<path fill="#093754" d="M64.087,359.774H53.166c-1.416,0-2.563-1.146-2.563-2.562v-6.362c0-1.415,1.146-2.562,2.563-2.562h10.921
		c1.415,0,2.562,1.146,2.562,2.562v6.362C66.648,358.628,65.502,359.774,64.087,359.774z"/>
	<path fill="#093754" d="M43.993,364.374H33.945h-0.873h-9.174h-0.875H12.977c-1.413,0-2.56,1.147-2.56,2.562v6.362
		c0,1.415,1.146,2.561,2.56,2.561h10.047h0.875h9.174h0.873h10.048c1.413,0,2.56-1.146,2.56-2.561v-6.362
		C46.553,365.521,45.406,364.374,43.993,364.374z"/>
	<path fill="#093754" d="M64.087,375.858H53.166c-1.416,0-2.563-1.146-2.563-2.561v-6.362c0-1.414,1.146-2.562,2.563-2.562h10.921
		c1.415,0,2.562,1.147,2.562,2.562v6.362C66.648,374.713,65.502,375.858,64.087,375.858z"/>
	<path fill="#093754" d="M84.18,375.858H73.26c-1.414,0-2.561-1.146-2.561-2.561v-6.362c0-1.414,1.146-2.562,2.561-2.562h10.92
		c1.416,0,2.563,1.147,2.563,2.562v6.362C86.742,374.713,85.596,375.858,84.18,375.858z"/>
	<path fill="#231F20" d="M23.898,326.629H12.977c-1.414,0-2.561-1.146-2.561-2.562v-6.362c0-1.414,1.146-2.562,2.561-2.562h10.922
		c1.414,0,2.561,1.147,2.561,2.562v6.362C26.459,325.482,25.313,326.629,23.898,326.629z"/>
	<path fill="#231F20" d="M43.992,326.629H33.07c-1.414,0-2.561-1.146-2.561-2.562v-6.362c0-1.414,1.146-2.562,2.561-2.562h10.922
		c1.414,0,2.561,1.147,2.561,2.562v6.362C46.553,325.482,45.406,326.629,43.992,326.629z"/>
	<path fill="#231F20" d="M64.086,326.629H53.164c-1.414,0-2.561-1.146-2.561-2.562v-6.362c0-1.414,1.146-2.562,2.561-2.562h10.922
		c1.414,0,2.561,1.147,2.561,2.562v6.362C66.646,325.482,65.5,326.629,64.086,326.629z"/>
	<path fill="#231F20" d="M84.18,326.629H73.258c-1.414,0-2.561-1.146-2.561-2.562v-6.362c0-1.414,1.146-2.562,2.561-2.562H84.18
		c1.414,0,2.561,1.147,2.561,2.562v6.362C86.74,325.482,85.594,326.629,84.18,326.629z"/>
	<path fill="#231F20" d="M23.898,342.714H12.977c-1.414,0-2.561-1.146-2.561-2.561v-6.363c0-1.414,1.146-2.561,2.561-2.561h10.922
		c1.414,0,2.561,1.146,2.561,2.561v6.363C26.459,341.567,25.313,342.714,23.898,342.714z"/>
	<path fill="#231F20" d="M43.992,342.714H33.07c-1.414,0-2.561-1.146-2.561-2.561v-6.363c0-1.414,1.146-2.561,2.561-2.561h10.922
		c1.414,0,2.561,1.146,2.561,2.561v6.363C46.553,341.567,45.406,342.714,43.992,342.714z"/>
	<path fill="#231F20" d="M64.086,342.714H53.164c-1.414,0-2.561-1.146-2.561-2.561v-6.363c0-1.414,1.146-2.561,2.561-2.561h10.922
		c1.414,0,2.561,1.146,2.561,2.561v6.363C66.646,341.567,65.5,342.714,64.086,342.714z"/>
	<path fill="#231F20" d="M84.18,342.714H73.258c-1.414,0-2.561-1.146-2.561-2.561v-6.363c0-1.414,1.146-2.561,2.561-2.561H84.18
		c1.414,0,2.561,1.146,2.561,2.561v6.363C86.74,341.567,85.594,342.714,84.18,342.714z"/>
	<path fill="#231F20" d="M23.898,358.8H12.977c-1.414,0-2.561-1.147-2.561-2.562v-6.363c0-1.414,1.146-2.561,2.561-2.561h10.922
		c1.414,0,2.561,1.146,2.561,2.561v6.363C26.459,357.652,25.313,358.8,23.898,358.8z"/>
	<path fill="#231F20" d="M43.992,358.8H33.07c-1.414,0-2.561-1.147-2.561-2.562v-6.363c0-1.414,1.146-2.561,2.561-2.561h10.922
		c1.414,0,2.561,1.146,2.561,2.561v6.363C46.553,357.652,45.406,358.8,43.992,358.8z"/>
	<path fill="#231F20" d="M64.086,358.8H53.164c-1.414,0-2.561-1.147-2.561-2.562v-6.363c0-1.414,1.146-2.561,2.561-2.561h10.922
		c1.414,0,2.561,1.146,2.561,2.561v6.363C66.646,357.652,65.5,358.8,64.086,358.8z"/>
	<path fill="#231F20" d="M43.992,363.399H33.676H33.07h-9.172h-1.144h-9.778c-1.414,0-2.561,1.146-2.561,2.562v6.362
		c0,1.414,1.146,2.562,2.561,2.562h9.778h1.144h9.172h0.605h10.316c1.414,0,2.561-1.147,2.561-2.562v-6.362
		C46.553,364.546,45.406,363.399,43.992,363.399z"/>
	<path fill="#231F20" d="M64.086,374.885H53.164c-1.414,0-2.561-1.147-2.561-2.562v-6.362c0-1.415,1.146-2.562,2.561-2.562h10.922
		c1.414,0,2.561,1.146,2.561,2.562v6.362C66.646,373.737,65.5,374.885,64.086,374.885z"/>
	<path fill="#206177" d="M84.396,300.805H12.762c-1.296,0-2.345-1.05-2.345-2.344v-19.806c0-1.295,1.049-2.346,2.345-2.346h71.635
		c1.295,0,2.346,1.051,2.346,2.346v19.806C86.742,299.755,85.691,300.805,84.396,300.805z"/>
	<path fill="#D1D3D4" d="M12.762,300.141c-0.928,0-1.684-0.753-1.684-1.68v-19.806c0-0.928,0.756-1.682,1.684-1.682h71.636
		c0.927,0,1.681,0.754,1.681,1.682v19.806c0,0.927-0.754,1.68-1.681,1.68H12.762z"/>
	<path fill="#093754" d="M74.746,309.677h9.061c1.268,0,2.295-1.028,2.295-2.295v-0.674c0-1.267-1.027-2.295-2.295-2.295h-9.061
		c-1.268,0-2.295,1.028-2.295,2.295v0.674C72.451,308.648,73.479,309.677,74.746,309.677z"/>
	<path fill="#093754" d="M58.258,309.677h9.062c1.267,0,2.295-1.028,2.295-2.295v-0.674c0-1.267-1.028-2.295-2.295-2.295h-9.062
		c-1.268,0-2.295,1.028-2.295,2.295v0.674C55.963,308.648,56.99,309.677,58.258,309.677z"/>
	<path fill="#F7941E" d="M75.36,310.13h9.061c1.269,0,2.296-1.027,2.296-2.295v-0.673c0-1.268-1.027-2.295-2.296-2.295H75.36
		c-1.269,0-2.296,1.027-2.296,2.295v0.673C73.064,309.103,74.092,310.13,75.36,310.13z"/>
	<path fill="#27AAE1" d="M58.871,310.13h9.062c1.269,0,2.296-1.027,2.296-2.295v-0.673c0-1.268-1.027-2.295-2.296-2.295h-9.062
		c-1.267,0-2.295,1.027-2.295,2.295v0.673C56.576,309.103,57.604,310.13,58.871,310.13z"/>
	<text transform="matrix(1 0 0 1 19.6924 294.1289)" fill="#206177" font-family="'Lato-Light'" font-size="15.3479">543210</text>
	<g>
		<path fill="#BCBEC0" d="M14.596,356.608h1.498v-4.466c0-0.173,0.005-0.354,0.016-0.546l-1.064,0.922
			c-0.045,0.039-0.089,0.065-0.135,0.08c-0.046,0.014-0.092,0.021-0.136,0.021c-0.068,0-0.13-0.016-0.187-0.045
			c-0.056-0.03-0.098-0.064-0.125-0.104l-0.398-0.566l2.255-1.986h1.038v6.69h1.33v0.98h-4.092V356.608z"/>
		<path fill="#BCBEC0" d="M37.758,349.881c0.34,0,0.652,0.052,0.936,0.156c0.283,0.104,0.525,0.251,0.727,0.442
			c0.201,0.19,0.357,0.42,0.47,0.688s0.169,0.567,0.169,0.896c0,0.282-0.04,0.544-0.12,0.783c-0.081,0.24-0.187,0.471-0.323,0.689
			c-0.135,0.219-0.291,0.431-0.472,0.636c-0.182,0.205-0.37,0.413-0.569,0.624l-1.666,1.766c0.164-0.05,0.324-0.088,0.48-0.114
			c0.158-0.026,0.307-0.04,0.45-0.04h1.897c0.137,0,0.245,0.04,0.324,0.119c0.08,0.08,0.121,0.185,0.121,0.315v0.783h-5.073v-0.434
			c0-0.088,0.019-0.181,0.054-0.274c0.036-0.097,0.094-0.185,0.172-0.266l2.244-2.332c0.188-0.197,0.355-0.386,0.504-0.566
			s0.271-0.358,0.373-0.535s0.178-0.355,0.23-0.537s0.079-0.373,0.079-0.575c0-0.184-0.024-0.345-0.077-0.484
			c-0.051-0.14-0.123-0.257-0.219-0.353s-0.21-0.167-0.341-0.215c-0.131-0.047-0.278-0.071-0.442-0.071
			c-0.303,0-0.553,0.08-0.749,0.238c-0.196,0.159-0.333,0.373-0.411,0.642c-0.037,0.135-0.094,0.23-0.17,0.288
			c-0.074,0.059-0.17,0.088-0.285,0.088c-0.052,0-0.107-0.006-0.169-0.017l-0.665-0.122c0.051-0.366,0.15-0.689,0.297-0.966
			c0.146-0.277,0.33-0.509,0.55-0.694s0.472-0.325,0.757-0.419S37.43,349.881,37.758,349.881z"/>
		<path fill="#BCBEC0" d="M57.433,349.839c0.341,0,0.649,0.05,0.924,0.15s0.509,0.24,0.703,0.419
			c0.193,0.178,0.343,0.387,0.446,0.627c0.104,0.241,0.156,0.5,0.156,0.779c0,0.243-0.026,0.457-0.079,0.644
			c-0.052,0.185-0.13,0.347-0.229,0.484c-0.102,0.139-0.224,0.254-0.369,0.351c-0.145,0.095-0.309,0.175-0.493,0.237
			c0.442,0.145,0.774,0.365,0.991,0.662c0.219,0.297,0.328,0.67,0.328,1.118c0,0.382-0.068,0.719-0.205,1.012
			s-0.32,0.54-0.552,0.739c-0.231,0.2-0.5,0.351-0.805,0.453c-0.306,0.102-0.628,0.153-0.97,0.153c-0.371,0-0.695-0.045-0.972-0.133
			s-0.517-0.219-0.722-0.392c-0.203-0.173-0.377-0.385-0.521-0.636c-0.143-0.251-0.266-0.54-0.367-0.869l0.557-0.238
			c0.096-0.042,0.193-0.063,0.293-0.063c0.088,0,0.167,0.02,0.236,0.059c0.07,0.039,0.124,0.096,0.162,0.17
			c0.061,0.123,0.129,0.244,0.201,0.364c0.074,0.121,0.161,0.228,0.264,0.321c0.102,0.093,0.223,0.17,0.36,0.228
			s0.303,0.088,0.493,0.088c0.215,0,0.402-0.036,0.563-0.109c0.159-0.071,0.294-0.166,0.401-0.283
			c0.107-0.116,0.187-0.247,0.24-0.389c0.053-0.144,0.078-0.287,0.078-0.433c0-0.183-0.018-0.351-0.056-0.501
			c-0.038-0.149-0.116-0.277-0.235-0.384c-0.119-0.105-0.291-0.188-0.514-0.248c-0.224-0.061-0.521-0.091-0.896-0.091v-0.937
			c0.309,0,0.566-0.029,0.771-0.086c0.204-0.056,0.367-0.135,0.488-0.235s0.205-0.222,0.253-0.362
			c0.048-0.142,0.071-0.297,0.071-0.467c0-0.364-0.095-0.639-0.285-0.823c-0.192-0.187-0.453-0.278-0.783-0.278
			c-0.301,0-0.549,0.081-0.747,0.246c-0.197,0.163-0.336,0.375-0.415,0.632c-0.039,0.135-0.096,0.23-0.168,0.289
			c-0.07,0.058-0.165,0.087-0.281,0.087c-0.055,0-0.111-0.006-0.174-0.016l-0.664-0.12c0.051-0.368,0.15-0.689,0.297-0.967
			c0.146-0.278,0.329-0.509,0.55-0.695c0.22-0.185,0.472-0.324,0.757-0.418C56.799,349.886,57.105,349.839,57.433,349.839z"/>
		<path fill="#BCBEC0" d="M18.26,338.829h0.93v0.758c0,0.07-0.021,0.131-0.066,0.183c-0.043,0.05-0.109,0.076-0.193,0.076h-0.67
			v1.87h-1.104v-1.87h-3.12c-0.084,0-0.159-0.026-0.225-0.082c-0.064-0.054-0.105-0.122-0.123-0.204l-0.127-0.662l3.503-4.848h1.196
			V338.829z M17.155,336.323c0-0.113,0.004-0.235,0.011-0.365c0.006-0.131,0.018-0.268,0.035-0.409l-2.296,3.28h2.25V336.323z"/>
		<path fill="#BCBEC0" d="M39.854,334.567c0,0.187-0.057,0.338-0.17,0.455c-0.115,0.117-0.305,0.175-0.57,0.175h-2.037l-0.265,1.601
			c0.333-0.071,0.64-0.106,0.915-0.106c0.389,0,0.73,0.061,1.025,0.18c0.295,0.12,0.543,0.286,0.744,0.499
			c0.201,0.211,0.353,0.46,0.455,0.744c0.102,0.283,0.154,0.59,0.154,0.918c0,0.407-0.07,0.778-0.209,1.113
			c-0.137,0.336-0.328,0.622-0.574,0.859c-0.245,0.24-0.536,0.424-0.871,0.555c-0.336,0.131-0.702,0.195-1.098,0.195
			c-0.232,0-0.451-0.023-0.66-0.073c-0.207-0.05-0.402-0.116-0.586-0.199c-0.182-0.082-0.35-0.178-0.506-0.285
			c-0.154-0.107-0.294-0.222-0.416-0.343l0.389-0.556c0.082-0.12,0.191-0.18,0.327-0.18c0.085,0,0.171,0.028,0.259,0.084
			c0.086,0.058,0.188,0.118,0.303,0.187c0.117,0.066,0.251,0.129,0.404,0.185c0.154,0.058,0.34,0.085,0.558,0.085
			c0.231,0,0.437-0.039,0.614-0.117c0.177-0.077,0.324-0.186,0.442-0.325c0.116-0.14,0.206-0.306,0.266-0.498s0.09-0.402,0.09-0.628
			c0-0.416-0.117-0.742-0.351-0.977c-0.232-0.234-0.577-0.353-1.031-0.353c-0.357,0-0.717,0.067-1.078,0.201l-0.787-0.233
			l0.613-3.719h3.65V334.567z"/>
		<path fill="#BCBEC0" d="M57.653,336.888c0.278,0,0.551,0.047,0.815,0.143c0.264,0.096,0.496,0.239,0.697,0.432
			c0.201,0.193,0.363,0.433,0.486,0.718c0.123,0.287,0.184,0.62,0.184,1.001c0,0.356-0.063,0.691-0.189,1.005
			c-0.126,0.312-0.303,0.585-0.531,0.818c-0.229,0.232-0.504,0.416-0.826,0.551c-0.322,0.134-0.678,0.2-1.066,0.2
			c-0.395,0-0.75-0.064-1.063-0.195c-0.313-0.131-0.582-0.313-0.804-0.549c-0.222-0.234-0.391-0.517-0.509-0.847
			c-0.117-0.33-0.176-0.696-0.176-1.099c0-0.361,0.07-0.73,0.211-1.111c0.143-0.379,0.361-0.774,0.658-1.184l1.764-2.452
			c0.063-0.085,0.15-0.158,0.27-0.218c0.117-0.06,0.253-0.09,0.406-0.09h1.125l-2.193,2.781c-0.049,0.061-0.094,0.117-0.137,0.169
			c-0.043,0.054-0.084,0.108-0.125,0.165c0.144-0.075,0.298-0.132,0.463-0.176C57.278,336.909,57.459,336.888,57.653,336.888z
			 M55.884,339.267c0,0.211,0.028,0.404,0.085,0.579c0.055,0.175,0.139,0.323,0.25,0.448c0.11,0.123,0.248,0.22,0.412,0.288
			c0.163,0.069,0.352,0.104,0.566,0.104c0.201,0,0.387-0.035,0.555-0.106c0.17-0.07,0.314-0.17,0.436-0.297
			c0.12-0.127,0.215-0.275,0.283-0.446c0.068-0.173,0.103-0.358,0.103-0.56c0-0.219-0.032-0.416-0.097-0.591
			s-0.158-0.323-0.276-0.444c-0.12-0.123-0.263-0.215-0.431-0.278c-0.166-0.063-0.35-0.096-0.551-0.096s-0.385,0.036-0.547,0.105
			c-0.164,0.071-0.306,0.169-0.422,0.295c-0.118,0.125-0.209,0.272-0.271,0.445C55.914,338.884,55.884,339.067,55.884,339.267z"/>
		<path fill="#BCBEC0" d="M20.193,318.311v0.566c0,0.169-0.018,0.307-0.053,0.41c-0.037,0.104-0.072,0.192-0.105,0.263l-2.798,5.976
			c-0.058,0.124-0.14,0.229-0.245,0.315s-0.25,0.13-0.43,0.13h-0.914l2.863-5.854c0.119-0.241,0.252-0.447,0.398-0.62h-3.539
			c-0.078,0-0.146-0.03-0.205-0.09c-0.058-0.061-0.087-0.131-0.087-0.213v-0.884H20.193z"/>
		<path fill="#BCBEC0" d="M37.646,326.055c-0.382,0-0.73-0.052-1.046-0.158c-0.316-0.106-0.585-0.256-0.811-0.45
			c-0.225-0.194-0.4-0.43-0.523-0.704c-0.125-0.276-0.188-0.584-0.188-0.923c0-0.452,0.107-0.834,0.322-1.146
			s0.549-0.545,1.002-0.697c-0.361-0.155-0.631-0.376-0.811-0.662c-0.178-0.286-0.268-0.63-0.268-1.033
			c0-0.289,0.057-0.559,0.17-0.81c0.115-0.251,0.274-0.47,0.479-0.654c0.204-0.186,0.448-0.33,0.733-0.435s0.598-0.156,0.938-0.156
			s0.653,0.052,0.938,0.156s0.529,0.249,0.733,0.435c0.204,0.185,0.364,0.403,0.479,0.654c0.112,0.251,0.17,0.521,0.17,0.81
			c0,0.403-0.09,0.747-0.271,1.033s-0.45,0.507-0.808,0.662c0.453,0.152,0.787,0.385,1.001,0.697
			c0.216,0.313,0.323,0.694,0.323,1.146c0,0.339-0.063,0.646-0.187,0.923c-0.126,0.274-0.3,0.51-0.524,0.704
			c-0.226,0.194-0.496,0.344-0.811,0.45C38.376,326.003,38.027,326.055,37.646,326.055z M37.646,325.032
			c0.208,0,0.39-0.03,0.547-0.092c0.157-0.063,0.289-0.148,0.396-0.258s0.188-0.24,0.243-0.392c0.055-0.152,0.082-0.315,0.082-0.493
			c0-0.419-0.113-0.737-0.338-0.952c-0.226-0.216-0.535-0.323-0.931-0.323s-0.706,0.107-0.931,0.323
			c-0.225,0.215-0.338,0.533-0.338,0.952c0,0.178,0.027,0.341,0.082,0.493c0.055,0.151,0.135,0.282,0.242,0.392
			c0.108,0.109,0.24,0.195,0.396,0.258C37.254,325.002,37.438,325.032,37.646,325.032z M37.646,321.494
			c0.204,0,0.377-0.033,0.517-0.101c0.14-0.066,0.252-0.156,0.337-0.268s0.146-0.238,0.182-0.382
			c0.036-0.143,0.054-0.29,0.054-0.442c0-0.144-0.021-0.282-0.066-0.413s-0.111-0.246-0.199-0.347
			c-0.09-0.101-0.201-0.182-0.337-0.241c-0.137-0.06-0.3-0.09-0.486-0.09c-0.188,0-0.35,0.03-0.485,0.09
			c-0.138,0.06-0.25,0.141-0.34,0.241c-0.092,0.101-0.158,0.216-0.199,0.347c-0.043,0.131-0.064,0.27-0.064,0.413
			c0,0.152,0.018,0.3,0.054,0.442c0.036,0.144,0.097,0.271,0.181,0.382c0.086,0.111,0.197,0.201,0.338,0.268
			C37.269,321.461,37.44,321.494,37.646,321.494z"/>
		<path fill="#BCBEC0" d="M58.014,322.956c-0.256,0-0.506-0.046-0.752-0.138s-0.465-0.229-0.656-0.416
			c-0.193-0.186-0.348-0.414-0.463-0.688c-0.117-0.273-0.174-0.595-0.174-0.962c0-0.343,0.061-0.664,0.184-0.964
			c0.123-0.301,0.295-0.563,0.518-0.789c0.221-0.226,0.486-0.404,0.797-0.535c0.31-0.131,0.652-0.195,1.027-0.195
			c0.379,0,0.719,0.062,1.021,0.185c0.301,0.124,0.559,0.297,0.771,0.52c0.213,0.222,0.376,0.489,0.49,0.799
			c0.115,0.312,0.172,0.652,0.172,1.023c0,0.236-0.02,0.461-0.059,0.673s-0.096,0.416-0.17,0.611
			c-0.072,0.196-0.16,0.387-0.262,0.572c-0.104,0.186-0.217,0.372-0.344,0.559l-1.692,2.501c-0.058,0.085-0.144,0.156-0.259,0.214
			c-0.113,0.059-0.244,0.088-0.391,0.088h-1.161l2.297-2.972c0.058-0.074,0.112-0.146,0.163-0.217
			c0.051-0.071,0.101-0.143,0.148-0.212c-0.17,0.112-0.357,0.197-0.563,0.257C58.453,322.927,58.238,322.956,58.014,322.956z
			 M59.736,320.662c0-0.208-0.029-0.394-0.092-0.56c-0.061-0.163-0.147-0.302-0.26-0.415c-0.113-0.113-0.246-0.2-0.402-0.26
			c-0.154-0.06-0.324-0.09-0.508-0.09c-0.191,0-0.363,0.032-0.517,0.099c-0.153,0.064-0.284,0.156-0.392,0.272
			s-0.189,0.255-0.248,0.415c-0.059,0.161-0.087,0.337-0.087,0.527c0,0.428,0.106,0.753,0.319,0.978s0.516,0.337,0.908,0.337
			c0.204,0,0.385-0.034,0.545-0.102c0.158-0.066,0.291-0.158,0.4-0.274c0.109-0.117,0.191-0.255,0.248-0.414
			C59.709,321.018,59.736,320.845,59.736,320.662z"/>
	</g>
	<path fill="#231F20" d="M86.74,349.875c0-1.414-1.146-2.561-2.561-2.561H73.26c-1.416,0-2.563,1.146-2.563,2.561v22.448
		c0,1.414,1.146,2.562,2.563,2.562h10.92c1.414,0,2.561-1.147,2.561-2.562V349.875z"/>
	<rect x="23.93" y="368.268" fill="#BCBEC0" width="6.58" height="1.749"/>
	<g>
		<rect x="75.43" y="357.925" fill="#BCBEC0" width="6.58" height="1.748"/>
		<rect x="75.43" y="362.525" fill="#BCBEC0" width="6.58" height="1.749"/>
	</g>
	<polygon fill="#BCBEC0" points="61.916,368.268 59.5,368.268 59.5,365.852 57.752,365.852 57.752,368.268 55.336,368.268 
		55.336,370.017 57.752,370.017 57.752,372.432 59.5,372.432 59.5,370.017 61.916,370.017 	"/>
	<g>
		<path fill="#BCBEC0" d="M79.557,320.042c0,0.266-0.045,0.505-0.135,0.719c-0.088,0.215-0.207,0.396-0.355,0.547
			c-0.15,0.15-0.322,0.268-0.52,0.348c-0.199,0.08-0.403,0.121-0.617,0.121c-0.233,0-0.449-0.041-0.646-0.121
			c-0.198-0.08-0.369-0.197-0.513-0.348s-0.257-0.332-0.337-0.547c-0.082-0.214-0.122-0.453-0.122-0.719
			c0-0.271,0.04-0.518,0.122-0.738c0.08-0.221,0.193-0.407,0.337-0.559c0.144-0.152,0.314-0.271,0.513-0.353
			c0.197-0.082,0.413-0.124,0.646-0.124c0.232,0,0.449,0.042,0.647,0.124c0.2,0.082,0.372,0.2,0.519,0.353
			c0.146,0.151,0.259,0.338,0.34,0.559C79.516,319.524,79.557,319.771,79.557,320.042z M81.893,318.531
			c0.04-0.049,0.088-0.092,0.146-0.132c0.059-0.039,0.139-0.058,0.243-0.058h0.87l-5.219,6.845
			c-0.039,0.052-0.088,0.095-0.147,0.129c-0.062,0.034-0.133,0.051-0.217,0.051h-0.894L81.893,318.531z M78.629,320.042
			c0-0.188-0.018-0.345-0.054-0.471c-0.035-0.128-0.085-0.229-0.148-0.307s-0.138-0.135-0.223-0.168
			c-0.086-0.033-0.178-0.051-0.274-0.051c-0.098,0-0.188,0.018-0.272,0.051c-0.085,0.033-0.157,0.091-0.219,0.168
			s-0.11,0.179-0.144,0.307c-0.034,0.126-0.051,0.283-0.051,0.471c0,0.182,0.017,0.333,0.051,0.455
			c0.033,0.12,0.082,0.219,0.144,0.293c0.062,0.075,0.134,0.128,0.219,0.16c0.084,0.033,0.175,0.049,0.272,0.049
			c0.097,0,0.188-0.016,0.274-0.049c0.085-0.032,0.159-0.085,0.223-0.16c0.063-0.074,0.113-0.173,0.148-0.293
			C78.611,320.375,78.629,320.224,78.629,320.042z M83.521,323.715c0,0.266-0.045,0.505-0.135,0.719
			c-0.088,0.214-0.207,0.396-0.356,0.547s-0.321,0.267-0.521,0.35c-0.197,0.082-0.402,0.124-0.617,0.124
			c-0.232,0-0.447-0.042-0.646-0.124c-0.197-0.083-0.368-0.199-0.513-0.35s-0.256-0.333-0.338-0.547
			c-0.08-0.214-0.121-0.453-0.121-0.719c0-0.271,0.041-0.518,0.121-0.738c0.082-0.22,0.193-0.407,0.338-0.559
			c0.145-0.152,0.315-0.271,0.513-0.353c0.198-0.082,0.413-0.124,0.646-0.124c0.234,0,0.45,0.042,0.649,0.124s0.372,0.2,0.519,0.353
			c0.145,0.151,0.258,0.339,0.339,0.559C83.48,323.197,83.521,323.443,83.521,323.715z M82.598,323.715
			c0-0.188-0.018-0.345-0.056-0.471c-0.037-0.128-0.087-0.229-0.15-0.307c-0.063-0.078-0.138-0.134-0.224-0.168
			c-0.086-0.033-0.178-0.05-0.275-0.05c-0.096,0-0.188,0.017-0.271,0.05c-0.085,0.034-0.157,0.09-0.218,0.168
			c-0.059,0.077-0.107,0.179-0.143,0.307c-0.035,0.126-0.053,0.283-0.053,0.471c0,0.181,0.018,0.333,0.053,0.457
			c0.035,0.122,0.084,0.222,0.143,0.296c0.061,0.075,0.133,0.129,0.218,0.16c0.083,0.033,0.175,0.05,0.271,0.05
			c0.098,0,0.189-0.017,0.275-0.05c0.086-0.031,0.16-0.085,0.224-0.16c0.063-0.074,0.113-0.174,0.15-0.296
			C82.58,324.048,82.598,323.896,82.598,323.715z"/>
	</g>
	<g>
		<path fill="#BCBEC0" d="M78.307,339.354v-1.284c0-0.094,0.005-0.186,0.018-0.273c0.011-0.089,0.031-0.174,0.059-0.253
			c-0.051,0.066-0.112,0.124-0.182,0.176c-0.07,0.051-0.146,0.103-0.225,0.154l-1.109,0.645l-0.414-0.701l1.116-0.645
			c0.084-0.052,0.167-0.094,0.249-0.128c0.082-0.032,0.167-0.056,0.256-0.069c-0.089-0.01-0.174-0.033-0.256-0.07
			s-0.165-0.082-0.249-0.134l-1.116-0.653l0.407-0.701l1.116,0.659c0.078,0.052,0.156,0.104,0.228,0.158
			c0.073,0.055,0.135,0.114,0.187,0.18c-0.033-0.079-0.056-0.163-0.066-0.253c-0.013-0.09-0.018-0.18-0.018-0.274v-1.297h0.828
			v1.284c0,0.098-0.006,0.192-0.018,0.283c-0.012,0.092-0.034,0.178-0.068,0.257c0.053-0.065,0.113-0.125,0.184-0.18
			c0.07-0.054,0.146-0.106,0.231-0.158l1.108-0.646l0.414,0.702l-1.115,0.639c-0.084,0.052-0.167,0.095-0.25,0.13
			c-0.08,0.035-0.166,0.06-0.256,0.074c0.16,0.027,0.328,0.094,0.506,0.197l1.115,0.652l-0.406,0.701l-1.116-0.652
			c-0.085-0.052-0.161-0.104-0.231-0.154c-0.07-0.052-0.133-0.109-0.189-0.176c0.061,0.149,0.092,0.323,0.092,0.52v1.291H78.307z"/>
	</g>
</g>
<g>
	<g>
		<g>
			<g>
				<path fill="#F8C59A" d="M265.898,358.944l1.849-40.548l19.938-54.822c0.168-0.465,0.68-0.706,1.146-0.541l0,0
					c3.01,1.063,4.746,4.21,4.043,7.323l-9.332,41.255l11.445-28.716l18.852-26.816c1.373-1.953,4.177-2.192,5.863-0.503
					l0.064,0.065c1.273,1.276,1.531,3.218,0.641,4.761c-4.223,7.318-15.881,27.495-15.881,27.495l-6.031,27.631l12.822-28.509
					l20.159-34.443c1.071-1.83,3.515-2.286,5.175-0.969l0.066,0.053c1.307,1.037,1.73,2.807,1.033,4.303
					c-4.02,8.637-16.881,36.33-16.881,36.33l-8.56,31.854l19.054-37.148l19.146-25.42c0.285-0.447,0.891-0.559,1.314-0.242l0,0
					c2.354,1.753,3.161,4.912,1.936,7.578l-14.207,30.94l-5.097,23.784l12.454-18.677l4.419-4.996
					c1.978-2.235,5.667-0.739,5.529,2.242l-0.194,4.204c-0.299,6.475-2.135,12.784-5.356,18.408l-22.839,33.528l-26.85,26.734
					l-36.131,49.423l-37.773-23.398L265.898,358.944z"/>
				<g>
					<path fill="#E2A97F" d="M334.949,251.526l0.066,0.052c1.309,1.038,1.731,2.808,1.035,4.304
						c-4.021,8.636-16.882,36.33-16.882,36.33l-8.56,31.854l3.62-7.059l6.642-24.715c0,0,12.861-27.693,16.881-36.33
						c0.697-1.496,0.273-3.266-1.033-4.303l-0.066-0.053c-0.85-0.674-1.902-0.878-2.873-0.677
						C334.19,251.054,334.591,251.24,334.949,251.526z"/>
					<path fill="#E2A97F" d="M352.062,268.832l-14.208,30.941l-5.098,23.783l2.533-3.798l4.266-19.904l14.207-30.94
						c1.226-2.666,0.418-5.825-1.934-7.578c-0.426-0.316-1.031-0.205-1.316,0.242l-0.01,0.012
						C352.547,263.388,353.215,266.321,352.062,268.832z"/>
					<path fill="#E2A97F" d="M318.001,255.494l0.065,0.066c1.272,1.275,1.529,3.217,0.64,4.76
						c-4.222,7.319-15.88,27.496-15.88,27.496l-6.031,27.631l3.34-7.43l4.393-20.12c0,0,11.658-20.177,15.881-27.495
						c0.891-1.543,0.633-3.484-0.641-4.761l-0.064-0.065c-0.933-0.935-2.203-1.258-3.387-1.049
						C316.93,254.698,317.514,255.007,318.001,255.494z"/>
					<path fill="#E2A97F" d="M291.174,270.275l-9.332,41.254l3.977-9.978l7.057-31.195c0.705-3.113-1.033-6.261-4.043-7.323
						c-0.356-0.126-0.736-0.012-0.973,0.255C290.404,264.572,291.816,267.429,291.174,270.275z"/>
				</g>
			</g>
			<path fill="#FFD8BB" d="M273.281,351.525c0,0-4.876-23.08,1.395-29.177c6.269-6.096,9.928-6.702,7.049,0.338
				c-2.878,7.039-6.154,5.849-5.07,12.962C277.738,342.761,276.01,351.908,273.281,351.525z"/>
		</g>
		<path fill="#E2A97F" d="M352.967,298.978c1.256,0.409,2.265,1.565,2.191,3.149l-0.193,4.203
			c-0.299,6.475-2.136,12.785-5.357,18.409l-22.839,33.528l-22.52,22.421c-0.829-0.77-1.692-1.53-2.638-2.266
			c-5.57-4.327-35.68-20.153-35.68-20.153c2.904,1.052,5.959,2.792,8.951,5.117c4.536,3.525,17.934,13.935,23.503,18.262
			c0.942,0.732,1.804,1.492,2.631,2.26l-1.099,1.094l-35.641,48.752l1.213,0.752l36.131-49.423l2.291-2.282l1.258-1.252l0,0
			l23.301-23.2l22.839-33.528c3.222-5.624,5.058-11.934,5.356-18.408l0.194-4.205C356.965,299.938,354.854,298.536,352.967,298.978z
			"/>
	</g>
	<g>
		<path fill="#FFEADC" d="M287.914,264.632c-0.111-0.003-1.727,3.173-1.232,4.054c0.493,0.882,2.537,1.269,3.172,0.6
			c0.635-0.67,0.6-2.645,0.212-3.313C289.678,265.301,288.523,264.647,287.914,264.632z"/>
		<path fill="#FFEADC" d="M315.426,255.107c-0.107-0.029-2.42,2.682-2.146,3.654c0.275,0.973,2.172,1.826,2.945,1.323
			s1.2-2.431,0.979-3.173C316.982,256.171,316.013,255.266,315.426,255.107z"/>
		<path fill="#FFEADC" d="M333.418,251.902c-0.107-0.028-2.42,2.683-2.145,3.655c0.273,0.972,2.171,1.826,2.944,1.323
			c0.772-0.504,1.2-2.432,0.979-3.174C334.977,252.967,334.006,252.061,333.418,251.902z"/>
		<path fill="#FFEADC" d="M350.213,262.982c-0.107-0.029-2.42,2.682-2.146,3.653c0.274,0.973,2.173,1.826,2.946,1.323
			c0.773-0.504,1.199-2.432,0.978-3.173C351.771,264.045,350.801,263.139,350.213,262.982z"/>
		<path fill="#FFEADC" d="M351.468,301.789c-0.176-0.047-3.962,4.391-3.513,5.982s3.556,2.989,4.822,2.166
			c1.266-0.824,1.963-3.98,1.602-5.194C354.018,303.528,352.43,302.047,351.468,301.789z"/>
	</g>
</g>
<g>
	<g>
		<g>
			<g>
				<path fill="#F8C59A" d="M510.033,369.855l-1.846-40.549l-19.939-54.822c-0.168-0.464-0.68-0.705-1.146-0.541l0,0
					c-3.01,1.063-4.746,4.211-4.043,7.324l9.33,41.254l-11.443-28.715l-18.852-26.816c-1.373-1.953-4.176-2.193-5.863-0.504
					l-0.064,0.066c-1.273,1.275-1.531,3.217-0.641,4.76c4.223,7.318,15.881,27.496,15.881,27.496l6.031,27.631l-12.822-28.51
					l-20.16-34.442c-1.07-1.83-3.514-2.286-5.174-0.969l-0.066,0.052c-1.307,1.038-1.73,2.808-1.033,4.304
					c4.02,8.636,16.881,36.33,16.881,36.33l8.559,31.854l-19.053-37.149l-19.146-25.42c-0.285-0.447-0.891-0.559-1.316-0.241l0,0
					c-2.354,1.752-3.158,4.911-1.936,7.577l14.207,30.941l5.1,23.783l-12.455-18.676l-4.42-4.996
					c-1.977-2.235-5.666-0.74-5.529,2.242l0.195,4.203c0.299,6.475,2.135,12.784,5.355,18.409l22.84,33.528l26.852,26.734
					l36.129,49.422l37.773-23.397L510.033,369.855z"/>
				<g>
					<path fill="#E2A97F" d="M440.982,262.438l-0.066,0.052c-1.307,1.038-1.73,2.808-1.033,4.304
						c4.02,8.636,16.881,36.33,16.881,36.33l8.561,31.854l-3.621-7.058l-6.641-24.715c0,0-12.861-27.694-16.881-36.33
						c-0.697-1.496-0.273-3.266,1.033-4.304l0.066-0.052c0.85-0.675,1.902-0.878,2.873-0.677
						C441.742,261.965,441.344,262.152,440.982,262.438z"/>
					<path fill="#E2A97F" d="M423.871,279.743l14.209,30.94l5.098,23.784l-2.533-3.798l-4.268-19.904l-14.207-30.941
						c-1.223-2.666-0.418-5.825,1.936-7.577c0.426-0.317,1.031-0.206,1.316,0.241l0.008,0.013
						C423.387,274.299,422.719,277.232,423.871,279.743z"/>
					<path fill="#E2A97F" d="M457.932,266.406l-0.064,0.064c-1.273,1.275-1.531,3.218-0.641,4.761
						c4.223,7.318,15.881,27.495,15.881,27.495l6.031,27.631l-3.342-7.429l-4.391-20.12c0,0-11.658-20.178-15.881-27.496
						c-0.891-1.543-0.633-3.484,0.641-4.76l0.064-0.066c0.932-0.934,2.201-1.257,3.387-1.049
						C459.004,265.609,458.42,265.918,457.932,266.406z"/>
					<path fill="#E2A97F" d="M484.76,281.186l9.332,41.255l-3.977-9.978l-7.057-31.195c-0.703-3.113,1.033-6.261,4.043-7.324
						c0.355-0.126,0.736-0.011,0.973,0.256C485.529,275.482,484.117,278.34,484.76,281.186z"/>
				</g>
			</g>
			<path fill="#FFD8BB" d="M502.652,362.436c0,0,4.875-23.08-1.395-29.176s-9.928-6.702-7.049,0.338
				c2.879,7.039,6.152,5.849,5.068,12.961C498.195,353.672,499.924,362.818,502.652,362.436z"/>
		</g>
		<path fill="#E2A97F" d="M422.967,309.889c-1.258,0.409-2.266,1.565-2.191,3.149l0.193,4.203
			c0.299,6.474,2.135,12.784,5.357,18.409l22.838,33.527l22.52,22.422c0.828-0.77,1.693-1.531,2.639-2.266
			c5.568-4.328,35.682-20.154,35.682-20.154c-2.906,1.053-5.961,2.793-8.953,5.117c-4.537,3.525-17.934,13.936-23.504,18.263
			c-0.941,0.732-1.803,1.491-2.629,2.26l1.098,1.093l35.641,48.753l-1.213,0.751l-36.129-49.422l-2.293-2.282l-1.258-1.252l0,0
			l-23.301-23.2l-22.84-33.528c-3.221-5.625-5.057-11.935-5.355-18.409l-0.195-4.204C418.969,310.85,421.08,309.446,422.967,309.889
			z"/>
	</g>
	<g>
		<path fill="#FFEADC" d="M488.018,275.543c0.111-0.003,1.729,3.172,1.234,4.053c-0.492,0.882-2.537,1.27-3.172,0.6
			c-0.635-0.669-0.6-2.643-0.213-3.313C486.256,276.212,487.41,275.559,488.018,275.543z"/>
		<path fill="#FFEADC" d="M460.508,266.019c0.107-0.029,2.42,2.682,2.146,3.654c-0.275,0.972-2.174,1.826-2.947,1.323
			c-0.771-0.504-1.199-2.432-0.979-3.173C458.951,267.081,459.92,266.177,460.508,266.019z"/>
		<path fill="#FFEADC" d="M442.516,262.814c0.107-0.029,2.42,2.682,2.145,3.654c-0.273,0.971-2.172,1.826-2.945,1.322
			s-1.199-2.431-0.979-3.172C440.957,263.876,441.928,262.972,442.516,262.814z"/>
		<path fill="#FFEADC" d="M425.719,273.893c0.109-0.028,2.42,2.683,2.146,3.654c-0.273,0.973-2.172,1.826-2.945,1.322
			c-0.773-0.502-1.199-2.431-0.979-3.172C424.162,274.955,425.133,274.05,425.719,273.893z"/>
		<path fill="#FFEADC" d="M424.465,312.7c0.176-0.047,3.961,4.391,3.514,5.981c-0.449,1.592-3.557,2.99-4.822,2.166
			c-1.266-0.823-1.963-3.979-1.602-5.193C421.916,314.439,423.504,312.958,424.465,312.7z"/>
	</g>
</g>
<g>
	<path fill="#155073" d="M298.386,381.648c-5.569-4.327-18.967-14.736-23.503-18.262c-8.473-6.584-17.479-8.594-22.008-3.041
		c-4.529,5.551-2.918,11.354-2.918,11.354L142.385,509.779l46.88,36.428l107.224-138.351c0,0,6.021,0.127,10.281-5.633
		C311.031,396.462,306.857,388.232,298.386,381.648z"/>
	<path fill="#155073" d="M298.386,381.648c-5.569-4.327-18.967-14.736-23.503-18.262c-8.473-6.584-17.479-8.594-22.008-3.041
		c-4.529,5.551-2.918,11.354-2.918,11.354L142.385,509.779l46.88,36.428l107.224-138.351c0,0,6.021,0.127,10.281-5.633
		C311.031,396.462,306.857,388.232,298.386,381.648z"/>
	<path fill="#155073" d="M298.386,381.648c-5.569-4.327-18.967-14.736-23.503-18.262c-8.473-6.584-17.479-8.594-22.008-3.041
		c-4.529,5.551-2.918,11.354-2.918,11.354L142.385,509.779l46.88,36.428l107.224-138.351c0,0,6.021,0.127,10.281-5.633
		C311.031,396.462,306.857,388.232,298.386,381.648z"/>
	<path fill="#093754" d="M306.77,402.224c4.262-5.761,0.088-13.991-8.384-20.575c-1.819-1.413-4.479-3.48-7.39-5.741
		c6.811,6.183,9.816,13.362,5.983,18.546c-4.261,5.76-10.282,5.633-10.282,5.633l-107.223,138.35l-37.012-28.758l-0.078,0.102
		l46.88,36.428l107.224-138.351C296.488,407.856,302.509,407.983,306.77,402.224z"/>
</g>
<g>
	<path fill="#155073" d="M499.764,374.271c-5.441,4.486-18.531,15.279-22.965,18.934c-8.277,6.825-12.211,15.173-7.785,20.809
		c4.426,5.635,10.441,5.334,10.441,5.334l111.18,135.19l45.807-37.769L524.92,381.86c0,0,1.443-5.849-3.246-11.267
		C516.986,365.176,508.043,367.445,499.764,374.271z"/>
	<path fill="#093754" d="M521.674,370.594c-4.688-5.418-13.631-3.148-21.91,3.678c-1.777,1.466-4.377,3.608-7.219,5.952
		c7.523-5.29,15.186-6.653,19.404-1.778c4.688,5.418,3.246,11.266,3.246,11.266l111.52,134.91l-36.162,29.817l0.082,0.1
		l45.807-37.769L524.92,381.86C524.92,381.86,526.363,376.012,521.674,370.594z"/>
</g>
<g>
	<path fill="#939598" d="M717.533,249.285c-1.301,0-2.598-0.159-3.863-0.494c-7.178-1.892-12.502-9.183-12.117-16.597
		c0.088-1.742,0.076-3.345-1.006-3.795c-0.896-0.371-1.961,0.367-3.063,1.227c-1.865,1.455-3.967,2.592-6.189,3.379
		c-1.734,4.068-4.547,8.285-9.104,10.893c-3.65,2.088-8.473,2.525-12.588,1.144c-3.391-1.139-5.947-3.382-7.197-6.313
		c-1.258-2.954-1.17-6.275-1.09-9.203c0.225-8.262,1.471-18.193,9.188-21.68l0.447,0.992c-7.162,3.238-8.33,12.773-8.545,20.717
		c-0.076,2.818-0.162,6.012,1.002,8.746c1.127,2.643,3.449,4.67,6.541,5.708c3.83,1.289,8.314,0.884,11.701-1.055
		c3.99-2.284,6.578-5.896,8.256-9.507c-3.408,0.967-7.045,1.138-10.529,0.42l-0.74-0.152l0.379-0.653
		c0.924-1.597,1.406-3.369,1.916-5.249c0.525-1.928,1.066-3.921,2.129-5.681c1.328-2.192,4.232-3.704,6.764-3.568
		c1.686,0.106,2.963,0.943,3.598,2.36c0.615,1.384,0.414,2.911,0.176,4.235c-0.318,1.779-0.855,4.064-1.754,6.474
		c1.775-0.721,3.453-1.682,4.971-2.865c1.033-0.807,2.594-2.02,4.15-1.373c1.883,0.783,1.758,3.234,1.676,4.856
		c-0.359,6.919,4.609,13.722,11.307,15.489c6.695,1.763,14.375-1.699,17.48-7.893l0.973,0.487
		C729.662,245.802,723.598,249.285,717.533,249.285z M680.318,232.934c3.391,0.569,6.904,0.274,10.16-0.8
		c1.082-2.656,1.699-5.225,2.047-7.17c0.209-1.162,0.391-2.495-0.098-3.597c-0.59-1.318-1.779-1.662-2.672-1.718
		c-2.123-0.135-4.65,1.206-5.762,3.045c-0.986,1.629-1.482,3.463-2.01,5.404C681.543,229.722,681.086,231.394,680.318,232.934z"/>
</g>
</svg>
