<?xml version="1.0" encoding="utf-8"?>
<!-- Generator: Adobe Illustrator 16.0.0, SVG Export Plug-In . SVG Version: 6.00 Build 0)  -->
<!DOCTYPE svg PUBLIC "-//W3C//DTD SVG 1.1//EN" "http://www.w3.org/Graphics/SVG/1.1/DTD/svg11.dtd">
<svg version="1.1" id="Layer_1" xmlns="http://www.w3.org/2000/svg" xmlns:xlink="http://www.w3.org/1999/xlink" x="0px" y="0px"
	 width="55.71px" height="66.858px" viewBox="0 0 55.71 66.858" enable-background="new 0 0 55.71 66.858" xml:space="preserve">
<g>
	<defs>
		<rect id="SVGID_17_" x="983.854" y="-1688.493" width="1600" height="819"/>
	</defs>
	<clipPath id="SVGID_2_">
		<use xlink:href="#SVGID_17_"  overflow="visible"/>
	</clipPath>
	<g clip-path="url(#SVGID_2_)">
		<g>
			<g>
				<g>
					<g>
						<defs>
							<rect id="SVGID_189_" x="983.854" y="-2119.493" width="1600" height="1600"/>
						</defs>
						<clipPath id="SVGID_4_">
							<use xlink:href="#SVGID_189_"  overflow="visible"/>
						</clipPath>
						<g clip-path="url(#SVGID_4_)">
							
								<linearGradient id="SVGID_6_" gradientUnits="userSpaceOnUse" x1="-1708.0156" y1="1983.0723" x2="-1041.5156" y2="1983.0723" gradientTransform="matrix(0 -1 1 0 -2107.5615 -1018.6338)">
								<stop  offset="0" style="stop-color:#FFFFFF"/>
								<stop  offset="1" style="stop-color:#C2C2C2"/>
							</linearGradient>
							<polygon fill="url(#SVGID_6_)" points="-381.458,677.632 -38.396,689.382 132.479,23.507 131.729,22.882 							"/>
							
								<linearGradient id="SVGID_8_" gradientUnits="userSpaceOnUse" x1="-1001.8906" y1="1951.915" x2="-1696.2656" y2="1951.915" gradientTransform="matrix(0 -1 1 0 -2107.5615 -1018.6338)">
								<stop  offset="0" style="stop-color:#FFFFFF"/>
								<stop  offset="1" style="stop-color:#C2C2C2"/>
							</linearGradient>
							<polygon fill="url(#SVGID_8_)" points="-443.021,-16.743 -381.458,677.632 131.729,22.882 							"/>
							
								<linearGradient id="SVGID_10_" gradientUnits="userSpaceOnUse" x1="-677.0781" y1="2239.291" x2="-677.0781" y2="1602.8535" gradientTransform="matrix(0 -1 1 0 -2107.5615 -1018.6338)">
								<stop  offset="0" style="stop-color:#FFFFFF"/>
								<stop  offset="1" style="stop-color:#C2C2C2"/>
							</linearGradient>
							<polygon fill="url(#SVGID_10_)" points="-443.021,-16.743 131.729,22.882 131.729,22.257 -504.708,-705.993 							"/>
							
								<linearGradient id="SVGID_12_" gradientUnits="userSpaceOnUse" x1="-676.7656" y1="2633.1035" x2="-676.7657" y2="1602.8535" gradientTransform="matrix(0 -1 1 0 -2107.5615 -1018.6338)">
								<stop  offset="0" style="stop-color:#FFFFFF"/>
								<stop  offset="1" style="stop-color:#C2C2C2"/>
							</linearGradient>
							<polygon fill="url(#SVGID_12_)" points="131.729,22.257 525.542,-479.868 -504.708,-705.993 							"/>
							
								<linearGradient id="SVGID_14_" gradientUnits="userSpaceOnUse" x1="-1393.2661" y1="2069.166" x2="-1393.2661" y2="3136.6035" gradientTransform="matrix(0 -1 1 0 -2107.5615 -1018.6338)">
								<stop  offset="0" style="stop-color:#FFFFFF"/>
								<stop  offset="1" style="stop-color:#C2C2C2"/>
							</linearGradient>
							<polygon fill="url(#SVGID_14_)" points="-38.396,689.382 1029.042,725.757 132.479,23.507 							"/>
						</g>
					</g>
				</g>
			</g>
		</g>
	</g>
</g>
<g>
	<defs>
		<rect id="SVGID_307_" x="-2332.146" y="-2137.493" width="1600" height="819"/>
	</defs>
	<clipPath id="SVGID_16_">
		<use xlink:href="#SVGID_307_"  overflow="visible"/>
	</clipPath>
	<g clip-path="url(#SVGID_16_)">
		<g>
			<g>
				<g>
					<g>
						<defs>
							<rect id="SVGID_335_" x="-2332.146" y="-2568.493" width="1600" height="1600"/>
						</defs>
						<clipPath id="SVGID_18_">
							<use xlink:href="#SVGID_335_"  overflow="visible"/>
						</clipPath>
						<g clip-path="url(#SVGID_18_)">
							
								<linearGradient id="SVGID_20_" gradientUnits="userSpaceOnUse" x1="-3692.71" y1="778.0967" x2="-3026.2725" y2="778.0967" gradientTransform="matrix(-1 0 0 -1 -3216.043 917.9785)">
								<stop  offset="0" style="stop-color:#FFFFFF"/>
								<stop  offset="1" style="stop-color:#C2C2C2"/>
							</linearGradient>
							<polygon fill="url(#SVGID_20_)" points="464.979,396.882 476.667,53.757 -189.146,-117.118 -189.771,-116.368 							"/>
							
								<linearGradient id="SVGID_22_" gradientUnits="userSpaceOnUse" x1="-2986.6465" y1="746.9707" x2="-3681.0215" y2="746.9708" gradientTransform="matrix(-1 0 0 -1 -3216.043 917.9785)">
								<stop  offset="0" style="stop-color:#FFFFFF"/>
								<stop  offset="1" style="stop-color:#C2C2C2"/>
							</linearGradient>
							<polygon fill="url(#SVGID_22_)" points="-229.396,458.382 464.979,396.882 -189.771,-116.368 							"/>
							
								<linearGradient id="SVGID_24_" gradientUnits="userSpaceOnUse" x1="-3378.022" y1="864.2217" x2="-3378.022" y2="1931.5967" gradientTransform="matrix(-1 0 0 -1 -3216.043 917.9785)">
								<stop  offset="0" style="stop-color:#FFFFFF"/>
								<stop  offset="1" style="stop-color:#C2C2C2"/>
							</linearGradient>
							<polygon fill="url(#SVGID_24_)" points="476.667,53.757 513.104,-1013.618 -189.146,-117.118 							"/>
						</g>
					</g>
				</g>
			</g>
		</g>
	</g>
</g>
<g>
	<path fill-rule="evenodd" clip-rule="evenodd" fill="#F26C4F" d="M25.118,66.858c-0.014-2.697-0.034-5.395-0.037-8.093
		c-0.006-4.505-0.008-9.01,0.014-13.515c0.002-0.534-0.132-0.713-0.686-0.7c-1.545,0.036-3.09,0.021-4.636,0.011
		c-1.945-0.015-3.04-1.094-3.044-3.032c-0.01-5.397-0.01-10.795,0-16.192c0.004-1.933,1.107-3.025,3.041-3.039
		c1.589-0.012,3.178-0.016,4.766,0.006c0.433,0.006,0.557-0.139,0.555-0.562c-0.013-4.287-0.014-8.575,0.002-12.862
		c0.002-0.453-0.166-0.535-0.569-0.53c-1.61,0.02-3.22,0.008-4.874,0.008c0.047-0.284,0.264-0.405,0.416-0.559
		c2.412-2.419,4.832-4.833,7.242-7.254c0.16-0.161,0.406-0.268,0.422-0.545c0.087,0,0.174,0,0.262,0
		c0.016,0.277,0.262,0.384,0.421,0.544c2.41,2.421,4.827,4.835,7.241,7.251c0.149,0.148,0.289,0.307,0.529,0.563
		c-1.633,0-3.144-0.007-4.654,0.003c-1.004,0.006-0.889-0.158-0.89,0.906c-0.005,5.156,0.001,10.313-0.004,15.469
		c-0.001,1.596-0.732,2.672-2.065,3.012c-0.352,0.09-0.731,0.095-1.099,0.098c-1.544,0.012-3.089,0.02-4.634,0.001
		c-0.426-0.006-0.563,0.131-0.561,0.559c0.014,3.351,0.015,6.701,0.001,10.052c-0.002,0.43,0.136,0.562,0.562,0.557
		c1.609-0.019,3.22-0.017,4.829,0.001c1.846,0.021,2.967,1.129,2.969,2.981c0.011,8.158,0.003,16.316,0.001,24.476
		c-0.001,0.13-0.023,0.259-0.035,0.388C28.774,66.858,26.946,66.858,25.118,66.858z"/>
	<path fill-rule="evenodd" clip-rule="evenodd" fill="#C7C7C7" d="M55.709,36.236c0,7.291,0.001,14.581-0.001,21.872
		c-0.001,1.632-0.69,2.664-2.011,3.061c-0.341,0.103-0.688,0.106-1.034,0.106c-6.158,0.005-12.317-0.002-18.477,0.019
		c-0.582,0.002-0.781-0.136-0.761-0.749c0.048-1.435,0.028-2.872,0.007-4.309c-0.006-0.399,0.115-0.541,0.519-0.519
		c0.542,0.03,1.091-0.027,1.631,0.018c0.524,0.043,0.649-0.147,0.646-0.654c-0.02-4.331-0.014-8.662-0.01-12.992
		c0.001-1.544,0.733-2.609,2.049-2.969c0.289-0.078,0.601-0.104,0.901-0.104c2.524-0.01,5.049,0.004,7.574-0.021
		c0.487-0.005,0.63,0.134,0.619,0.623c-0.031,1.457-0.029,2.916-0.001,4.374c0.009,0.463-0.138,0.59-0.59,0.582
		c-1.436-0.026-2.873,0.008-4.309-0.02c-0.487-0.009-0.682,0.092-0.677,0.638c0.027,3.308,0.027,6.615,0.006,9.924
		c-0.003,0.501,0.157,0.623,0.633,0.618c2.372-0.021,4.744-0.021,7.116,0.002c0.49,0.005,0.66-0.138,0.623-0.627
		c-0.039-0.52-0.038-1.047,0-1.566c0.035-0.482-0.121-0.643-0.618-0.632c-1.458,0.031-2.917-0.012-4.374,0.024
		c-0.498,0.012-0.622-0.136-0.612-0.619c0.033-1.479,0.027-2.959,0.007-4.439c-0.006-0.398,0.111-0.521,0.512-0.517
		c1.479,0.02,2.96-0.012,4.439,0.013c0.468,0.007,0.646-0.102,0.644-0.611c-0.02-3.308-0.021-6.616,0.008-9.924
		c0.005-0.553-0.199-0.635-0.681-0.634c-7.792,0.012-15.583,0.011-23.374,0.005c-1.199-0.001-1.025,0.186-1.033-1.028
		c-0.008-1.306,0.023-2.612-0.009-3.917c-0.012-0.488,0.13-0.626,0.619-0.621c2.285,0.025,4.57,0.011,6.855,0.012
		c0.896,0,0.894,0,0.894-0.925c0-2.351-0.004-4.701,0.002-7.051c0.004-2.088,1.092-3.18,3.178-3.186
		c2.523-0.007,5.049-0.008,7.573,0.001c2.052,0.006,3.147,1.1,3.157,3.14c0.006,1.566-0.01,3.134,0.009,4.7
		c0.005,0.394-0.106,0.53-0.514,0.524c-1.523-0.021-3.047-0.019-4.57-0.002c-0.37,0.004-0.497-0.118-0.483-0.486
		c0.023-0.608-0.012-1.219,0.013-1.827c0.015-0.377-0.124-0.491-0.489-0.477c-0.608,0.024-1.219,0.022-1.828,0.001
		c-0.35-0.013-0.506,0.072-0.501,0.464c0.02,1.545,0.017,3.091,0.002,4.636c-0.003,0.366,0.119,0.493,0.488,0.492
		c3.396-0.01,6.79-0.01,10.186,0c0.358,0.001,0.5-0.104,0.499-0.481c-0.01-4.33-0.016-8.661,0.006-12.992
		c0.002-0.539-0.297-0.471-0.624-0.471c-5.137,0.002-10.272-0.01-15.409,0.018c-0.586,0.003-0.729-0.154-0.712-0.721
		c0.042-1.413,0.032-2.829,0.01-4.243c-0.007-0.457,0.081-0.647,0.602-0.646c6.202,0.018,12.405,0.004,18.607,0.016
		c1.96,0.004,3.063,1.129,3.065,3.097C55.713,21.568,55.708,28.902,55.709,36.236z"/>
	<path fill-rule="evenodd" clip-rule="evenodd" fill="#C7C7C7" d="M0.006,36.207C0.006,28.938,0.01,21.67,0,14.401
		c-0.001-0.877,0.128-1.688,0.747-2.357c0.62-0.669,1.41-0.914,2.293-0.914c6.224,0,12.447,0.005,18.671-0.002
		c0.396-0.001,0.586,0.072,0.578,0.533c-0.025,1.522-0.021,3.047,0.005,4.569c0.008,0.429-0.161,0.497-0.536,0.495
		c-2.307-0.016-4.613-0.016-6.92-0.008c-1.034,0.003-0.912-0.15-0.914,0.882c-0.006,3.198-0.012,6.397,0.009,9.597
		c0.003,0.494-0.106,0.68-0.641,0.665c-1.414-0.036-2.83-0.032-4.243,0.005c-0.536,0.014-0.697-0.134-0.693-0.685
		c0.024-3.265-0.004-6.529,0.021-9.793c0.004-0.544-0.143-0.732-0.687-0.684c-0.497,0.045-1.005,0.05-1.5-0.001
		c-0.549-0.056-0.636,0.18-0.634,0.665c0.016,4.2,0.018,8.399-0.002,12.6c-0.003,0.538,0.138,0.699,0.688,0.692
		c2.351-0.029,4.7,0.001,7.051-0.018c0.456-0.004,0.654,0.076,0.642,0.598c-0.035,1.457-0.031,2.916,0.005,4.373
		c0.013,0.51-0.168,0.611-0.636,0.607c-2.371-0.023-4.744-0.002-7.115-0.025c-0.478-0.005-0.636,0.117-0.635,0.617
		c0.019,6.093,0.02,12.186,0.007,18.279c-0.001,0.475,0.114,0.641,0.616,0.638c3.308-0.021,6.615-0.017,9.923,0.003
		c0.479,0.002,0.669-0.131,0.634-0.626c-0.037-0.52-0.037-1.046,0.001-1.565c0.035-0.483-0.122-0.642-0.618-0.632
		c-1.523,0.03-3.047,0.015-4.57,0.01c-2.109-0.006-3.172-1.062-3.176-3.164c-0.005-3.329,0.018-6.659-0.019-9.988
		c-0.007-0.655,0.196-0.793,0.804-0.772c1.348,0.046,2.699,0.041,4.047,0.003c0.555-0.017,0.745,0.107,0.735,0.706
		c-0.036,2.328,0.006,4.657-0.022,6.985c-0.007,0.557,0.174,0.694,0.703,0.684c1.523-0.03,3.047-0.013,4.57-0.004
		c1.982,0.012,3.085,1.093,3.093,3.058c0.011,2.611,0.01,5.223-0.005,7.834c-0.012,1.897-1.108,3.009-2.998,3.013
		c-5.419,0.012-10.838,0.013-16.256,0.001c-1.956-0.005-3.008-1.111-3.01-3.132C0.009,50.83,0.011,43.519,0.011,36.207H0.006z"/>
</g>
</svg>
