<?xml version="1.0" encoding="utf-8"?>
<!-- Generator: Adobe Illustrator 16.0.0, SVG Export Plug-In . SVG Version: 6.00 Build 0)  -->
<!DOCTYPE svg PUBLIC "-//W3C//DTD SVG 1.1//EN" "http://www.w3.org/Graphics/SVG/1.1/DTD/svg11.dtd">
<svg version="1.1" id="Layer_1" xmlns="http://www.w3.org/2000/svg" xmlns:xlink="http://www.w3.org/1999/xlink" x="0px" y="0px"
	 width="62.799px" height="60.5px" viewBox="0 0 62.799 60.5" enable-background="new 0 0 62.799 60.5" xml:space="preserve">
<g>
	<defs>
		<rect id="SVGID_17_" x="1585.421" y="-1870.441" width="1600" height="819"/>
	</defs>
	<clipPath id="SVGID_2_">
		<use xlink:href="#SVGID_17_"  overflow="visible"/>
	</clipPath>
	<g clip-path="url(#SVGID_2_)">
		<g>
			<g>
				<g>
					<g>
						<defs>
							<rect id="SVGID_189_" x="1585.422" y="-2301.441" width="1600" height="1600"/>
						</defs>
						<clipPath id="SVGID_4_">
							<use xlink:href="#SVGID_189_"  overflow="visible"/>
						</clipPath>
						<g clip-path="url(#SVGID_4_)">
							
								<linearGradient id="SVGID_6_" gradientUnits="userSpaceOnUse" x1="-1094.6982" y1="1180.7178" x2="-354.6982" y2="1180.7178" gradientTransform="matrix(0 -1 1 0 -1324.0459 -599.0146)">
								<stop  offset="0" style="stop-color:#FFFFFF"/>
								<stop  offset="1" style="stop-color:#C2C2C2"/>
							</linearGradient>
							<polygon fill="url(#SVGID_6_)" points="-506.766,-244.316 220.109,495.684 158.547,-198.691 							"/>
							
								<linearGradient id="SVGID_8_" gradientUnits="userSpaceOnUse" x1="-354.6978" y1="1107.9678" x2="-1644.1982" y2="1107.9679" gradientTransform="matrix(0 -1 1 0 -1324.0459 -599.0146)">
								<stop  offset="0" style="stop-color:#FFFFFF"/>
								<stop  offset="1" style="stop-color:#C2C2C2"/>
							</linearGradient>
							<polygon fill="url(#SVGID_8_)" points="-346.266,1045.184 74.609,901.684 -506.766,-244.316 							"/>
							
								<linearGradient id="SVGID_10_" gradientUnits="userSpaceOnUse" x1="-1500.6982" y1="1180.7178" x2="-354.6982" y2="1180.7178" gradientTransform="matrix(0 -1 1 0 -1324.0459 -599.0146)">
								<stop  offset="0" style="stop-color:#FFFFFF"/>
								<stop  offset="1" style="stop-color:#C2C2C2"/>
							</linearGradient>
							<polygon fill="url(#SVGID_10_)" points="-506.766,-244.316 74.609,901.684 220.109,495.684 							"/>
						</g>
					</g>
				</g>
			</g>
		</g>
	</g>
</g>
<g>
	<defs>
		<rect id="SVGID_307_" x="-1730.579" y="-2319.441" width="1600" height="819"/>
	</defs>
	<clipPath id="SVGID_12_">
		<use xlink:href="#SVGID_307_"  overflow="visible"/>
	</clipPath>
	<g clip-path="url(#SVGID_12_)">
		<g>
			<g>
				<g>
					<g>
						<defs>
							<rect id="SVGID_335_" x="-1730.578" y="-2750.441" width="1600" height="1600"/>
						</defs>
						<clipPath id="SVGID_14_">
							<use xlink:href="#SVGID_335_"  overflow="visible"/>
						</clipPath>
						<g clip-path="url(#SVGID_14_)">
							
								<linearGradient id="SVGID_16_" gradientUnits="userSpaceOnUse" x1="-2060.2681" y1="852.3984" x2="-2060.2681" y2="215.8984" gradientTransform="matrix(-1 0 0 -1 -2012.9082 554.082)">
								<stop  offset="0" style="stop-color:#FFFFFF"/>
								<stop  offset="1" style="stop-color:#C2C2C2"/>
							</linearGradient>
							<polygon fill="url(#SVGID_16_)" points="372.172,276.434 411.797,-298.316 411.109,-298.316 -317.078,338.184 							"/>
							
								<linearGradient id="SVGID_18_" gradientUnits="userSpaceOnUse" x1="-2059.9243" y1="1246.1484" x2="-2059.9243" y2="215.8984" gradientTransform="matrix(-1 0 0 -1 -2012.9082 554.082)">
								<stop  offset="0" style="stop-color:#FFFFFF"/>
								<stop  offset="1" style="stop-color:#C2C2C2"/>
							</linearGradient>
							<polygon fill="url(#SVGID_18_)" points="411.109,-298.316 -91.016,-692.066 -317.078,338.184 							"/>
						</g>
					</g>
				</g>
			</g>
		</g>
		<g>
			<g>
				<g>
					<g>
						<defs>
							<rect id="SVGID_479_" x="-1730.578" y="-2750.441" width="1600" height="1600"/>
						</defs>
						<clipPath id="SVGID_20_">
							<use xlink:href="#SVGID_479_"  overflow="visible"/>
						</clipPath>
						<g clip-path="url(#SVGID_20_)">
							
								<linearGradient id="SVGID_22_" gradientUnits="userSpaceOnUse" x1="-908.0732" y1="1173.0928" x2="-359.9482" y2="1173.0928" gradientTransform="matrix(0 -1 1 0 -1324.0459 -599.0146)">
								<stop  offset="0" style="stop-color:#FFFFFF"/>
								<stop  offset="1" style="stop-color:#C2C2C2"/>
							</linearGradient>
							<polygon fill="url(#SVGID_22_)" points="156.547,286.184 156.547,-72.691 -8.266,-239.066 -458.453,309.059 							"/>
						</g>
					</g>
				</g>
			</g>
		</g>
	</g>
</g>
<g>
	<path fill="#F26C4F" d="M62.799,0L6.882,19.241l17.033,3.397L62.799,0L62.799,0z"/>
	<path fill="#F26C4F" d="M6.882,19.241l17.033,3.397l11.305-6.581L6.882,19.241z"/>
	<path fill="#D3533D" d="M23.915,22.639l2.639,20.077L62.798,0L23.915,22.639z"/>
	<path fill="#FECD0D" d="M62.799,0L30.031,27.354l-3.478,15.362L62.799,0z"/>
	<path fill="#CDCDCD" d="M34.417,23.693l-4.386,3.66l-3.478,15.362l16.2-19.092l-2.796-4.556L34.417,23.693L34.417,23.693
		L34.417,23.693z"/>
	<path fill="#F26C4F" d="M51.652,38.127L62.799,0L30.031,27.354L51.652,38.127L51.652,38.127z"/>
	<path fill="#F26C4F" d="M34.392,23.693l-4.385,3.66l21.621,10.772L39.934,19.068L34.392,23.693L34.392,23.693L34.392,23.693z"/>
	<path fill="#8D8D8D" d="M0,45.062l18.688-18.749l1.002,1.316L0,45.062z M26.554,60.5L26.554,60.5L43.11,40.236l1.443,0.658
		L26.554,60.5z M9.445,58.186L9.445,58.186l15.208-13.85l-1.047-0.896L9.445,58.186z"/>
</g>
</svg>
