<?xml version="1.0" encoding="utf-8"?>
<!-- Generator: Adobe Illustrator 16.0.0, SVG Export Plug-In . SVG Version: 6.00 Build 0)  -->
<!DOCTYPE svg PUBLIC "-//W3C//DTD SVG 1.1//EN" "http://www.w3.org/Graphics/SVG/1.1/DTD/svg11.dtd">
<svg version="1.1" id="Layer_1" xmlns="http://www.w3.org/2000/svg" xmlns:xlink="http://www.w3.org/1999/xlink" x="0px" y="0px"
	 width="101.428px" height="101.428px" viewBox="0 0 101.428 101.428" enable-background="new 0 0 101.428 101.428"
	 xml:space="preserve">
<g>
	<defs>
		<rect id="SVGID_17_" x="1039.268" y="-2202.934" width="1600" height="819"/>
	</defs>
	<clipPath id="SVGID_2_">
		<use xlink:href="#SVGID_17_"  overflow="visible"/>
	</clipPath>
	<g clip-path="url(#SVGID_2_)">
		<g>
			<g>
				<g>
					<g>
						<defs>
							<rect id="SVGID_189_" x="1039.269" y="-2633.934" width="1600" height="1600"/>
						</defs>
						<clipPath id="SVGID_4_">
							<use xlink:href="#SVGID_189_"  overflow="visible"/>
						</clipPath>
						<g clip-path="url(#SVGID_4_)">
							
								<linearGradient id="SVGID_6_" gradientUnits="userSpaceOnUse" x1="-1652.6016" y1="1468.6318" x2="-986.1016" y2="1468.6318" gradientTransform="matrix(0 -1 1 0 -1537.707 -1477.6602)">
								<stop  offset="0" style="stop-color:#FFFFFF"/>
								<stop  offset="1" style="stop-color:#C2C2C2"/>
							</linearGradient>
							<polygon fill="url(#SVGID_6_)" points="-326.044,163.191 17.019,174.941 187.894,-490.934 187.144,-491.559 							"/>
							
								<linearGradient id="SVGID_8_" gradientUnits="userSpaceOnUse" x1="-946.4766" y1="1437.4746" x2="-1640.8516" y2="1437.4746" gradientTransform="matrix(0 -1 1 0 -1537.707 -1477.6602)">
								<stop  offset="0" style="stop-color:#FFFFFF"/>
								<stop  offset="1" style="stop-color:#C2C2C2"/>
							</linearGradient>
							<polygon fill="url(#SVGID_8_)" points="-387.606,-531.184 -326.044,163.191 187.144,-491.559 							"/>
							
								<linearGradient id="SVGID_10_" gradientUnits="userSpaceOnUse" x1="-1337.8521" y1="1554.7256" x2="-1337.8521" y2="2622.1631" gradientTransform="matrix(0 -1 1 0 -1537.707 -1477.6602)">
								<stop  offset="0" style="stop-color:#FFFFFF"/>
								<stop  offset="1" style="stop-color:#C2C2C2"/>
							</linearGradient>
							<polygon fill="url(#SVGID_10_)" points="17.019,174.941 1084.456,211.316 187.894,-490.934 							"/>
						</g>
					</g>
				</g>
			</g>
		</g>
	</g>
</g>
<g>
	<defs>
		<rect id="SVGID_307_" x="-2276.732" y="-2651.934" width="1600" height="819"/>
	</defs>
	<clipPath id="SVGID_12_">
		<use xlink:href="#SVGID_307_"  overflow="visible"/>
	</clipPath>
	<g clip-path="url(#SVGID_12_)">
		<g>
			<g>
				<g>
					<g>
						<defs>
							<rect id="SVGID_335_" x="-2276.731" y="-3082.934" width="1600" height="1600"/>
						</defs>
						<clipPath id="SVGID_14_">
							<use xlink:href="#SVGID_335_"  overflow="visible"/>
						</clipPath>
						<g clip-path="url(#SVGID_14_)">
							
								<linearGradient id="SVGID_16_" gradientUnits="userSpaceOnUse" x1="-3625.6084" y1="-356.7813" x2="-2885.6084" y2="-356.7813" gradientTransform="matrix(-1 0 0 -1 -3105.2148 -110.9023)">
								<stop  offset="0" style="stop-color:#FFFFFF"/>
								<stop  offset="1" style="stop-color:#C2C2C2"/>
							</linearGradient>
							<polygon fill="url(#SVGID_16_)" points="-219.606,609.316 520.394,-117.559 -173.981,-56.059 							"/>
							
								<linearGradient id="SVGID_18_" gradientUnits="userSpaceOnUse" x1="-2885.6079" y1="-429.5317" x2="-4175.1089" y2="-429.5316" gradientTransform="matrix(-1 0 0 -1 -3105.2148 -110.9023)">
								<stop  offset="0" style="stop-color:#FFFFFF"/>
								<stop  offset="1" style="stop-color:#C2C2C2"/>
							</linearGradient>
							<polygon fill="url(#SVGID_18_)" points="1069.895,448.816 926.331,27.941 -219.606,609.316 							"/>
							
								<linearGradient id="SVGID_20_" gradientUnits="userSpaceOnUse" x1="-4031.5459" y1="-356.7813" x2="-2885.6084" y2="-356.7813" gradientTransform="matrix(-1 0 0 -1 -3105.2148 -110.9023)">
								<stop  offset="0" style="stop-color:#FFFFFF"/>
								<stop  offset="1" style="stop-color:#C2C2C2"/>
							</linearGradient>
							<polygon fill="url(#SVGID_20_)" points="-219.606,609.316 926.331,27.941 520.394,-117.559 							"/>
						</g>
					</g>
				</g>
			</g>
		</g>
	</g>
</g>
<g>
	<path opacity="0.8" fill="#FFFFFF" d="M50.713,0c28.013,0,50.715,22.707,50.715,50.713c0,28.012-22.702,50.715-50.715,50.715
		C22.703,101.428,0,78.725,0,50.713C0,22.707,22.703,0,50.713,0z"/>
	<g>
		<g>
			<polygon fill="#3D3D3D" points="76.947,50.713 38.472,76.946 38.472,51.193 38.472,24.482 			"/>
			<path fill="#3D3D3D" d="M38.472,78.693c-0.279,0-0.562-0.066-0.817-0.197c-0.57-0.307-0.928-0.902-0.928-1.55V24.482
				c0-0.645,0.357-1.24,0.928-1.547c0.575-0.303,1.268-0.258,1.803,0.101L77.93,49.273c0.476,0.319,0.764,0.864,0.764,1.439
				c0,0.582-0.288,1.123-0.764,1.446L39.456,78.392C39.159,78.594,38.816,78.693,38.472,78.693z M40.221,27.795v45.844
				l33.617-22.926L40.221,27.795z"/>
		</g>
	</g>
</g>
</svg>
