<?xml version="1.0" encoding="utf-8"?>
<!-- Generator: Adobe Illustrator 16.0.0, SVG Export Plug-In . SVG Version: 6.00 Build 0)  -->
<!DOCTYPE svg PUBLIC "-//W3C//DTD SVG 1.1//EN" "http://www.w3.org/Graphics/SVG/1.1/DTD/svg11.dtd">
<svg version="1.1" id="Layer_1" xmlns="http://www.w3.org/2000/svg" xmlns:xlink="http://www.w3.org/1999/xlink" x="0px" y="0px"
	 width="84.021px" height="84.027px" viewBox="0 0 84.021 84.027" enable-background="new 0 0 84.021 84.027" xml:space="preserve">
<g>
	<defs>
		<rect id="SVGID_17_" x="1030.564" y="-639.762" width="1600" height="819"/>
	</defs>
	<clipPath id="SVGID_2_">
		<use xlink:href="#SVGID_17_"  overflow="visible"/>
	</clipPath>
	<g clip-path="url(#SVGID_2_)">
		<g>
			<g>
				<g>
					<g>
						<defs>
							<rect id="SVGID_189_" x="1030.565" y="-1070.762" width="1600" height="1600"/>
						</defs>
						<clipPath id="SVGID_4_">
							<use xlink:href="#SVGID_189_"  overflow="visible"/>
						</clipPath>
						<g clip-path="url(#SVGID_4_)">
							
								<linearGradient id="SVGID_6_" gradientUnits="userSpaceOnUse" x1="-492.0547" y1="3362.5225" x2="467.4453" y2="3362.5225" gradientTransform="matrix(0 -1 1 0 -3109.582 76.8086)">
								<stop  offset="0" style="stop-color:#FFFFFF"/>
								<stop  offset="1" style="stop-color:#C2C2C2"/>
							</linearGradient>
							<polygon fill="url(#SVGID_6_)" points="406.565,-289.262 -66.372,-390.637 572.253,568.863 405.815,-288.012 							"/>
							
								<linearGradient id="SVGID_8_" gradientUnits="userSpaceOnUse" x1="-492.0547" y1="3166.71" x2="15.9453" y2="3166.71" gradientTransform="matrix(0 -1 1 0 -3109.582 76.8086)">
								<stop  offset="0" style="stop-color:#FFFFFF"/>
								<stop  offset="1" style="stop-color:#C2C2C2"/>
							</linearGradient>
							<polygon fill="url(#SVGID_8_)" points="-457.997,342.738 572.253,568.863 25.878,60.863 							"/>
							
								<linearGradient id="SVGID_10_" gradientUnits="userSpaceOnUse" x1="467.4453" y1="3362.5215" x2="-492.0547" y2="3362.5215" gradientTransform="matrix(0 -1 1 0 -3109.582 76.8086)">
								<stop  offset="0" style="stop-color:#FFFFFF"/>
								<stop  offset="1" style="stop-color:#C2C2C2"/>
							</linearGradient>
							<polygon fill="url(#SVGID_10_)" points="-66.372,-390.637 27.19,60.863 25.878,60.863 572.253,568.863 -66.372,-390.637 
															"/>
							
								<linearGradient id="SVGID_12_" gradientUnits="userSpaceOnUse" x1="296.5703" y1="2531.96" x2="296.5703" y2="3136.7725" gradientTransform="matrix(0 -1 1 0 -3109.582 76.8086)">
								<stop  offset="0" style="stop-color:#FFFFFF"/>
								<stop  offset="1" style="stop-color:#C2C2C2"/>
							</linearGradient>
							<polygon fill="url(#SVGID_12_)" points="25.878,60.863 27.19,60.863 -66.372,-390.637 -577.622,-500.387 							"/>
							
								<linearGradient id="SVGID_14_" gradientUnits="userSpaceOnUse" x1="155.6328" y1="3135.46" x2="155.6328" y2="2531.96" gradientTransform="matrix(0 -1 1 0 -3109.582 76.8086)">
								<stop  offset="0" style="stop-color:#FFFFFF"/>
								<stop  offset="1" style="stop-color:#C2C2C2"/>
							</linearGradient>
							<polygon fill="url(#SVGID_14_)" points="-457.997,342.738 25.878,60.863 -577.622,-500.387 							"/>
						</g>
					</g>
				</g>
			</g>
		</g>
	</g>
</g>
<g>
	<defs>
		<rect id="SVGID_307_" x="-2285.436" y="-1088.762" width="1600" height="819"/>
	</defs>
	<clipPath id="SVGID_16_">
		<use xlink:href="#SVGID_307_"  overflow="visible"/>
	</clipPath>
	<g clip-path="url(#SVGID_16_)">
		<g>
			<g>
				<g>
					<g>
						<defs>
							<rect id="SVGID_335_" x="-2285.435" y="-1519.762" width="1600" height="1600"/>
						</defs>
						<clipPath id="SVGID_18_">
							<use xlink:href="#SVGID_335_"  overflow="visible"/>
						</clipPath>
						<g clip-path="url(#SVGID_18_)">
							
								<linearGradient id="SVGID_20_" gradientUnits="userSpaceOnUse" x1="-3106.1855" y1="3593.8271" x2="-3896.6865" y2="3593.8271" gradientTransform="matrix(-1 0 0 -1 -3122.6211 3015.4414)">
								<stop  offset="0" style="stop-color:#FFFFFF"/>
								<stop  offset="1" style="stop-color:#C2C2C2"/>
							</linearGradient>
							<polygon fill="url(#SVGID_20_)" points="559.815,35.113 774.066,-1191.887 -16.435,-913.137 							"/>
							
								<linearGradient id="SVGID_22_" gradientUnits="userSpaceOnUse" x1="-3682.4365" y1="3454.4531" x2="-2680.0615" y2="3454.4531" gradientTransform="matrix(-1 0 0 -1 -3122.6211 3015.4414)">
								<stop  offset="0" style="stop-color:#FFFFFF"/>
								<stop  offset="1" style="stop-color:#C2C2C2"/>
							</linearGradient>
							<polygon fill="url(#SVGID_22_)" points="-442.56,-761.762 559.815,35.113 -16.435,-913.137 							"/>
							
								<linearGradient id="SVGID_24_" gradientUnits="userSpaceOnUse" x1="-3079.5933" y1="3777.2031" x2="-3079.5933" y2="2476.8281" gradientTransform="matrix(-1 0 0 -1 -3122.6211 3015.4414)">
								<stop  offset="0" style="stop-color:#FFFFFF"/>
								<stop  offset="1" style="stop-color:#C2C2C2"/>
							</linearGradient>
							<polygon fill="url(#SVGID_24_)" points="-645.872,538.613 559.815,35.113 -442.56,-761.762 							"/>
							
								<linearGradient id="SVGID_26_" gradientUnits="userSpaceOnUse" x1="-3331.311" y1="1912.9531" x2="-3331.311" y2="2980.3281" gradientTransform="matrix(-1 0 0 -1 -3122.6211 3015.4414)">
								<stop  offset="0" style="stop-color:#FFFFFF"/>
								<stop  offset="1" style="stop-color:#C2C2C2"/>
							</linearGradient>
							<polygon fill="url(#SVGID_26_)" points="523.378,1102.488 559.815,35.113 -142.435,931.613 							"/>
							
								<linearGradient id="SVGID_28_" gradientUnits="userSpaceOnUse" x1="-3682.4365" y1="2531.7031" x2="-2476.749" y2="2531.7031" gradientTransform="matrix(-1 0 0 -1 -3122.6211 3015.4414)">
								<stop  offset="0" style="stop-color:#FFFFFF"/>
								<stop  offset="1" style="stop-color:#C2C2C2"/>
							</linearGradient>
							<polygon fill="url(#SVGID_28_)" points="-143.747,932.363 -142.435,931.613 559.815,35.113 -645.872,538.613 							"/>
						</g>
					</g>
				</g>
			</g>
		</g>
	</g>
</g>
<g>
	<path fill="#EFC75E" d="M26.136,59.228c3.677,3.677,3.677,9.719,0,13.396c-3.678,3.678-14.514,8.471-18.191,4.794
		c-3.676-3.677,1.117-14.514,4.795-18.19C16.416,55.551,22.392,55.551,26.136,59.228z"/>
	<path fill="#DEB957" d="M15.169,57.455v0.394c0,6.83,5.582,12.411,12.411,12.411h0.263c1.839-3.546,1.248-8.012-1.773-11.032
		C23.181,56.271,18.715,55.681,15.169,57.455z"/>
	<path fill="#F26C4F" d="M45.442,38.607c11.229,11.229,13.462,27.187,2.822,37.825l-5.055,5.057
		c-10.639,10.638-3.284-14.907-14.514-26.137C17.468,44.123-8.144,51.544,2.561,40.84l5.056-5.056
		C18.255,25.145,34.212,27.378,45.442,38.607L45.442,38.607z"/>
	<path fill="#F4F0D3" d="M82.61,1.438c3.414,3.415,1.904,25.086-19.044,46.1C49.907,61.132,41.306,65.926,41.306,65.926
		c-9.129,6.173-13.528,1.97-19.307-3.809c-5.779-5.779-10.048-10.18-3.81-19.307c0,0,4.859-8.668,18.452-22.328
		C57.591-0.466,79.195-2.041,82.61,1.438L82.61,1.438z"/>
	<path fill="#E8E4C8" d="M44.917,62.971c-9.522,6.37-14.119,2.035-20.096-3.939c-6.041-6.042-10.441-10.574-3.939-20.095
		l0.985-1.576c-2.562,3.479-3.678,5.45-3.678,5.45c-6.238,9.127-1.97,13.527,3.81,19.307c5.777,5.778,10.178,9.916,19.307,3.809
		c0,0,4.07-2.299,11.098-8.143C47.609,61.46,44.917,62.971,44.917,62.971z"/>
	<path fill="#8BA0AB" d="M60.611,23.438c3.218,3.218,3.218,8.405,0,11.623s-8.405,3.218-11.624,0c-3.217-3.218-3.217-8.405,0-11.623
		C52.206,20.22,57.46,20.22,60.611,23.438z"/>
	<path fill="#F26C4F" d="M41.634,43.795c1.641,1.643-1.512,7.486-9.523,15.499c-8.012,8.011-12.871,10.178-14.512,8.471
		c-1.643-1.642,0.459-6.501,8.471-14.513C34.146,45.24,39.926,42.088,41.634,43.795z"/>
	<path fill="#324D5B" d="M54.833,22.978c1.641,0,3.217,0.657,4.399,1.839c1.183,1.183,1.839,2.759,1.839,4.401
		c0,1.641-0.656,3.217-1.839,4.399c-1.183,1.182-2.759,1.839-4.399,1.839c-1.643,0-3.219-0.657-4.4-1.839
		c-1.182-1.183-1.839-2.759-1.839-4.399c0-1.643,0.657-3.218,1.839-4.401C51.614,23.635,53.19,22.978,54.833,22.978 M54.833,21.009
		c-2.102,0-4.203,0.787-5.779,2.43c-3.218,3.218-3.218,8.405,0,11.623c1.576,1.576,3.678,2.43,5.779,2.43
		c2.101,0,4.203-0.788,5.778-2.43c3.218-3.218,3.218-8.405,0-11.623C59.036,21.796,56.934,21.009,54.833,21.009z"/>
	<path fill="#F26C4F" d="M62.517,3.081c0.59,4.399,2.955,9.063,6.828,12.937c3.415,3.35,7.355,5.582,11.23,6.501
		c4.334-10.77,4.005-19.044,2.035-21.08C80.706-0.531,72.825-0.859,62.517,3.081z"/>
</g>
</svg>
