<?xml version="1.0" encoding="utf-8"?>
<!-- Generator: Adobe Illustrator 16.0.0, SVG Export Plug-In . SVG Version: 6.00 Build 0)  -->
<!DOCTYPE svg PUBLIC "-//W3C//DTD SVG 1.1//EN" "http://www.w3.org/Graphics/SVG/1.1/DTD/svg11.dtd">
<svg version="1.1" id="Layer_1" xmlns="http://www.w3.org/2000/svg" xmlns:xlink="http://www.w3.org/1999/xlink" x="0px" y="0px"
	 width="50.217px" height="61.806px" viewBox="0 0 50.217 61.806" enable-background="new 0 0 50.217 61.806" xml:space="preserve">
<g>
	<defs>
		<rect id="SVGID_17_" x="791.608" y="-1866.097" width="1600" height="819"/>
	</defs>
	<clipPath id="SVGID_2_">
		<use xlink:href="#SVGID_17_"  overflow="visible"/>
	</clipPath>
	<g clip-path="url(#SVGID_2_)">
		<g>
			<g>
				<g>
					<g>
						<defs>
							<rect id="SVGID_189_" x="791.609" y="-2297.097" width="1600" height="1600"/>
						</defs>
						<clipPath id="SVGID_4_">
							<use xlink:href="#SVGID_189_"  overflow="visible"/>
						</clipPath>
						<g clip-path="url(#SVGID_4_)">
							
								<linearGradient id="SVGID_6_" gradientUnits="userSpaceOnUse" x1="-1585.5112" y1="1891.5625" x2="-1585.5112" y2="2959" gradientTransform="matrix(0 -1 1 0 -2122.2031 -1388.4824)">
								<stop  offset="0" style="stop-color:#FFFFFF"/>
								<stop  offset="1" style="stop-color:#C2C2C2"/>
							</linearGradient>
							<polygon fill="url(#SVGID_6_)" points="-230.641,511.778 836.797,548.153 -59.766,-154.097 							"/>
							
								<linearGradient id="SVGID_8_" gradientUnits="userSpaceOnUse" x1="-1936.6357" y1="2510.3438" x2="-731.0107" y2="2510.3438" gradientTransform="matrix(0 -1 1 0 -2122.2031 -1388.4824)">
								<stop  offset="0" style="stop-color:#FFFFFF"/>
								<stop  offset="1" style="stop-color:#C2C2C2"/>
							</linearGradient>
							<polygon fill="url(#SVGID_8_)" points="-60.516,-155.347 -59.766,-154.097 836.797,548.153 333.297,-657.472 							"/>
						</g>
					</g>
				</g>
			</g>
		</g>
	</g>
</g>
<g>
	<defs>
		<rect id="SVGID_307_" x="-2524.392" y="-2315.097" width="1600" height="819"/>
	</defs>
	<clipPath id="SVGID_10_">
		<use xlink:href="#SVGID_307_"  overflow="visible"/>
	</clipPath>
	<g clip-path="url(#SVGID_10_)">
		<g>
			<g>
				<g>
					<g>
						<defs>
							<rect id="SVGID_335_" x="-2524.391" y="-2746.097" width="1600" height="1600"/>
						</defs>
						<clipPath id="SVGID_12_">
							<use xlink:href="#SVGID_335_"  overflow="visible"/>
						</clipPath>
						<g clip-path="url(#SVGID_12_)">
							
								<linearGradient id="SVGID_14_" gradientUnits="userSpaceOnUse" x1="-3884.9551" y1="600.4932" x2="-3218.5176" y2="600.4932" gradientTransform="matrix(-1 0 0 -1 -3600.5332 562.7715)">
								<stop  offset="0" style="stop-color:#FFFFFF"/>
								<stop  offset="1" style="stop-color:#C2C2C2"/>
							</linearGradient>
							<polygon fill="url(#SVGID_14_)" points="272.734,219.278 284.422,-123.847 -381.391,-294.722 -382.016,-293.972 							"/>
							
								<linearGradient id="SVGID_16_" gradientUnits="userSpaceOnUse" x1="-3178.8916" y1="569.3672" x2="-3873.2666" y2="569.3672" gradientTransform="matrix(-1 0 0 -1 -3600.5332 562.7715)">
								<stop  offset="0" style="stop-color:#FFFFFF"/>
								<stop  offset="1" style="stop-color:#C2C2C2"/>
							</linearGradient>
							<polygon fill="url(#SVGID_16_)" points="-421.641,280.778 272.734,219.278 -382.016,-293.972 							"/>
						</g>
					</g>
				</g>
			</g>
		</g>
	</g>
</g>
<g>
	<path fill="#D7D7D7" d="M50.217,9.657c0.048,0-24.48-9.416-25.109-9.657C24.625,0.193-0.049,9.657,0,9.657v17.77
		c0,12.313,3.524,28.392,25.107,34.379c21.536-5.987,25.061-22.356,25.061-34.379C50.217,21.343,50.217,9.657,50.217,9.657z"/>
	<path fill="#C7C7C7" d="M0,27.427c0,12.313,3.524,28.392,25.107,34.379V0C24.19,0.338,0,9.657,0,9.657V27.427z"/>
	<path fill="#3DB39E" d="M45.34,12.989c0.048,0-19.749-7.968-20.28-8.16c-0.435,0.145-20.328,7.822-20.28,7.773v14.92
		c0,10.334,2.028,24.434,20.28,29.455c18.204-5.021,20.28-19.363,20.28-29.455C45.388,22.405,45.388,12.989,45.34,12.989z"/>
	<path fill="#3AAA96" d="M25.107,4.829c-0.434,0.145-20.328,7.822-20.279,7.773v14.92c0,10.334,2.028,24.434,20.279,29.455V4.829z"
		/>
	<polygon fill="#F9F9F9" points="25.108,18.344 27.564,25.903 35.513,25.903 29.082,30.551 31.538,38.098 25.108,33.421 
		18.679,38.089 21.135,30.552 14.704,25.903 22.652,25.903 	"/>
</g>
</svg>
