<?xml version="1.0" encoding="utf-8"?>
<!-- Generator: Adobe Illustrator 16.0.0, SVG Export Plug-In . SVG Version: 6.00 Build 0)  -->
<!DOCTYPE svg PUBLIC "-//W3C//DTD SVG 1.1//EN" "http://www.w3.org/Graphics/SVG/1.1/DTD/svg11.dtd">
<svg version="1.1" id="Layer_1" xmlns="http://www.w3.org/2000/svg" xmlns:xlink="http://www.w3.org/1999/xlink" x="0px" y="0px"
	 width="83.213px" height="87.252px" viewBox="0 0 83.213 87.252" enable-background="new 0 0 83.213 87.252" xml:space="preserve">
<g>
	<defs>
		<rect id="SVGID_17_" x="297.278" y="-638.217" width="1600" height="819"/>
	</defs>
	<clipPath id="SVGID_2_">
		<use xlink:href="#SVGID_17_"  overflow="visible"/>
	</clipPath>
	<g clip-path="url(#SVGID_2_)">
		<g>
			<g>
				<g>
					<g>
						<defs>
							<rect id="SVGID_45_" x="297.279" y="-1069.217" width="1600" height="1600"/>
						</defs>
						<clipPath id="SVGID_4_">
							<use xlink:href="#SVGID_45_"  overflow="visible"/>
						</clipPath>
						<g clip-path="url(#SVGID_4_)">
							
								<linearGradient id="SVGID_6_" gradientUnits="userSpaceOnUse" x1="-3443.812" y1="2715.8721" x2="-4850.1592" y2="2715.8723" gradientTransform="matrix(-1 0 0 -1 -4589.1934 3018.5313)">
								<stop  offset="0" style="stop-color:#FFFFFF"/>
								<stop  offset="1" style="stop-color:#C2C2C2"/>
							</linearGradient>
							<polygon fill="url(#SVGID_6_)" points="-426.596,682.158 260.967,547.658 -33.971,-76.842 -35.283,-76.842 -426.596,240.283 
															"/>
							
								<linearGradient id="SVGID_8_" gradientUnits="userSpaceOnUse" x1="-5430.2227" y1="3138.373" x2="-4553.9102" y2="3138.373" gradientTransform="matrix(-1 0 0 -1 -4589.1934 3018.5313)">
								<stop  offset="0" style="stop-color:#FFFFFF"/>
								<stop  offset="1" style="stop-color:#C2C2C2"/>
							</linearGradient>
							<polygon fill="url(#SVGID_8_)" points="-33.971,-76.842 260.967,547.658 841.029,-787.342 -35.283,-76.842 							"/>
							
								<linearGradient id="SVGID_10_" gradientUnits="userSpaceOnUse" x1="-5430.2227" y1="3409.4355" x2="-3400.9453" y2="3409.4355" gradientTransform="matrix(-1 0 0 -1 -4589.1934 3018.5313)">
								<stop  offset="0" style="stop-color:#FFFFFF"/>
								<stop  offset="1" style="stop-color:#C2C2C2"/>
							</linearGradient>
							<polygon fill="url(#SVGID_10_)" points="-426.596,5.533 -35.283,-76.842 841.029,-787.342 -426.596,-192.092 							"/>
						</g>
					</g>
				</g>
			</g>
		</g>
		<g>
			<g>
				<g>
					<g>
						<defs>
							<rect id="SVGID_189_" x="297.279" y="-1069.217" width="1600" height="1600"/>
						</defs>
						<clipPath id="SVGID_12_">
							<use xlink:href="#SVGID_189_"  overflow="visible"/>
						</clipPath>
						<g clip-path="url(#SVGID_12_)">
							
								<linearGradient id="SVGID_14_" gradientUnits="userSpaceOnUse" x1="-1225.3408" y1="3934.0986" x2="-367.2158" y2="3934.0986" gradientTransform="matrix(0 -1 1 0 -3844.4131 -654.9326)">
								<stop  offset="0" style="stop-color:#FFFFFF"/>
								<stop  offset="1" style="stop-color:#C2C2C2"/>
							</linearGradient>
							<polygon fill="url(#SVGID_14_)" points="-327.471,-286.467 -161.033,570.408 506.842,-109.842 -326.721,-287.717 							"/>
							
								<linearGradient id="SVGID_16_" gradientUnits="userSpaceOnUse" x1="-1225.3408" y1="4309.9111" x2="-545.0908" y2="4309.9111" gradientTransform="matrix(0 -1 1 0 -3844.4131 -654.9326)">
								<stop  offset="0" style="stop-color:#FFFFFF"/>
								<stop  offset="1" style="stop-color:#C2C2C2"/>
							</linearGradient>
							<polygon fill="url(#SVGID_16_)" points="-161.033,570.408 1092.029,224.783 506.842,-109.842 							"/>
						</g>
					</g>
				</g>
			</g>
		</g>
	</g>
</g>
<g>
	<defs>
		<rect id="SVGID_307_" x="-3018.722" y="-1087.217" width="1600" height="819"/>
	</defs>
	<clipPath id="SVGID_18_">
		<use xlink:href="#SVGID_307_"  overflow="visible"/>
	</clipPath>
	<g clip-path="url(#SVGID_18_)">
		<g>
			<g>
				<g>
					<g>
						<defs>
							<rect id="SVGID_335_" x="-3018.721" y="-1518.217" width="1600" height="1600"/>
						</defs>
						<clipPath id="SVGID_20_">
							<use xlink:href="#SVGID_335_"  overflow="visible"/>
						</clipPath>
						<g clip-path="url(#SVGID_20_)">
							
								<linearGradient id="SVGID_22_" gradientUnits="userSpaceOnUse" x1="-4915.8486" y1="3740.6973" x2="-4915.8486" y2="2513.6973" gradientTransform="matrix(-1 0 0 -1 -4589.1934 3018.5313)">
								<stop  offset="0" style="stop-color:#FFFFFF"/>
								<stop  offset="1" style="stop-color:#C2C2C2"/>
							</linearGradient>
							<polygon fill="url(#SVGID_22_)" points="-173.471,36.658 826.78,-691.967 826.78,-691.967 40.78,-1190.342 							"/>
							
								<linearGradient id="SVGID_24_" gradientUnits="userSpaceOnUse" x1="-5415.9736" y1="2620.6855" x2="-4415.7227" y2="2620.6855" gradientTransform="matrix(-1 0 0 -1 -4589.1934 3018.5313)">
								<stop  offset="0" style="stop-color:#FFFFFF"/>
								<stop  offset="1" style="stop-color:#C2C2C2"/>
							</linearGradient>
							<polygon fill="url(#SVGID_24_)" points="518.28,759.033 518.28,758.408 826.78,472.783 826.78,471.908 -173.471,36.658 
															"/>
							
								<linearGradient id="SVGID_26_" gradientUnits="userSpaceOnUse" x1="-5415.9736" y1="3346.1855" x2="-4415.7227" y2="3346.1855" gradientTransform="matrix(-1 0 0 -1 -4589.1934 3018.5313)">
								<stop  offset="0" style="stop-color:#FFFFFF"/>
								<stop  offset="1" style="stop-color:#C2C2C2"/>
							</linearGradient>
							<polygon fill="url(#SVGID_26_)" points="826.78,-153.592 826.78,-691.967 -173.471,36.658 							"/>
							
								<linearGradient id="SVGID_28_" gradientUnits="userSpaceOnUse" x1="-4915.8486" y1="3172.123" x2="-4915.8486" y2="2546.623" gradientTransform="matrix(-1 0 0 -1 -4589.1934 3018.5313)">
								<stop  offset="0" style="stop-color:#FFFFFF"/>
								<stop  offset="1" style="stop-color:#C2C2C2"/>
							</linearGradient>
							<polygon fill="url(#SVGID_28_)" points="826.78,471.908 826.78,-153.592 -173.471,36.658 							"/>
							
								<linearGradient id="SVGID_30_" gradientUnits="userSpaceOnUse" x1="-3839.4717" y1="3595.3721" x2="-4629.9727" y2="3595.3721" gradientTransform="matrix(-1 0 0 -1 -4589.1934 3018.5313)">
								<stop  offset="0" style="stop-color:#FFFFFF"/>
								<stop  offset="1" style="stop-color:#C2C2C2"/>
							</linearGradient>
							<polygon fill="url(#SVGID_30_)" points="-173.471,36.658 40.78,-1190.342 -749.721,-911.592 							"/>
							
								<linearGradient id="SVGID_32_" gradientUnits="userSpaceOnUse" x1="-4743.3799" y1="2981.873" x2="-4743.3799" y2="1914.498" gradientTransform="matrix(-1 0 0 -1 -4589.1934 3018.5313)">
								<stop  offset="0" style="stop-color:#FFFFFF"/>
								<stop  offset="1" style="stop-color:#C2C2C2"/>
							</linearGradient>
							<polygon fill="url(#SVGID_32_)" points="-209.346,1104.033 518.28,759.033 -173.471,36.658 -209.908,1104.033 							"/>
						</g>
					</g>
				</g>
			</g>
		</g>
	</g>
</g>
<g>
	<path fill="#F77759" d="M83.213,60.004v6.731h-7.85v-8.333h7.771C83.186,58.93,83.213,59.463,83.213,60.004z"/>
	<path fill="#CCCCCC" d="M66.363,43.929v0.086c-5.543,7.675-14.564,12.669-24.754,12.669s-19.213-4.99-24.756-12.66v-0.095h7.408
		c4.539,4.249,10.639,6.85,17.344,6.85c6.709,0,12.811-2.601,17.348-6.851l0.002,0.001H66.363z"/>
	<g>
		<path fill="#E6E6E6" d="M16.854,44.023v37.555C10.477,78.48,4.768,74.225,0,69.082v-9.078c0-6.382,3.717-11.895,9.105-14.488
			c2.109-1.018,4.471-1.587,6.969-1.587h0.709C16.807,43.961,16.83,43.993,16.854,44.023z"/>
		<path fill="#E6E6E6" d="M83.211,66.735v2.347c-4.766,5.143-10.473,9.398-16.85,12.495V44.015c0.023-0.026,0.045-0.056,0.064-0.086
			h0.711c2.498,0,4.859,0.569,6.967,1.587c4.934,2.375,8.467,7.194,9.029,12.887h-7.771v8.333H83.211L83.211,66.735z"/>
	</g>
	<g>
		<path fill="#F2F2F2" d="M41.607,56.684v30.567c-8.875,0-17.275-2.039-24.754-5.673V44.023
			C22.396,51.693,31.42,56.684,41.607,56.684z"/>
		<path fill="#F2F2F2" d="M41.607,56.684v30.567c8.877,0,17.275-2.039,24.756-5.673V44.015
			C60.818,51.689,51.797,56.684,41.607,56.684z"/>
	</g>
	<path fill="#CCCCCC" d="M72.045,20.753H11.166c-3.23,0-5.848,2.618-5.848,5.848v26.683c0,3.229,2.617,5.849,5.848,5.849h60.879
		c3.23,0,5.85-2.619,5.85-5.849V26.601C77.895,23.371,75.275,20.753,72.045,20.753z"/>
	<path fill="#F2F2F2" d="M21.41,10.006C26.047,3.924,33.369,0,41.605,0c8.24,0,15.561,3.924,20.199,10.006
		c3.256,4.269,5.191,9.6,5.191,15.383c0,0.471-0.012,0.938-0.041,1.403c-0.365,6.753-3.369,12.8-8.002,17.136
		c-4.537,4.25-10.639,6.852-17.348,6.852c-6.705,0-12.805-2.602-17.344-6.85c-4.631-4.335-7.637-10.385-8.006-17.138
		c-0.025-0.465-0.037-0.933-0.037-1.403C16.219,19.605,18.154,14.274,21.41,10.006z M61.275,26.407
		c0-10.568-8.805-15.223-19.67-15.223c-10.861,0-19.668,4.654-19.668,15.223c0,10.571,8.807,19.142,19.668,19.142
		C52.471,45.549,61.275,36.979,61.275,26.407z"/>
	<path fill="#E6E6E6" d="M50.463,48.564c-6.707,0-12.807-2.601-17.344-6.85c-4.631-4.334-7.637-10.384-8.006-17.138
		c-0.025-0.465-0.037-0.932-0.037-1.402c0-5.783,1.934-11.115,5.191-15.384c2.529-3.317,5.859-5.991,9.699-7.737
		c-7.564,0.481-14.229,4.277-18.557,9.952c-3.258,4.269-5.191,9.6-5.191,15.383c0,0.471,0.012,0.938,0.037,1.403
		c0.369,6.753,3.375,12.803,8.006,17.137c4.539,4.249,10.639,6.85,17.344,6.85c3.748,0,7.305-0.812,10.506-2.269
		C51.566,48.545,51.018,48.564,50.463,48.564z"/>
	<path fill="#CCCCCC" d="M41.605,46.532c-11.387,0-20.652-9.028-20.652-20.125c0-8.847,5.941-14.659,16.303-15.946
		c1.389-0.174,2.854-0.262,4.35-0.262c5.883,0,10.887,1.323,14.473,3.826c4.043,2.823,6.182,7.104,6.182,12.382
		c0,7.791-4.684,14.952-11.93,18.243C47.592,45.899,44.656,46.532,41.605,46.532z M41.605,12.168c-1.416,0-2.797,0.083-4.107,0.246
		C24.814,13.99,22.92,21.857,22.92,26.407c0,10.012,8.383,18.157,18.686,18.157c2.766,0,5.428-0.573,7.91-1.705
		c6.547-2.973,10.775-9.431,10.775-16.452c0-4.671-1.797-8.294-5.34-10.768C51.699,13.368,47.084,12.168,41.605,12.168z"/>
	<path fill="#46B5D3" d="M61.275,26.407c0,7.679-4.645,14.302-11.352,17.347c-2.525,1.152-5.346,1.794-8.318,1.794
		c-10.861,0-19.668-8.569-19.668-19.141c0-9.156,6.609-13.873,15.439-14.97c1.363-0.17,2.777-0.254,4.229-0.254
		C52.471,11.185,61.275,15.839,61.275,26.407z"/>
	<path fill="#51BEE5" d="M61.275,26.407c0,7.679-4.645,14.302-11.352,17.347c-0.551,0.05-1.111,0.072-1.676,0.072
		c-10.861,0-19.668-8.569-19.668-19.141c0-6.657,3.496-10.971,8.797-13.248c1.363-0.17,2.777-0.253,4.229-0.253
		C52.471,11.185,61.275,15.839,61.275,26.407z"/>
	<ellipse fill="#73D5EF" cx="54.48" cy="25.169" rx="3.691" ry="6.15"/>
	<g>
		<path fill="#CCCCCC" d="M43.697,54.703v32.51c-0.693,0.026-1.389,0.039-2.09,0.039s-1.398-0.013-2.092-0.039v-32.51H43.697z"/>
		<path fill="#CCCCCC" d="M53.432,63.314H29.783c-1.895,0-3.428,1.535-3.428,3.43v10.115c0,1.895,1.533,3.43,3.428,3.43h23.648
			c1.893,0,3.428-1.535,3.428-3.43V66.744C56.859,64.85,55.326,63.314,53.432,63.314z"/>
	</g>
	<path fill="#B3B3B3" d="M29.783,77.092c-0.127,0-0.23-0.104-0.23-0.232V66.744c0-0.127,0.104-0.232,0.23-0.232h23.648
		c0.127,0,0.23,0.105,0.23,0.232v10.115c0,0.128-0.104,0.232-0.23,0.232H29.783z"/>
	<g>
		<circle fill="#F77759" cx="33.941" cy="72.006" r="2.706"/>
		<circle fill="#F77759" cx="49.275" cy="72.006" r="2.706"/>
		<circle fill="#F77759" cx="41.607" cy="72.006" r="2.706"/>
		<path fill="#F77759" d="M0,60.004v6.731h7.852v-8.333H0.08C0.027,58.93,0,59.463,0,60.004z"/>
	</g>
</g>
</svg>
