<?xml version="1.0" standalone="no"?>
<!DOCTYPE svg PUBLIC "-//W3C//DTD SVG 20010904//EN"
 "http://www.w3.org/TR/2001/REC-SVG-20010904/DTD/svg10.dtd">
<svg version="1.0" xmlns="http://www.w3.org/2000/svg"
 width="70.000000pt" height="70.000000pt" viewBox="0 0 70.000000 70.000000"
 preserveAspectRatio="xMidYMid meet">
<metadata>
Created by potrace 1.11, written by Peter Selinger 2001-2013
</metadata>
<g transform="translate(0.000000,70.000000) scale(0.100000,-0.100000)"
fill="#000000" stroke="none">
<path d="M265 694 c-99 -27 -208 -124 -244 -217 -27 -72 -24 -202 6 -269 30
-66 105 -143 172 -175 49 -25 68 -28 151 -28 84 0 102 3 152 28 74 36 150 119
178 195 18 47 21 71 17 143 -4 74 -9 95 -36 142 -38 67 -107 132 -169 160 -47
20 -181 33 -227 21z m202 -35 c168 -63 255 -255 192 -425 -29 -79 -112 -163
-193 -193 -124 -46 -251 -18 -347 78 -76 77 -103 147 -96 252 6 95 37 159 107
222 95 85 219 109 337 66z"/>
<path d="M436 565 c-56 -20 -102 -69 -147 -160 -33 -65 -45 -81 -67 -85 -18
-3 -34 -18 -49 -45 -29 -52 -29 -55 7 -55 25 0 30 -4 36 -35 7 -37 52 -73 70
-56 5 5 19 12 31 15 17 6 25 1 36 -20 l14 -26 22 27 c27 35 36 68 24 90 -7 12
2 40 34 103 45 89 63 179 49 236 -7 30 -8 30 -60 11z m44 -35 c0 -23 -8 -25
-32 -6 -20 15 -14 26 14 26 11 0 18 -7 18 -20z m-41 -25 c16 -8 31 -21 34 -30
11 -27 -29 -131 -77 -202 -80 -119 -76 -116 -116 -99 -19 8 -38 17 -42 21 -16
16 76 231 123 288 34 42 39 43 78 22z m-219 -244 c-6 -12 -17 -21 -26 -21 -12
0 -13 4 -3 23 14 26 33 40 37 27 2 -5 -2 -18 -8 -29z m167 -96 c-10 -19 -16
-24 -22 -15 -10 16 16 63 28 51 5 -5 3 -20 -6 -36z"/>
<path d="M404 439 c-15 -20 -74 -125 -74 -133 0 -3 4 -6 9 -6 12 0 83 128 79
141 -2 7 -8 6 -14 -2z"/>
</g>
</svg>
